<svg width="329" height="336" viewBox="0 0 329 336" fill="none" xmlns="http://www.w3.org/2000/svg">
<g opacity="0.5">
<path d="M52.312 89.4655H44L44.396 90.7519C44.627 90.9465 44.9487 91.2586 45.2707 91.6425C45.8219 92.2999 46.3741 93.1678 46.474 94.0174M52.312 89.4655L52.1141 80.6585H51.8172V79.57L51.0256 78.4815V77.8878H51.8172L52.312 76.7004M52.312 89.4655H81.3007M46.4737 124.891V98.3714L46.1768 98.0746V96.9861L45.4841 95.1059H46.4737L46.474 94.0174M46.4737 124.891L45.4841 126.376L46.0779 127.662M46.4737 124.891H48.0571M46.0779 127.662V197.821L45.2862 198.712L45.9789 200.097L45.781 200.493L46.0779 201.185V202.868L45.781 203.066L46.0779 203.659L45.2862 204.352L46.0779 206.133V307.067M46.0779 127.662L46.7707 126.969H48.0571M46.0779 313.301L50.9268 314.044M46.0779 313.301H51.7185M46.0779 313.301V307.067M322.458 313.301V98.0746M322.458 313.301H323.448V335.071H310.683M322.458 313.301H310.683M52.312 76.7004V75.9087L50.8715 72.6676M52.312 76.7004L87.639 75.7108V73.9296M50.7287 71.8516V72.3463L50.8715 72.6676M50.7287 71.8516L50.3329 71.4558V70.862H51.3225V70.5652H51.8172V68.0913L51.5204 67.6955V67.2997H51.2235V66.9038H50.9266V66.2112H52.7078L53.0047 62.0551H53.2026L53.4005 58.3937L53.8953 64.1331L54.0932 64.331V66.2112H54.588L55.4786 68.0913L65.8688 67.7944V67.2997H65.7698V66.9038H65.473V66.508H65.1761V65.8153H66.8583V65.5185L67.0562 65.3206H67.551L67.7489 65.5185V65.8153H68.8374L69.6291 67.6955L84.1754 67.2997V66.8049H84.0765V66.4091H83.7796V66.0132H83.4827V65.3206H85.165V65.0237L85.3629 64.8258H85.8576L86.0556 65.0237V65.3206H87.144L87.8367 67.2007L97.3364 67.0028V66.508H97.2374V66.1122H97.089V65.7164H96.8663V65.0237H98.4249V64.7268L98.6228 64.5289H99.1176L99.3155 64.7268V65.0237H100.107V62.5498H99.5136V61.2634M50.7287 71.8516L86.4516 70.961M81.3007 89.4655C80.9788 89.0816 80.2504 88.2747 80.0193 88.0801L79.6235 86.7937L167.396 84.7157V86.0021M81.3007 89.4655C81.852 90.1229 81.9974 90.4961 82.0974 91.3456V92.6321H82.9882M167.396 86.0021V86.3979L203.02 85.5073V83.7261M167.396 86.0021C167.257 86.119 167.086 86.2782 166.901 86.4699M166.901 86.4699C166.779 86.5974 166.65 86.7393 166.522 86.8927C165.97 87.55 165.418 88.418 165.318 89.2676V90.3561V90.7519L164.725 90.7663M166.901 86.4699V87.8822L203.02 87.0906V90.4551M203.02 119.944V91.7415M46.474 94.0174H82.9882M203.02 96.0955C203.02 178.369 203.02 224.497 203.02 306.77M227.066 96.0955C227.066 178.369 227.066 224.497 227.066 306.77M284.163 82.3408V88.7728M284.163 82.3408H284.856V78.2836H285.252V76.8983M284.163 82.3408H281.788V76.7004H284.461M292.97 308.749V83.3303H301.282M301.282 83.3303V308.749M301.282 83.3303L302.866 86.8927M302.866 86.8927V308.749M302.866 86.8927L304.251 86.0461M304.647 85.8042V85.1115M304.647 85.8042L304.251 86.0461M304.647 85.8042V98.7673M304.647 308.749V296.38M310.683 77.2941L306.23 79.194L307.022 81.2523M310.683 77.2941V96.0955M310.683 77.2941L314.097 77.7889M310.683 308.749V295.984M317.511 78.2836L319.193 83.6272M317.511 78.2836V96.7882M317.511 78.2836L314.097 77.7889M317.511 308.749V295.984M319.193 83.6272V101.439M319.193 83.6272H320.875M319.193 308.749V101.439M320.875 83.6272L322.458 89.1686V98.0746M320.875 83.6272V296.776M320.875 308.749V296.776M48.0571 94.0174V124.891M48.0571 306.77V126.969M284.163 90.653H292.574V88.476M284.163 90.653L285.449 88.476M284.163 90.653V88.7728M164.527 315.775V334.082H196.885V315.775H182.339M164.527 315.775V313.301M164.527 315.775H182.339M150.794 315.082H145.923V334.082H150.794M150.794 315.082H155.896M150.794 315.082V334.082M155.896 315.082H160.767V334.082H155.896M155.896 315.082V334.082M150.794 334.082H155.896M99.5136 61.2634C99.2497 60.3069 98.623 58.2354 98.2272 57.6021V57.3052M99.5136 61.2634L148.793 60.076M98.2272 57.3052H98.0293V56.3157M98.2272 57.3052L149.882 56.0188M98.0293 56.3157H97.7324V55.524H98.623V54.0397H98.4251V52.7533M98.0293 56.3157L149.882 55.1282M98.4251 52.7533H98.2272V52.2585H98.1282V51.7638H97.9303V51.17H99.5136L100.107 43.4516L100.899 51.17H101.592L101.889 53.2481L121.086 52.8523M98.4251 52.7533H101.196M121.086 52.8523V50.4774L120.789 49.1909V48.6962M121.086 52.8523V54.1387H118.018V55.3261M123.856 37.4153L123.659 37.7122L123.362 47.1129L122.57 47.8056H120.789V48.6962M123.856 37.4153L124.153 21.1868L124.648 37.4153M123.856 37.4153H124.648M124.648 37.4153L124.846 37.7122L125.143 47.1129L125.554 47.8056H127.138M127.138 47.8056L127.716 51.4669V52.5554M127.138 47.8056V48.3003L126.825 48.6962M127.716 52.5554L146.814 52.1596V51.269H146.616V49.9826H147.803V49.4878L147.902 49.3889L148.496 41.0767L149.09 49.3889L149.189 49.4878V49.9826H150.277L150.475 53.1491L149.783 53.446M127.716 52.5554H127.419L126.825 48.6962M149.783 53.446V54.2376H150.277L150.475 62.4509L149.387 63.3415L149.585 63.4404C149.651 63.3415 149.802 63.1436 149.882 63.1436C149.98 63.1436 150.277 63.0446 150.475 63.4404H151.762V65.5185L162.152 65.4195M149.783 53.446V51.4669H147.21V54.4355M162.152 65.4195V64.6279H161.855V63.0446H163.043C163.108 62.9456 163.3 62.7477 163.537 62.7477C163.775 62.7477 163.966 62.9456 164.032 63.0446H165.516V65.1227L182.141 64.8258V63.7373H181.844V62.7477H183.031C183.064 62.6158 183.209 62.3519 183.526 62.3519C183.843 62.3519 183.988 62.6158 184.021 62.7477H185.406V64.8258L198.963 64.7268V63.8362H198.666V63.2425H198.518V62.6488H199.557M162.152 65.4195V66.3101M199.557 62.6488L199.458 62.9456H200.843L200.744 62.6488M199.557 62.6488L199.571 62.4509M200.744 62.6488H201.833M200.744 62.6488L200.73 62.4509M201.833 62.6488L204.406 43.8474M201.833 62.6488V63.2425H201.635V63.8362H201.338V66.7389M204.406 43.8474V43.1547M204.406 43.8474V44.1443H204.702M204.406 43.1547H204.109V42.2641H204.406V41.6704H204.702V38.7017H204.505V38.207H204.208V37.3164H205.395L205.989 29.499L206.583 37.3164H207.968V38.207V39.2955L223.801 38.8997V38.207H223.603V37.8111H223.306V36.8216H224.592C224.625 36.6897 224.77 36.4258 225.087 36.4258C225.404 36.4258 225.549 36.6897 225.582 36.8216H227.066L227.858 34.1498V33.0613H229.144C229.177 32.9954 229.283 32.8634 229.441 32.8634C229.599 32.8634 229.705 32.9954 229.738 33.0613H231.618V33.9519H231.321V35.2383L243.493 34.9415L244.185 32.6655H244.878L245.571 24.5512L246.263 32.6655H247.847V33.4571L247.451 34.8425L260.612 34.4467V33.754H260.414V33.1603H260.117V32.2697H261.601C261.634 32.2037 261.76 32.0718 261.997 32.0718C262.235 32.0718 262.36 32.2037 262.393 32.2697H264.273V33.1603L263.482 35.4362H263.679C263.679 35.3373 263.739 35.1394 263.976 35.1394C264.214 35.1394 264.273 35.3373 264.273 35.4362H266.153V36.4258H265.856L265.659 37.4153L273.674 37.3164L276.445 35.0404L277.038 27.0251L277.533 33.9519L277.929 34.3477M204.406 43.1547L227.264 42.561M277.929 34.3477L279.017 33.1603C280.007 30.6204 282.976 25.2835 286.934 24.2544V20.9889L287.33 20.692V1.29686L288.22 1V20.1972L288.715 20.692V23.4627C290.463 23.0669 294.632 23.4825 296.532 27.124M277.929 34.3477C284.579 28.4896 293.168 27.19 296.532 27.124M296.532 27.124C300.226 26.8362 305.849 27.6413 311.115 30.5875M323.943 48.4983L324.438 49.092M323.943 48.4983C321.903 39.2697 316.711 33.719 311.115 30.5875M323.943 48.4983C320.743 43.9463 308.644 36.782 285.845 44.5401M324.438 49.092V48.3003L325.922 47.3108M324.438 49.092C324.703 49.5167 325.058 50.0393 325.352 50.5763M325.922 47.3108L326.516 36.2279L327.505 48.4983V48.6962M325.922 47.3108L326.417 47.5087M327.505 49.6857L327.802 49.9826V50.8732H327.505M327.505 49.6857V48.6962M327.505 49.6857L327.035 49.5846M327.505 50.8732V51.5659L328 52.7533L327.703 57.2063M327.505 50.8732L327.062 50.5763M327.703 57.2063C327.67 58.3278 327.485 60.5509 327.01 60.4718M327.703 57.2063C327.538 57.2722 327.208 57.2459 327.208 56.6125C327.208 56.1197 327.128 53.0383 327.062 50.5763M327.01 60.4718C327.065 61.3203 327.056 62.8868 326.69 63.4404M327.01 60.4718C326.813 60.5707 326.417 60.5114 326.417 59.4822C326.417 58.4531 326.417 51.0711 326.417 47.5087M326.417 63.6383C326.549 65.6174 326.575 69.8131 325.625 70.7631M326.417 63.6383L325.229 64.1331C324.537 62.0551 325.031 60.9666 325.427 59.977C325.744 59.1854 325.889 57.5361 325.922 56.8105M326.417 63.6383C326.524 63.6249 326.615 63.5539 326.69 63.4404M325.625 70.7631C325.757 71.5547 325.981 73.6921 325.823 75.9087M325.625 70.7631L325.229 68.685C325.209 68.5185 325.187 68.3535 325.164 68.1902M325.823 75.9087C327.769 78.3826 329.82 86.2792 322.458 98.0746M325.823 75.9087C325.354 75.0652 324.538 74.0131 323.349 72.9259M322.458 98.0746C332.828 76.9378 313.585 72.3134 302.668 72.6432M302.272 71.7526L303.36 66.8049C313.459 66.3939 319.937 69.8043 323.349 72.9259M302.272 71.7526L302.668 72.6432M302.272 71.7526L297.72 56.0188L292.97 53.9408M302.668 72.6432L303.657 76.1066M307.022 81.2523L306.23 82.6376C305.537 83.0335 304.647 83.924 304.647 85.1115M307.022 81.2523L305.043 76.1066M304.647 85.1115L303.261 81.846V81.1533M305.043 76.1066H303.657M305.043 76.1066L304.449 78.1847C304.086 78.4156 303.459 79.768 303.261 81.1533M303.657 76.1066L295.532 76.3045M294.553 76.3045C294.652 74.3914 293.883 70.3045 290.001 70.3673C287.004 70.4157 285.737 72.5566 285.371 75.1159M294.553 76.3045H295.532M294.553 76.3045L294.256 78.2836C293.702 79.3128 293.63 80.6256 293.663 81.1533M285.252 76.8983H284.46C284.46 76.8319 284.46 76.7659 284.461 76.7004M285.252 76.8983C285.252 76.2956 285.288 75.695 285.371 75.1159M295.532 76.3045C295.363 72.032 293.404 69.5756 290.001 69.5756C286.615 69.5756 284.66 71.9893 284.474 76.2219C284.468 76.3789 284.463 76.5384 284.461 76.7004M285.371 75.1159C286.021 74.5813 286.937 74.2265 288.22 74.2265C291.849 74.2265 292.574 77.4835 292.574 78.8995V86.5958M292.574 86.5958H285.449M292.574 86.5958V88.476M285.449 86.5958L284.163 88.7728M285.449 86.5958V88.476M285.449 88.476H292.574M292.97 53.9408L279.809 54.2376L281.59 59.7791M292.97 53.9408C302.769 51.7523 322.776 51.5887 325.164 68.1902M281.59 59.7791H282.778M281.59 59.7791L279.611 59.8081M282.778 59.7791L286.439 64.7268L285.845 66.3101M282.778 59.7791L282.184 61.8571M285.845 66.3101C285.482 66.541 284.638 67.3392 284.163 68.685M285.845 66.3101L282.184 61.8571M284.163 68.685V69.8725L280.997 65.9143L270.507 66.1122M284.163 68.685L280.997 64.8258M280.997 64.8258C281.194 63.4404 281.821 62.088 282.184 61.8571M280.997 64.8258L270.111 65.1227M270.507 66.1122L270.111 65.1227M270.507 66.1122L271.002 67.4655L259.812 67.7944M270.111 65.1227C269.98 64.5619 269.662 63.1479 269.023 62.253C268.528 61.5603 268.33 61.5603 268.33 61.5603L268.096 59.977M268.096 59.977L267.934 58.8885L270.111 58.8522M268.096 59.977L279.611 59.8081M279.611 59.8081L279.809 58.6906L276.544 58.745M276.544 58.745V52.0606C276.544 50.6753 275.261 49.5868 273.278 49.5868C271.061 49.5868 270.111 50.6753 270.111 52.0606V58.8522M276.544 58.745L270.111 58.8522M311.115 30.5875L310.287 31.3791V32.6655M311.115 30.5875L311.475 31.3791M311.115 30.5875C311.079 30.3895 311.475 29.6969 312.959 30.3895C315.686 31.6623 317.016 33.853 317.313 34.3477C317.55 34.7436 317.61 35.4362 317.61 35.7511M310.287 32.6655L315.037 36.6237M310.287 32.6655L311.475 31.3791M317.61 35.7511L316.719 36.6237H315.037M317.61 35.7511L315.928 35.5352M315.037 36.6237L315.928 35.5352M315.928 35.5352L311.475 31.3791M285.845 44.5401V43.7484M285.845 44.5401V46.816H286.439M285.845 43.7484H286.241V43.2537H286.439V42.8578H286.637V42.3631H283.174L282.283 44.5401M285.845 43.7484H283.47M286.439 46.816V47.1129L293.366 46.816C301.711 44.738 319.905 43.8276 325.922 56.8105M286.439 46.816C309.891 39.9882 320.38 46.816 324.833 53.9408L325.13 53.347L325.031 52.8523L325.427 52.3575V52.0606L325.724 51.3679C325.626 51.1072 325.496 50.84 325.352 50.5763M325.922 56.8105L325.823 50.5763H325.352M325.922 56.8105C325.764 60.6103 326.368 62.8137 326.69 63.4404M326.417 47.5087L327.01 48.6962M327.01 48.6962H327.505M327.01 48.6962C327.018 48.9635 327.026 49.2628 327.035 49.5846M327.035 49.5846C327.044 49.897 327.053 50.2306 327.062 50.5763M325.164 68.1902C324.856 67.7944 323.572 67.6465 323.349 68.685C323.052 70.0704 323.25 71.7432 323.349 72.9259M303.261 81.1533H293.663M293.663 81.1533V82.2418H302.866L304.251 86.0461M304.647 98.7673L310.683 96.0955M304.647 98.7673V136.964M310.683 96.0955L317.511 96.7882M310.683 96.0955V134.688M317.511 96.7882L319.193 101.439M317.511 96.7882V295.984M304.647 101.538L310.683 98.8662L317.511 99.5589L319.193 104.21M304.647 117.569L310.683 114.897L317.511 115.59L319.193 120.24M304.647 120.339L310.683 117.668L317.511 118.36L319.193 123.011M304.647 131.224L310.683 128.553L314.097 128.799M304.647 140.922L310.683 138.25L317.511 138.943L319.193 143.594M304.647 152.797L310.683 150.718L317.511 151.213L319.193 155.666M304.647 155.567L310.683 153.489L317.511 153.984L319.193 158.437M304.647 170.608L310.683 168.53L317.511 169.025L319.193 173.478M304.647 173.28L310.683 171.202L317.511 171.697L319.193 176.15M304.647 188.123L310.683 186.342L317.511 186.837L319.193 190.696M304.647 190.894L310.683 189.113L317.511 189.608L319.193 193.467M304.647 223.846L310.683 222.065L314.097 222.312M319.193 226.419L317.511 222.56L314.097 222.312M304.647 226.914L310.683 225.132L317.511 225.627L319.193 229.486M310.683 134.688L304.647 136.964M310.683 134.688L314.641 135.034M310.683 134.688V295.984M304.647 136.964V296.38M314.097 77.7889V128.799M314.097 128.799L318.896 129.146L320.38 133.599L321.766 133.203L324.141 138.943C323.91 139.042 323.448 139.457 323.448 140.328H323.25C323.184 140.955 323.25 142.664 324.042 144.484L322.953 144.979C322.459 143.825 321.41 141.1 321.172 139.438L320.282 139.636L319.985 138.547H319.787L318.599 135.38L314.641 135.034M314.641 135.034L314.097 222.312M314.097 222.312V308.749M304.647 296.38L310.683 295.984M310.683 295.984H317.511M317.511 295.984L320.875 296.776M304.647 293.807L310.683 293.411H317.511L320.875 294.203M304.647 281.24L310.683 280.844H317.511L320.875 281.636M304.647 278.469L310.683 278.073H317.511L320.875 278.865M246.164 315.082V334.082M246.164 315.082H241.514M246.164 315.082H251.013M246.164 334.082H241.514M246.164 334.082H251.013M232.53 315.082V334.082H236.665M232.53 315.082H236.665M232.53 315.082V313.301M236.665 315.082H241.514M236.665 315.082V334.082M241.514 315.082V334.082M236.665 334.082H241.514M251.013 315.082V334.082M251.013 315.082H255.763M251.013 334.082H255.763M255.763 315.082V334.082M255.763 315.082H260.315M255.763 334.082H260.315V315.082M260.315 315.082V313.301M278.424 315.082V334.082M278.424 315.082H275.059M278.424 315.082H284.361M278.424 334.082H275.059M278.424 334.082H284.361M267.659 315.082V334.082H270.507M267.659 315.082H270.507M267.659 315.082V313.301M270.507 315.082H275.059M270.507 315.082V334.082M275.059 315.082V334.082M270.507 334.082H275.059M284.361 315.082V334.082M284.361 315.082H289.111M284.361 334.082H289.111M289.111 315.082V334.082M289.111 315.082H293.564M289.111 334.082H293.564V315.082M293.564 315.082V313.301M209.254 315.082V334.082M209.254 315.082H204.208V334.082H209.254M209.254 315.082H220.139V334.082H209.254M214.796 315.082V334.082M138.7 315.082V334.082H133.829M138.7 315.082H133.829M138.7 315.082V313.301M122.57 334.082V315.082M122.57 334.082H128.111M122.57 334.082H117.128M122.57 315.082H128.111M122.57 315.082H117.128M128.111 315.082H133.829M128.111 315.082V334.082M133.829 315.082V334.082M128.111 334.082H133.829M117.128 334.082V315.082M117.128 334.082H111.487M117.128 315.082H111.487M111.487 334.082V315.082M111.487 334.082H106.539V315.082M111.487 315.082H106.539M106.539 315.082V313.301M50.9268 313.301V314.044M57.7547 313.301H62.9993M57.7547 313.301V315.09M57.7547 313.301H51.7185M64.6815 332.498V335.071M64.6815 332.498H64.0878M64.6815 332.498H65.6711M64.6815 335.071H62.6035V332.498H62.9993M64.6815 335.071H76.0613M76.0613 332.498V335.071M76.0613 332.498H65.6711M76.0613 332.498V329.925M76.0613 335.071H86.1547M77.2488 329.925L86.1547 330.123M77.2488 329.925V329.233M77.2488 329.925H65.6711M77.2488 329.925V335.071M86.1547 330.123V329.431L77.2488 329.233M86.1547 330.123V335.071M77.2488 329.233H75.5665M64.0878 329.925H63.7909V329.233H65.4732M64.0878 329.925V332.498M64.0878 329.925H65.6711M64.0878 332.498H62.9993M65.6711 329.925V332.498M67.1554 329.925V332.498M68.7387 329.925V332.498M70.223 329.925V332.498M71.7073 329.925V332.498M73.0927 329.925V332.498M74.577 329.925V332.498M78.2383 329.925V335.071M79.2279 329.969V335.071M80.2174 329.991V335.071M81.207 330.013V335.071M82.1965 330.035V335.071M83.0871 330.055V335.071M83.9777 330.075V335.071M84.7693 330.093V335.071M85.561 330.11V335.071M86.1547 335.071H97.1387M62.9993 313.301H65.4732M62.9993 313.301V315.894M62.9993 332.498V315.894M65.4732 313.301V329.233M65.4732 313.301H66.0669M65.4732 329.233H66.0669M66.0669 329.233H70.6188M66.0669 329.233V316.364M66.0669 313.301H70.6188M66.0669 313.301V316.364M70.6188 313.301H72.301M70.6188 313.301V317.061M70.6188 329.233H72.301M70.6188 329.233V317.061M72.301 329.233V313.301M72.301 329.233H75.5665M72.301 313.301H75.5665M75.5665 313.301V317.457M75.5665 313.301H82.5923M75.5665 329.233V317.457M70.6188 317.061L66.0669 316.364M75.5665 317.457H82.5923M82.5923 317.457V329.352M82.5923 317.457V313.301M50.9268 314.044V335.071H57.7547V315.09M57.7547 315.09L62.9993 315.894M83.7798 313.301V329.352M75.5665 316.369H82.5923M82.5923 313.301H97.1387M70.6188 315.676L66.0669 314.978M57.7547 313.598L62.9993 314.402M97.1387 313.301V335.071M97.1387 313.301H106.539M97.1387 335.071H144.043M260.315 313.301H267.659M260.315 313.301H232.53M267.659 313.301H293.564M232.53 313.301H227.066M227.066 313.301V335.071M227.066 313.301H224.691M227.066 335.071H224.691M227.066 335.071H310.683M224.691 313.301V335.071M224.691 313.301H164.527M224.691 335.071H144.043M164.527 313.301H144.043M144.043 313.301V335.071M144.043 313.301H138.7M138.7 313.301H106.539M167.99 315.775V334.082M171.751 315.775V334.082M175.511 315.775V323.988M175.511 334.082V323.988M178.776 315.775V323.988M185.901 315.775V323.988M185.901 334.082V323.988M189.562 315.775V334.082M193.323 315.775V334.082M185.901 323.988H182.339M175.511 323.988H178.776M178.776 323.988H182.339M182.339 323.988V315.775M82.9882 94.0174V93.3247M82.9882 94.0174H51.7185V124.891M51.7185 313.301V126.969M46.0779 307.067H82.9882M227.066 306.572H201.932V307.067H82.9882M50.8715 72.6676L86.9463 71.8516M87.4411 73.7317C87.4741 73.171 87.3026 71.7328 86.3526 70.4662V69.9714M86.3526 69.9714L85.8576 68.685L162.152 67.2007V68.1902M86.3526 69.9714L162.152 68.1902M162.152 68.1902V68.9819M162.152 68.1902C161.849 68.6095 161.07 69.8851 160.928 72.0495M229.243 46.0244H228.867V44.4411M229.243 46.0244L228.49 49.092M229.243 46.0244L262.393 44.9359V47.3108L278.424 46.5192L279.347 44.5401M222.415 72.5443L228.49 49.092M222.415 72.5443L223.543 68.1902H231.222H232.932M222.415 72.5443H219.593M228.49 49.092L205.989 49.6857M228.49 49.092L228.188 47.6077L205.395 48.2014M228.49 49.092L227.363 43.5505M205.989 49.6857H205.395V48.2014M205.989 49.6857L201.338 66.7389M199.755 72.5443H209.056H211.283M199.755 72.5443H198.482V72.9896M199.755 72.5443L200.591 69.4767M199.854 82.9345L198.963 81.747H198.468L198.072 81.4502L197.974 80.9554L197.776 80.8564L198.407 74.2265M199.854 82.9345L200.052 83.7261H203.02M199.854 82.9345L200.447 78.4815M203.02 83.7261V79.8669H205.098M200.447 78.4815H210.64M200.447 78.4815V77.393M210.64 78.4815V84.9136H220.337V75.4481C220.337 73.8784 219.529 70.2683 215.488 70.2683C213.17 70.2683 211.928 71.303 211.283 72.5443M210.64 78.4815V77.393M210.64 77.393V75.4481C210.64 74.6198 210.777 73.5184 211.283 72.5443M210.64 77.393H200.447M200.447 77.393C200.381 76.9312 200.052 75.7702 199.26 74.8202H199.062V74.2265H198.765V73.4348H198.482M198.482 73.4348L198.407 74.2265M198.482 73.4348V72.9896M205.395 48.2014C205.362 47.4757 205.177 45.7671 204.702 44.738V44.1443M204.702 44.1443L227.363 43.5505M227.363 43.5505L227.264 42.561M227.264 42.561V41.6704L227.858 38.8997M227.858 38.8997L264.075 38.3059L263.679 39.8892M227.858 38.8997L228.155 40.9777L228.867 44.4411M120.789 48.6962H126.825M127.138 53.2481V53.8418H129.497V55.0293M162.152 68.9819L200.996 67.9923M162.152 68.9819V70.4662M200.996 67.9923L201.338 66.7389M200.996 67.9923L200.591 69.4767M199.571 62.4509L200.151 54.3366L200.73 62.4509M199.571 62.4509H200.73M51.7185 124.891H52.4111L53.6976 125.782M51.7185 124.891H48.0571M51.7185 126.969H52.4111L53.0544 127.415M51.7185 126.969H48.0571M82.9882 93.3247V92.6321M82.9882 93.3247V123.506M82.9882 92.6321L99.9094 92.3352L164.725 90.7663M82.9882 130.433V196.732V203.659V270.058V276.688V307.067M302.767 335.071V313.301M293.564 313.301H310.683M310.683 313.301V335.071M164.725 90.7663V91.3456M203.02 91.7415L164.725 92.5331V91.3456M203.02 91.7415V90.4551M164.725 91.3456L203.02 90.4551M161.162 75.216L198.407 74.2265M161.162 75.216C160.92 74.005 160.869 72.9503 160.928 72.0495M161.162 75.216C161.188 74.8295 161.23 74.3435 161.288 73.8307M162.152 70.4662C161.742 70.7004 161.451 72.3743 161.288 73.8307M162.152 70.4662L200.591 69.4767M87.4411 73.9296H87.639M87.639 73.9296H88.6286L160.928 72.0495M161.288 73.8307L198.482 72.9896M228.867 44.4411L262.393 43.5505L263.679 39.8892M263.679 39.8892L278.424 39.4934L280.205 41.6704L279.809 43.5505L279.347 44.5401M279.347 44.5401H282.283M283.174 44.1443V44.5401H282.283M283.174 45.2328V46.816H282.976V47.1129M232.932 68.1902C232.196 69.1777 232.014 70.4491 232.014 71.3568V82.5387H240.722V71.3568C240.722 70.5761 240.501 69.2358 239.695 68.1902M232.932 68.1902C233.574 67.3291 234.637 66.6837 236.368 66.6837C237.996 66.6837 239.039 67.3394 239.695 68.1902M239.695 68.1902L252.798 67.7944M252.798 67.7944C252.164 68.7534 252.003 69.9305 252.003 70.7852V82.5387H256.357H260.711V70.7852C260.711 70.0476 260.514 68.8105 259.812 67.7944M252.798 67.7944C253.424 66.8468 254.51 66.1122 256.357 66.1122C258.095 66.1122 259.167 66.8598 259.812 67.7944M54.5882 88.8718V80.6585C54.5882 79.4711 55.0236 77.393 57.5568 77.393C60.0307 77.393 60.5254 79.669 60.5254 80.6585V88.8718H57.5568H54.5882ZM73.1916 88.476V80.2627C73.1916 79.0753 73.627 76.9972 76.1603 76.9972C78.6341 76.9972 79.1289 79.2732 79.1289 80.2627V88.476H76.1603H73.1916ZM90.9045 86.3861V78.1728C90.9045 76.9854 91.3399 74.9073 93.8732 74.9073C96.347 74.9073 96.8418 77.1833 96.8418 78.1728V86.3861H93.8732H90.9045ZM107.925 86.0534V77.8402C107.925 76.6527 108.36 74.5747 110.893 74.5747C113.367 74.5747 113.862 76.8506 113.862 77.8402V86.0534H110.893H107.925ZM130.288 85.4537V77.2404C130.288 76.053 130.724 73.9749 133.257 73.9749C135.731 73.9749 136.226 76.2509 136.226 77.2404V85.4537H133.257H130.288ZM149.684 84.9945V76.7812C149.684 75.5938 150.119 73.5157 152.652 73.5157C155.126 73.5157 155.621 75.7917 155.621 76.7812V84.9945H152.652H149.684ZM169.178 86.2V77.9868C169.178 76.7993 169.613 74.7213 172.146 74.7213C174.62 74.7213 175.115 76.9972 175.115 77.9868V86.2H172.146H169.178ZM187.088 85.9056V77.6924C187.088 76.5049 187.524 74.4269 190.057 74.4269C192.531 74.4269 193.026 76.7028 193.026 77.6924V85.9056H190.057H187.088Z" stroke="#9D8962" stroke-width="0.7"/>
<path d="M217.073 104.705H220.14L220.043 89.4658H217.073M217.073 104.705V89.4658M217.073 104.705H213.51M217.073 89.4658H213.51M213.51 89.4658H210.641V104.705H213.51M213.51 89.4658V104.705" stroke="#9D8962" stroke-width="0.7"/>
<path d="M217.073 119.943H220.14L220.043 108.86H217.073M217.073 119.943V108.86M217.073 119.943H213.51M217.073 108.86H213.51M213.51 108.86H210.641V119.943H213.51M213.51 108.86V119.943" stroke="#9D8962" stroke-width="0.7"/>
<path d="M217.073 141.714H220.14L220.043 128.058H217.073M217.073 141.714V128.058M217.073 141.714H213.51M217.073 128.058H213.51M213.51 128.058H210.641V141.714H213.51M213.51 128.058V141.714" stroke="#9D8962" stroke-width="0.7"/>
<path d="M217.073 160.317H220.14L220.043 146.067H217.073M217.073 160.317V146.067M217.073 160.317H213.51M217.073 146.067H213.51M213.51 146.067H210.641V160.317H213.51M213.51 146.067V160.317" stroke="#9D8962" stroke-width="0.7"/>
<path d="M217.073 178.921H220.14L220.043 164.473H217.073M217.073 178.921V164.473M217.073 178.921H213.51M217.073 164.473H213.51M213.51 164.473H210.641V178.921H213.51M213.51 164.473V178.921" stroke="#9D8962" stroke-width="0.7"/>
<path d="M217.073 194.555H220.14L220.043 182.878H217.073M217.073 194.555V182.878M217.073 194.555H213.51M217.073 182.878H213.51M213.51 182.878H210.641V194.555H213.51M213.51 182.878V194.555" stroke="#9D8962" stroke-width="0.7"/>
<path d="M217.073 216.127H220.14L220.043 202.075H217.073M217.073 216.127V202.075M217.073 216.127H213.51M217.073 202.075H213.51M213.51 202.075H210.641V216.127H213.51M213.51 202.075V216.127" stroke="#9D8962" stroke-width="0.7"/>
<path d="M217.073 234.731H220.14L220.043 220.086H217.073M217.073 234.731V220.086M217.073 234.731H213.51M217.073 220.086H213.51M213.51 220.086H210.641V234.731H213.51M213.51 220.086V234.731" stroke="#9D8962" stroke-width="0.7"/>
<path d="M217.073 253.137H220.14L220.043 238.293H217.073M217.073 253.137V238.293M217.073 253.137H213.51M217.073 238.293H213.51M213.51 238.293H210.641V253.137H213.51M213.51 238.293V253.137" stroke="#9D8962" stroke-width="0.7"/>
<path d="M217.073 269.167H220.14L220.043 256.698H217.073M217.073 269.167V256.698M217.073 269.167H213.51M217.073 256.698H213.51M213.51 256.698H210.641V269.167H213.51M213.51 256.698V269.167" stroke="#9D8962" stroke-width="0.7"/>
<path d="M217.073 290.344H220.14L220.043 276.094H217.073M217.073 290.344V276.094M217.073 290.344H213.51M217.073 276.094H213.51M213.51 276.094H210.641V290.344H213.51M213.51 276.094V290.344" stroke="#9D8962" stroke-width="0.7"/>
<path d="M217.073 306.376H220.14L220.043 293.907H217.073M217.073 306.376V293.907M217.073 306.376H213.51M217.073 293.907H213.51M213.51 293.907H210.641V306.376H213.51M213.51 293.907V306.376" stroke="#9D8962" stroke-width="0.7"/>
<path d="M304.646 131.224L310.683 128.552L314.097 128.799L318.896 129.146L320.38 133.599L321.766 133.203L324.141 138.942C323.91 139.041 323.448 139.457 323.448 140.328H323.25C323.199 140.814 323.227 141.953 323.613 143.29C323.898 144.069 324.076 144.567 324.042 144.484L323.052 144.979L320.974 139.437L320.281 139.635L319.787 138.547L318.599 135.38L314.641 135.034L310.683 134.687L304.646 136.963V131.224Z" fill="#1C1E1E"/>
<path d="M324.042 144.484C323.25 142.663 323.184 140.955 323.25 140.328H323.448C323.448 139.457 323.91 139.041 324.141 138.942L321.766 133.203L320.38 133.599L318.896 129.146L314.097 128.799L310.683 128.552L304.646 131.224V136.963L310.683 134.687L314.641 135.034L318.599 135.38L319.787 138.547M324.042 144.484L323.052 144.979L320.974 139.437L320.281 139.635L319.787 138.547M324.042 144.484C324.14 144.721 322.499 140.196 321.568 137.953L319.787 138.547" stroke="#9D8962" stroke-width="0.7"/>
<path d="M101.891 54.1379V55.7211M102.88 54.1379V55.7211M103.969 54.1379V55.7211M104.958 54.1379V55.6222M106.047 54.1379V55.6222M107.036 54.1379V55.6222M108.125 54.1379V55.6222M109.114 54.1379V55.5232M110.203 54.1379V55.5232M111.192 54.1379V55.5232M112.182 54.0389V55.5232M113.27 54.0389V55.5232M114.26 53.9399V55.4243M115.25 53.9399V55.4243M116.338 53.9399V55.3253M117.328 53.9399V55.3253" stroke="#9D8962" stroke-width="0.7"/>
<path d="M165.914 66.508V68.0912M166.904 66.508V68.0912M167.992 66.508V68.0912M168.982 66.508V67.9923M170.07 66.508V67.9923M171.06 66.508V67.9923M172.148 66.508V67.9923M173.138 66.508V67.8933M174.226 66.508V67.8933M175.216 66.508V67.8933M176.205 66.409V67.8933M177.294 66.409V67.8933M178.283 66.3101V67.7944M179.273 66.3101V67.7944M180.361 66.3101V67.6954M181.351 66.3101V67.6954" stroke="#9D8962" stroke-width="0.7"/>
<path d="M207.869 40.5817V42.165M208.859 40.5817V42.165M209.947 40.5817V42.165M210.937 40.5817V42.066M212.025 40.5817V42.066M213.015 40.5817V42.066M214.103 40.5817V42.066M215.093 40.5817V41.9671M216.181 40.5817V41.9671M217.171 40.5817V41.9671M218.16 40.4827V41.9671M219.249 40.4827V41.9671M220.238 40.3838V41.8681M221.228 40.3838V41.8681M222.317 40.3838V41.7692M223.306 40.3838V41.7692" stroke="#9D8962" stroke-width="0.7"/>
<path d="M130.287 53.4456V54.831M132.266 53.4456V54.831M133.355 53.4456V54.831M134.344 53.4456V54.732M135.433 53.4456V54.732M136.422 53.4456V54.732M137.511 53.3467V54.732M138.5 53.2477V54.6331M139.589 53.2477V54.6331M140.578 53.2477V54.6331M141.568 53.1488V54.6331M142.656 53.1488V54.6331M143.646 53.0498V54.5341M144.635 53.0498V54.5341M145.724 53.0498V54.4352M146.714 53.0498V54.4352M129.199 53.4456V53.8414M128.209 53.4456V53.8414M131.277 53.4456V54.831" stroke="#9D8962" stroke-width="0.7"/>
<path d="M185.209 65.7165V67.2008M186.297 65.7165V67.5966M187.386 65.7165V67.5966M188.376 65.7165V67.5966M189.563 65.8154V67.5966M190.651 65.8154V67.5966M191.74 65.8154V67.5966M192.828 65.6175V67.4976M193.818 65.6175V67.4976M194.907 65.6175V67.3987M195.995 65.6175V67.3987M197.084 65.5186V67.2997M198.073 65.5186V67.2997" stroke="#9D8962" stroke-width="0.7"/>
<path d="M231.422 36.4254V37.9098M232.51 36.4254V38.3056M233.599 36.4254V38.3056M234.588 36.4254V38.3056M235.776 36.5244V38.3056M236.864 36.5244V38.3056M237.953 36.5244V38.3056M239.041 36.3265V38.2066M240.031 36.3265V38.2066M241.119 36.3265V38.1077M242.208 36.3265V38.1077M243.296 36.2275V38.0087" stroke="#9D8962" stroke-width="0.7"/>
<path d="M259.82 35.8325V37.7127M258.732 35.8325V37.9106M257.544 35.8325V37.9106M256.357 35.9315V37.9106M255.268 35.9315V37.9106M254.18 35.9315V37.9106M253.091 36.1294V38.0095M252.102 36.1294V38.0095M251.013 36.1294V37.9106M249.925 36.1294V37.9106M248.836 36.0304V37.8116M247.847 36.0304V37.8116" stroke="#9D8962" stroke-width="0.7"/>
<path d="M282.379 45.3325V47.2127M281.29 45.3325V47.2127M280.4 45.3325V47.2127M279.311 45.4315V47.2127" stroke="#9D8962" stroke-width="0.7"/>
<path d="M275.258 38.567V39.2956M274.24 38.459V39.2956M273.142 38.459V39.2956M272.045 38.459V39.2956M270.947 38.5669V39.3946M269.95 38.5669V39.3946M268.852 38.5669V39.4845M267.755 38.5669V39.5385M266.657 38.513V39.4845M265.659 38.513V39.4845" stroke="#9D8962" stroke-width="0.7"/>
<path d="M56.6718 96.5898H53.7031V105.496H53.8025H56.6718M56.6718 96.5898V105.496M56.6718 96.5898H59.9373M56.6718 105.496H59.9373M59.9373 105.496H62.4111V96.5898H59.9373M59.9373 105.496V96.5898" stroke="#9D8962" stroke-width="0.7"/>
<path d="M56.6679 135.974H53.6992V143H53.7986H56.6679M56.6679 135.974V143M56.6679 135.974H59.9334M56.6679 143H59.7358H59.9334M59.9334 143V135.974M59.9334 143H60.2514H62.3087L62.4072 135.974H59.9334" stroke="#9D8962" stroke-width="0.7"/>
<path d="M56.6679 153.985H53.6992V161.011H53.7986H56.6679M56.6679 153.985V161.011M56.6679 153.985H59.9334M56.6679 161.011H59.7358H59.9334M59.9334 161.011V153.985M59.9334 161.011H60.0223H62.3087L62.4072 153.985H59.9334" stroke="#9D8962" stroke-width="0.7"/>
<path d="M56.6679 172.192H53.6992V179.218H53.7986H56.6679M56.6679 172.192V179.218M56.6679 172.192H59.9334M56.6679 179.218H59.7358H59.9334M59.9334 179.218V172.192M59.9334 179.218H60.0223H62.3087L62.4072 172.192H59.9334" stroke="#9D8962" stroke-width="0.7"/>
<path d="M74.9777 171.797H71.6133V179.021H72.6028H74.9777M74.9777 171.797V179.021M74.9777 171.797H78.7376M74.9777 179.021H78.5401H78.7376M78.7376 179.021V171.797M78.7376 179.021H78.9251H81.6077V171.797H78.7376" stroke="#9D8962" stroke-width="0.7"/>
<path d="M74.9777 153.985H71.6133V160.813H72.6028H74.9777M74.9777 153.985V160.813M74.9777 153.985H78.7376M74.9777 160.813H78.5401H78.7376M78.7376 160.813V153.985M78.7376 160.813H78.9251H81.6077V153.985H78.7376" stroke="#9D8962" stroke-width="0.7"/>
<path d="M74.9777 135.777H71.6133V142.803H72.6028H74.9777M74.9777 135.777V142.803M74.9777 135.777H78.7376M74.9777 142.803H78.5401H78.7376M78.7376 142.803V135.777M78.7376 142.803H78.9251H81.6077V135.777H78.7376" stroke="#9D8962" stroke-width="0.7"/>
<path d="M74.9095 114.403H71.5117V123.705H72.5111H74.9095M74.9095 114.403V123.705M74.9095 114.403H78.7066M74.9095 123.705H78.5071H78.7066M78.7066 123.705V114.403M78.7066 123.705H78.896H81.6051V114.403H78.7066" stroke="#9D8962" stroke-width="0.7"/>
<path d="M92.5861 112.226H89.5215V121.726H90.4229H92.5861M92.5861 112.226V121.726M92.5861 112.226H96.011M92.5861 121.726H95.8311H96.011M96.011 121.726V112.226M96.011 121.726H96.1818H98.6253V112.226H96.011" stroke="#9D8962" stroke-width="0.7"/>
<path d="M92.5861 94.2163H89.5215V103.716H90.4229H92.5861M92.5861 94.2163V103.716M92.5861 94.2163H96.011M92.5861 103.716H95.8311H96.011M96.011 103.716V94.2163M96.011 103.716H96.1818H98.6253V94.2163H96.011" stroke="#9D8962" stroke-width="0.7"/>
<path d="M74.9095 96.1953H71.5117V104.903H72.5111H74.9095M74.9095 96.1953V104.903M74.9095 96.1953H78.7066M74.9095 104.903H78.5071H78.7066M78.7066 104.903V96.1953M78.7066 104.903H78.896H81.6051V96.1953H78.7066" stroke="#9D8962" stroke-width="0.7"/>
<path d="M56.6679 190.301H53.6992V197.47H53.7986H56.6679M56.6679 190.301V197.47M56.6679 190.301H59.9334M56.6679 197.47H59.7358H59.9334M59.9334 197.47V190.301M59.9334 197.47H62.4199L62.4072 190.301H59.9334" stroke="#9D8962" stroke-width="0.7"/>
<path d="M56.6698 262.638H53.7012V269.807H53.8005H56.6698M56.6698 262.638V269.807M56.6698 262.638H59.9353M56.6698 269.807H59.7378H59.9353M59.9353 269.807V262.638M59.9353 269.807H62.4218L62.4092 262.638H59.9353" stroke="#9D8962" stroke-width="0.7"/>
<path d="M56.6679 208.213H53.6992V215.382H53.7986H56.6679M56.6679 208.213V215.382M56.6679 208.213H59.9334M56.6679 215.382H59.7358H59.9334M59.9334 215.382V208.213M59.9334 215.382H62.4199L62.4072 208.213H59.9334" stroke="#9D8962" stroke-width="0.7"/>
<path d="M56.6679 225.826H53.6992V232.995H53.7986H56.6679M56.6679 225.826V232.995M56.6679 225.826H59.9334M56.6679 232.995H59.7358H59.9334M59.9334 232.995V225.826M59.9334 232.995H62.4199L62.4072 225.826H59.9334" stroke="#9D8962" stroke-width="0.7"/>
<path d="M74.9751 226.025H71.5117V233.447H72.6002H74.9751M74.9751 226.025V233.447M74.9751 226.025H78.5375M74.9751 233.447H78.5375M78.5375 233.447L78.5375 226.025M78.5375 233.447H81.5061V226.025H78.5375" stroke="#9D8962" stroke-width="0.7"/>
<path d="M74.9751 207.816H71.5117V215.238H72.6002H74.9751M74.9751 207.816V215.238M74.9751 207.816H78.5375M74.9751 215.238H78.5375M78.5375 215.238L78.5375 207.816M78.5375 215.238H81.5061V207.816H78.5375" stroke="#9D8962" stroke-width="0.7"/>
<path d="M74.9751 189.608H71.5117V197.03H72.6002H74.9751M74.9751 189.608V197.03M74.9751 189.608H78.5375M74.9751 197.03H78.5375M78.5375 197.03L78.5375 189.608M78.5375 197.03H81.5061V189.608H78.5375" stroke="#9D8962" stroke-width="0.7"/>
<path d="M56.6698 244.232H53.7012V251.401H53.8005H56.6698M56.6698 244.232V251.401M56.6698 244.232H59.9353M56.6698 251.401H59.7378H59.9353M59.9353 251.401V244.232M59.9353 251.401H62.4218L62.4092 244.232H59.9353" stroke="#9D8962" stroke-width="0.7"/>
<path d="M56.6698 280.053H53.7012V287.672H56.6698M56.6698 280.053H59.9353M56.6698 280.053V287.672M59.9353 280.053H62.4092L62.4205 287.672H59.9353M59.9353 280.053V287.672M56.6698 287.672H59.9353" stroke="#9D8962" stroke-width="0.7"/>
<path d="M56.666 298.063H53.7012V305.979H56.666M56.666 298.063H59.9273M56.666 298.063V305.979M59.9273 298.063H62.3979L62.4092 305.979H59.9273M59.9273 298.063V305.979M56.666 305.979H59.9273" stroke="#9D8962" stroke-width="0.7"/>
<path d="M74.9482 298.063H71.5117V305.781H74.9482M74.9482 298.063H78.5304M74.9482 298.063V305.781M78.5304 298.063H81.592L81.6051 305.781H78.5304M78.5304 298.063V305.781M74.9482 305.781H78.5304" stroke="#9D8962" stroke-width="0.7"/>
<path d="M74.9482 279.855H71.5117V287.573H74.9482M74.9482 279.855H78.5304M74.9482 279.855V287.573M78.5304 279.855H81.592L81.6051 287.573H78.5304M78.5304 279.855V287.573M74.9482 287.573H78.5304" stroke="#9D8962" stroke-width="0.7"/>
<path d="M74.9482 261.846H71.5117V269.564H74.9482M74.9482 261.846H78.5304M74.9482 261.846V269.564M78.5304 261.846H81.592L81.6051 269.564H78.5304M78.5304 261.846V269.564M74.9482 269.564H78.5304" stroke="#9D8962" stroke-width="0.7"/>
<path d="M74.9482 243.835H71.5117V251.554H74.9482M74.9482 243.835H78.5304M74.9482 243.835V251.554M78.5304 243.835H81.592L81.6051 251.554H78.5304M78.5304 243.835V251.554M74.9482 251.554H78.5304" stroke="#9D8962" stroke-width="0.7"/>
<path d="M92.4231 279.658H89.5215V287.178H92.4231M92.4231 279.658H96.0306M92.4231 279.658V287.178M96.0306 279.658H98.6135L98.6253 287.178H96.0306M96.0306 279.658V287.178M92.4231 287.178H96.0306" stroke="#9D8962" stroke-width="0.7"/>
<path d="M92.4231 261.45H89.5215V268.971H92.4231M92.4231 261.45H96.0306M92.4231 261.45V268.971M96.0306 261.45H98.6135L98.6253 268.971H96.0306M96.0306 261.45V268.971M92.4231 268.971H96.0306" stroke="#9D8962" stroke-width="0.7"/>
<path d="M92.4231 243.242H89.5215V250.763H92.4231M92.4231 243.242H96.0306M92.4231 243.242V250.763M96.0306 243.242H98.6135L98.6253 250.763H96.0306M96.0306 243.242V250.763M92.4231 250.763H96.0306" stroke="#9D8962" stroke-width="0.7"/>
<path d="M92.4231 225.035H89.5215V232.555H92.4231M92.4231 225.035H96.0306M92.4231 225.035V232.555M96.0306 225.035H98.6135L98.6253 232.555H96.0306M96.0306 225.035V232.555M92.4231 232.555H96.0306" stroke="#9D8962" stroke-width="0.7"/>
<path d="M92.4231 206.628H89.5215V214.149H92.4231M92.4231 206.628H96.0306M92.4231 206.628V214.149M96.0306 206.628H98.6135L98.6253 214.149H96.0306M96.0306 206.628V214.149M92.4231 214.149H96.0306" stroke="#9D8962" stroke-width="0.7"/>
<path d="M92.4231 188.618H89.5215V195.545H92.4231M92.4231 188.618H96.0306M92.4231 188.618V195.545M96.0306 188.618H98.6135L98.6253 195.545H96.0306M96.0306 188.618V195.545M92.4231 195.545H96.0306" stroke="#9D8962" stroke-width="0.7"/>
<path d="M92.4231 170.609H89.5215V177.536H92.4231M92.4231 170.609H96.0306M92.4231 170.609V177.536M96.0306 170.609H98.6135L98.6253 177.536H96.0306M96.0306 170.609V177.536M92.4231 177.536H96.0306" stroke="#9D8962" stroke-width="0.7"/>
<path d="M92.4231 152.401H89.5215V159.328H92.4231M92.4231 152.401H96.0306M92.4231 152.401V159.328M96.0306 152.401H98.6135L98.6253 159.328H96.0306M96.0306 152.401V159.328M92.4231 159.328H96.0306" stroke="#9D8962" stroke-width="0.7"/>
<path d="M92.4231 133.995H89.5215V140.922H92.4231M92.4231 133.995H96.0306M92.4231 133.995V140.922M96.0306 133.995H98.6135L98.6253 140.922H96.0306M96.0306 133.995V140.922M92.4231 140.922H96.0306" stroke="#9D8962" stroke-width="0.7"/>
<path d="M92.4231 297.865H89.5215V305.386H92.4231M92.4231 297.865H96.0306M92.4231 297.865V305.386M96.0306 297.865H98.6135L98.6253 305.386H96.0306M96.0306 297.865V305.386M92.4231 305.386H96.0306" stroke="#9D8962" stroke-width="0.7"/>
<path d="M56.6679 114.799H53.6992V123.705H53.7986H56.6679M56.6679 114.799V123.705M56.6679 114.799H59.9334M56.6679 123.705H59.9334M59.9334 123.705H62.4072V114.799H59.9334M59.9334 123.705V114.799" stroke="#9D8962" stroke-width="0.7"/>
<path d="M316.521 63.6381V68.6848L312.859 67.5963L312.86 62.7475C312.86 61.3622 312.86 59.1852 314.642 59.581C316.67 60.0317 316.521 62.2528 316.521 63.6381Z" stroke="#9D8962" stroke-width="0.7"/>
<path d="M259.324 51.5933V57.1074H252.991V51.5933C252.991 50.3239 253.455 48.1025 256.157 48.1025C258.796 48.1025 259.324 50.5355 259.324 51.5933Z" stroke="#9D8962" stroke-width="0.7"/>
<path d="M239.929 51.9891V57.5032H233.596V51.9891C233.596 50.7197 234.06 48.4984 236.762 48.4984C239.401 48.4984 239.929 50.9313 239.929 51.9891Z" stroke="#9D8962" stroke-width="0.7"/>
<path d="M279.115 125.683H275.157M279.115 125.683V256.996M279.115 125.683L281.787 127.86M279.115 267.98H275.157M279.115 267.98V256.996M279.115 267.98L281.787 270.157M271.199 125.683H267.637V256.996M271.199 125.683V267.98M271.199 125.683H275.157M271.199 267.98H267.637V256.996M271.199 267.98H275.157M275.157 125.683V267.98M267.637 256.996H279.115M279.115 256.996L281.787 259.173M267.637 254.126H279.115L281.787 256.303M267.637 235.424H279.115L281.787 237.601M267.637 238.294H279.115L281.787 240.471M267.637 219.591H279.115L281.787 221.768M267.637 216.722H279.115L281.787 218.899M267.637 203.165H279.115L281.787 205.342M267.637 198.019H279.115L281.787 200.196M267.637 179.317L279.115 179.218L281.787 181.395M267.637 182.186L279.115 182.087L281.787 184.264M267.637 163.484H279.115L281.787 165.661M267.637 160.614H279.115L281.787 162.791M267.637 144.782L279.115 144.683L281.787 146.86M267.637 141.912L279.115 141.813L281.787 143.99M267.637 129.048L279.115 128.949L281.787 131.126M281.787 73.1383V127.86M281.787 73.1383V70.4665L279.115 67.6958M281.787 73.1383L279.115 70.3676M281.787 127.86V305.781H279.115M275.157 67.6958H279.115M275.157 67.6958V70.3676M275.157 67.6958H271.199M279.115 67.6958V70.3676M275.157 118.361H279.115V107.377M275.157 118.361V107.445M275.157 118.361H271.199M275.157 70.3676V84.5863M275.157 70.3676H279.115M275.157 70.3676H271.199M275.157 84.5863V104.575M275.157 84.5863L271.199 84.6546M275.157 84.5863L279.115 84.5181M275.157 104.575V107.445M275.157 104.575L271.199 104.643M275.157 104.575L279.115 104.507M275.157 107.445L271.199 107.513M275.157 107.445L279.115 107.377M271.199 118.361H267.637V107.575M271.199 118.361V107.513M271.199 67.6958H267.637V70.3676M271.199 67.6958V70.3676M271.199 107.513V104.643M271.199 107.513L267.637 107.575M271.199 104.643V84.6546M271.199 104.643L267.637 104.705M271.199 84.6546V70.3676M271.199 84.6546L267.637 84.716M271.199 70.3676H267.637M279.115 70.3676V84.5181M267.637 70.3676V84.716M267.637 84.716V104.705M267.637 104.705V107.575M279.115 84.5181V104.507M279.115 84.5181L281.787 87.2888M279.115 104.507V107.377M279.115 104.507L281.787 107.278M279.115 107.377L281.787 110.147M281.787 90.3564L279.115 87.5857L275.157 87.6539L271.199 87.7222L267.637 87.7836M279.115 275.105V278.469M279.115 275.105L281.787 276.589M279.115 275.105H275.157M279.115 305.781V294.401M279.115 305.781H275.157M267.637 278.469V275.105H271.199M267.637 278.469H279.115M267.637 278.469V291.531M279.115 278.469V291.531M279.115 278.469L281.787 279.954M267.637 291.531H279.115M267.637 291.531V294.401M279.115 291.531V294.401M279.115 291.531L281.787 293.016M267.637 294.401V305.781H271.199M267.637 294.401H279.115M279.115 294.401L281.787 295.885M271.199 275.105V305.781M271.199 275.105H275.157M271.199 305.781H275.157M275.157 275.105V305.781" stroke="#9D8962" stroke-width="0.7"/>
<path d="M254.376 85.7051H252.199V101.142H254.376M254.376 85.7051V101.142M254.376 85.7051H257.543M254.376 101.142H257.543M257.543 85.7051H260.314V101.142H257.543M257.543 85.7051V101.142" stroke="#9D8962" stroke-width="0.7"/>
<path d="M254.376 105.694H252.199V116.777H254.376M254.376 105.694V116.777M254.376 105.694H257.543M254.376 116.777H257.543M257.543 105.694H260.314V116.777H257.543M257.543 105.694V116.777" stroke="#9D8962" stroke-width="0.7"/>
<path d="M254.376 125.089H252.199V138.943H254.376M254.376 125.089V138.943M254.376 125.089H257.543M254.376 138.943H257.543M257.543 125.089H260.314V138.943H257.543M257.543 125.089V138.943" stroke="#9D8962" stroke-width="0.7"/>
<path d="M254.376 143.1H252.199V157.745H254.376M254.376 143.1V157.745M254.376 143.1H257.543M254.376 157.745H257.543M257.543 143.1H260.314V157.745H257.543M257.543 143.1V157.745" stroke="#9D8962" stroke-width="0.7"/>
<path d="M254.376 162.099H252.199V176.546H254.376M254.376 162.099V176.546M254.376 162.099H257.543M254.376 176.546H257.543M257.543 162.099H260.314V176.546H257.543M257.543 162.099V176.546" stroke="#9D8962" stroke-width="0.7"/>
<path d="M254.376 180.701H252.199V192.576H254.376M254.376 180.701V192.576M254.376 180.701H257.543M254.376 192.576H257.543M257.543 180.701H260.314V192.576H257.543M257.543 180.701V192.576" stroke="#9D8962" stroke-width="0.7"/>
<path d="M254.376 200.097H252.199V214.346H254.376M254.376 200.097V214.346M254.376 200.097H257.543M254.376 214.346H257.543M257.543 200.097H260.314V214.346H257.543M257.543 200.097V214.346" stroke="#9D8962" stroke-width="0.7"/>
<path d="M254.376 218.304H252.199V233.345H254.376M254.376 218.304V233.345M254.376 218.304H257.543M254.376 233.345H257.543M257.543 218.304H260.314V233.345H257.543M257.543 218.304V233.345" stroke="#9D8962" stroke-width="0.7"/>
<path d="M254.376 237.106H252.199V252.147H254.376M254.376 237.106V252.147M254.376 237.106H257.543M254.376 252.147H257.543M257.543 237.106H260.314V252.147H257.543M257.543 237.106V252.147" stroke="#9D8962" stroke-width="0.7"/>
<path d="M254.376 255.709H252.199V268.178H254.376M254.376 255.709V268.178M254.376 255.709H257.543M254.376 268.178H257.543M257.543 255.709H260.314V268.178H257.543M257.543 255.709V268.178" stroke="#9D8962" stroke-width="0.7"/>
<path d="M254.376 275.105H252.199V289.751H254.376M254.376 275.105V289.751M254.376 275.105H257.543M254.376 289.751H257.543M257.543 275.105H260.314V289.751H257.543M257.543 275.105V289.751" stroke="#9D8962" stroke-width="0.7"/>
<path d="M254.376 293.115H252.199V305.781H254.376M254.376 293.115V305.781M254.376 293.115H257.543M254.376 305.781H257.543M257.543 293.115H260.314V305.781H257.543M257.543 293.115V305.781" stroke="#9D8962" stroke-width="0.7"/>
<path d="M151.065 297.468H147.898V305.384H151.065M151.065 297.468V305.384M151.065 297.468H154.33M151.065 305.384H154.33M154.33 305.384H157.596V297.468H154.33M154.33 305.384V297.468" stroke="#9D8962" stroke-width="0.7"/>
<path d="M151.065 279.261H147.898V286.979H151.065M151.065 279.261V286.979M151.065 279.261H154.33M151.065 286.979H154.33M154.33 286.979H157.596V279.261H154.33M154.33 286.979V279.261" stroke="#9D8962" stroke-width="0.7"/>
<path d="M151.065 261.053H147.898V268.771H151.065M151.065 261.053V268.771M151.065 261.053H154.33M151.065 268.771H154.33M154.33 268.771H157.596V261.053H154.33M154.33 268.771V261.053" stroke="#9D8962" stroke-width="0.7"/>
<path d="M151.065 242.647H147.898V250.365H151.065M151.065 242.647V250.365M151.065 242.647H154.33M151.065 250.365H154.33M154.33 250.365H157.596V242.647H154.33M154.33 250.365V242.647" stroke="#9D8962" stroke-width="0.7"/>
<path d="M151.065 224.241H147.898V231.96H151.065M151.065 224.241V231.96M151.065 224.241H154.33M151.065 231.96H154.33M154.33 231.96H157.596V224.241H154.33M154.33 231.96V224.241" stroke="#9D8962" stroke-width="0.7"/>
<path d="M151.065 206.035H147.898V213.951H151.065M151.065 206.035V213.951M151.065 206.035H154.33M151.065 213.951H154.33M154.33 213.951H157.596V206.035H154.33M154.33 213.951V206.035" stroke="#9D8962" stroke-width="0.7"/>
<path d="M151.065 187.827H147.898V195.743H151.065M151.065 187.827V195.743M151.065 187.827H154.33M151.065 195.743H154.33M154.33 195.743H157.596V187.827H154.33M154.33 195.743V187.827" stroke="#9D8962" stroke-width="0.7"/>
<path d="M151.065 169.619H147.898V177.535H151.065M151.065 169.619V177.535M151.065 169.619H154.33M151.065 177.535H154.33M154.33 177.535H157.596V169.619H154.33M154.33 177.535V169.619" stroke="#9D8962" stroke-width="0.7"/>
<path d="M151.065 151.213H147.898V159.13H151.065M151.065 151.213V159.13M151.065 151.213H154.33M151.065 159.13H154.33M154.33 159.13H157.596V151.213H154.33M154.33 159.13V151.213" stroke="#9D8962" stroke-width="0.7"/>
<path d="M151.065 133.006H147.898V140.922H151.065M151.065 133.006V140.922M151.065 133.006H154.33M151.065 140.922H154.33M154.33 140.922H157.596V133.006H154.33M154.33 140.922V133.006" stroke="#9D8962" stroke-width="0.7"/>
<path d="M151.065 111.236H147.898V121.725H151.065M151.065 111.236V121.725M151.065 111.236H154.33M151.065 121.725H154.33M154.33 121.725H157.596V111.236H154.33M154.33 121.725V111.236" stroke="#9D8962" stroke-width="0.7"/>
<path d="M151.065 93.0283H147.898V102.924H151.065M151.065 93.0283V102.924M151.065 93.0283H154.33M151.065 102.924H154.33M154.33 102.924H157.596V93.0283H154.33M154.33 102.924V93.0283" stroke="#9D8962" stroke-width="0.7"/>
<path d="M170.327 94.2153H166.902V102.923H170.327M170.327 94.2153V102.923M170.327 94.2153H174.027M170.327 102.923H174.027M174.027 102.923H177.392V94.2153H174.027M174.027 102.923V94.2153" stroke="#9D8962" stroke-width="0.7"/>
<path d="M170.327 112.424H166.902V121.923H170.327M170.327 112.424V121.923M170.327 112.424H174.027M170.327 121.923H174.027M174.027 121.923H177.392V112.424H174.027M174.027 121.923V112.424" stroke="#9D8962" stroke-width="0.7"/>
<path d="M170.327 133.995H166.902V141.12H170.327M170.327 133.995V141.12M170.327 133.995H174.027M170.327 141.12H174.027M174.027 141.12H177.392V133.995H174.027M174.027 141.12V133.995" stroke="#9D8962" stroke-width="0.7"/>
<path d="M170.327 152.203H166.902V159.328H170.327M170.327 152.203V159.328M170.327 152.203H174.027M170.327 159.328H174.027M174.027 159.328H177.392V152.203H174.027M174.027 159.328V152.203" stroke="#9D8962" stroke-width="0.7"/>
<path d="M170.327 170.411H166.902V177.536H170.327M170.327 170.411V177.536M170.327 170.411H174.027M170.327 177.536H174.027M174.027 177.536H177.392V170.411H174.027M174.027 177.536V170.411" stroke="#9D8962" stroke-width="0.7"/>
<path d="M170.327 188.618H166.902V195.743H170.327M170.327 188.618V195.743M170.327 188.618H174.027M170.327 195.743H174.027M174.027 195.743H177.392V188.618H174.027M174.027 195.743V188.618" stroke="#9D8962" stroke-width="0.7"/>
<path d="M170.327 206.826H166.902V213.95H170.327M170.327 206.826V213.95M170.327 206.826H174.027M170.327 213.95H174.027M174.027 213.95H177.392V206.826H174.027M174.027 213.95V206.826" stroke="#9D8962" stroke-width="0.7"/>
<path d="M170.327 225.033H166.902V232.356H170.327M170.327 225.033V232.356M170.327 225.033H174.027M170.327 232.356H174.027M174.027 232.356H177.392V225.033H174.027M174.027 232.356V225.033" stroke="#9D8962" stroke-width="0.7"/>
<path d="M170.327 243.043H166.902V250.762H170.327M170.327 243.043V250.762M170.327 243.043H174.027M170.327 250.762H174.027M174.027 250.762H177.392V243.043H174.027M174.027 250.762V243.043" stroke="#9D8962" stroke-width="0.7"/>
<path d="M170.327 261.449H166.902V268.97H170.327M170.327 261.449V268.97M170.327 261.449H174.027M170.327 268.97H174.027M174.027 268.97H177.392V261.449H174.027M174.027 268.97V261.449" stroke="#9D8962" stroke-width="0.7"/>
<path d="M170.327 279.458H166.902V286.979H170.327M170.327 279.458V286.979M170.327 279.458H174.027M170.327 286.979H174.027M174.027 286.979H177.392V279.458H174.027M174.027 286.979V279.458" stroke="#9D8962" stroke-width="0.7"/>
<path d="M170.327 297.864H166.902V305.385H170.327M170.327 297.864V305.385M170.327 297.864H174.027M170.327 305.385H174.027M174.027 305.385H177.392V297.864H174.027M174.027 305.385V297.864" stroke="#9D8962" stroke-width="0.7"/>
<path d="M188.274 294.108H185.107V306.379H188.274M188.274 294.108V306.379M188.274 294.108H191.694M188.274 306.379H191.694M191.694 306.379H194.805V294.108H191.694M191.694 306.379V294.108" stroke="#9D8962" stroke-width="0.7"/>
<path d="M188.274 276.885H185.107V290.936H188.274M188.274 276.885V290.936M188.274 276.885H191.694M188.274 290.936H191.694M191.694 290.936H194.805V276.885H191.694M191.694 290.936V276.885" stroke="#9D8962" stroke-width="0.7"/>
<path d="M188.274 257.886H185.107V269.959H188.274M188.274 257.886V269.959M188.274 257.886H191.694M188.274 269.959H191.694M191.694 269.959H194.805V257.886H191.694M191.694 269.959V257.886" stroke="#9D8962" stroke-width="0.7"/>
<path d="M188.274 239.481H185.107V254.522H188.274M188.274 239.481V254.522M188.274 239.481H191.694M188.274 254.522H191.694M191.694 254.522H194.805V239.481H191.694M191.694 254.522V239.481" stroke="#9D8962" stroke-width="0.7"/>
<path d="M188.274 221.471H185.107V236.116H188.274M188.274 221.471V236.116M188.274 221.471H191.694M188.274 236.116H191.694M191.694 236.116H194.805V221.471H191.694M191.694 236.116V221.471" stroke="#9D8962" stroke-width="0.7"/>
<path d="M188.274 203.659H185.107V217.711H188.274M188.274 203.659V217.711M188.274 203.659H191.694M188.274 217.711H191.694M191.694 217.711H194.805V203.659H191.694M191.694 217.711V203.659" stroke="#9D8962" stroke-width="0.7"/>
<path d="M188.274 185.055H185.107V196.138H188.274M188.274 185.055V196.138M188.274 185.055H191.694M188.274 196.138H191.694M191.694 196.138H194.805V185.055H191.694M191.694 196.138V185.055" stroke="#9D8962" stroke-width="0.7"/>
<path d="M188.274 166.849H185.107V181.098H188.274M188.274 166.849V181.098M188.274 166.849H191.694M188.274 181.098H191.694M191.694 181.098H194.805V166.849H191.694M191.694 181.098V166.849" stroke="#9D8962" stroke-width="0.7"/>
<path d="M188.274 148.443H185.107V162.692H188.274M188.274 148.443V162.692M188.274 148.443H191.694M188.274 162.692H191.694M191.694 162.692H194.805V148.443H191.694M191.694 162.692V148.443" stroke="#9D8962" stroke-width="0.7"/>
<path d="M188.274 130.829H185.107V144.287H188.274M188.274 130.829V144.287M188.274 130.829H191.694M188.274 144.287H191.694M191.694 144.287H194.805V130.829H191.694M191.694 144.287V130.829" stroke="#9D8962" stroke-width="0.7"/>
<path d="M188.274 112.028H185.107V122.715H188.274M188.274 112.028V122.715M188.274 112.028H191.694M188.274 122.715H191.694M191.694 122.715H194.805V112.028H191.694M191.694 122.715V112.028" stroke="#9D8962" stroke-width="0.7"/>
<path d="M188.274 93.8193H185.107V107.277H188.274M188.274 93.8193V107.277M188.274 93.8193H191.694M188.274 107.277H191.694M191.694 107.277H194.805V93.8193H191.694M191.694 107.277V93.8193" stroke="#9D8962" stroke-width="0.7"/>
<path d="M234.782 86.2983H232.605V96.3917H234.782M234.782 86.2983V96.3917M234.782 86.2983H237.751M234.782 96.3917H237.751M237.751 96.3917H240.126V86.2983H237.751M237.751 96.3917V86.2983" stroke="#9D8962" stroke-width="0.7"/>
<path d="M234.782 106.089H232.605V115.985H234.782M234.782 106.089V115.985M234.782 106.089H237.751M234.782 115.985H237.751M237.751 115.985H240.126V106.089H237.751M237.751 115.985V106.089" stroke="#9D8962" stroke-width="0.7"/>
<path d="M234.782 128.256H232.605V135.579H234.782M234.782 128.256V135.579M234.782 128.256H237.751M234.782 135.579H237.751M237.751 135.579H240.126V128.256H237.751M237.751 135.579V128.256" stroke="#9D8962" stroke-width="0.7"/>
<path d="M234.782 147.058H232.605V154.381H234.782M234.782 147.058V154.381M234.782 147.058H237.751M234.782 154.381H237.751M237.751 154.381H240.126V147.058H237.751M237.751 154.381V147.058" stroke="#9D8962" stroke-width="0.7"/>
<path d="M234.782 165.661H232.605V173.182H234.782M234.782 165.661V173.182M234.782 165.661H237.751M234.782 173.182H237.751M237.751 173.182H240.126V165.661H237.751M237.751 173.182V165.661" stroke="#9D8962" stroke-width="0.7"/>
<path d="M234.782 184.462H232.605V191.983H234.782M234.782 184.462V191.983M234.782 184.462H237.751M234.782 191.983H237.751M237.751 191.983H240.126V184.462H237.751M237.751 191.983V184.462" stroke="#9D8962" stroke-width="0.7"/>
<path d="M234.782 203.263H232.605V210.784H234.782M234.782 203.263V210.784M234.782 203.263H237.751M234.782 210.784H237.751M237.751 210.784H240.126V203.263H237.751M237.751 210.784V203.263" stroke="#9D8962" stroke-width="0.7"/>
<path d="M234.782 221.867H232.605V229.388H234.782M234.782 221.867V229.388M234.782 221.867H237.751M234.782 229.388H237.751M237.751 229.388H240.126V221.867H237.751M237.751 229.388V221.867" stroke="#9D8962" stroke-width="0.7"/>
<path d="M234.782 240.668H232.605V248.189H234.782M234.782 240.668V248.189M234.782 240.668H237.751M234.782 248.189H237.751M237.751 248.189H240.126V240.668H237.751M237.751 248.189V240.668" stroke="#9D8962" stroke-width="0.7"/>
<path d="M234.782 259.272H232.605V266.99H234.782M234.782 259.272V266.99M234.782 259.272H237.751M234.782 266.99H237.751M237.751 266.99H240.126V259.272H237.751M237.751 266.99V259.272" stroke="#9D8962" stroke-width="0.7"/>
<path d="M234.782 278.073H232.605V285.792H234.782M234.782 278.073V285.792M234.782 278.073H237.751M234.782 285.792H237.751M237.751 285.792H240.126V278.073H237.751M237.751 285.792V278.073" stroke="#9D8962" stroke-width="0.7"/>
<path d="M234.782 296.875H232.605V304.593H234.782M234.782 296.875V304.593M234.782 296.875H237.751M234.782 304.593H237.751M237.751 304.593H240.126V296.875H237.751M237.751 304.593V296.875" stroke="#9D8962" stroke-width="0.7"/>
<path d="M289.409 93.2256H291.982V102.923H289.409M289.409 93.2256V102.923M289.409 93.2256H286.243M289.409 102.923H286.243M286.243 102.923H284.264V93.2256H286.243M286.243 102.923V93.2256" stroke="#9D8962" stroke-width="0.7"/>
<path d="M289.409 112.621H291.982V122.121H289.409M289.409 112.621V122.121M289.409 112.621H286.243M289.409 122.121H286.243M286.243 122.121H284.264V112.621H286.243M286.243 122.121V112.621" stroke="#9D8962" stroke-width="0.7"/>
<path d="M289.409 134.192H291.982V141.119H289.409M289.409 134.192V141.119M289.409 134.192H286.243M289.409 141.119H286.243M286.243 141.119H284.264V134.192H286.243M286.243 141.119V134.192" stroke="#9D8962" stroke-width="0.7"/>
<path d="M289.409 152.401H291.982V159.328H289.409M289.409 152.401V159.328M289.409 152.401H286.243M289.409 159.328H286.243M286.243 159.328H284.264V152.401H286.243M286.243 159.328V152.401" stroke="#9D8962" stroke-width="0.7"/>
<path d="M289.409 170.609H291.982V177.536H289.409M289.409 170.609V177.536M289.409 170.609H286.243M289.409 177.536H286.243M286.243 177.536H284.264V170.609H286.243M286.243 177.536V170.609" stroke="#9D8962" stroke-width="0.7"/>
<path d="M289.409 188.816H291.982V195.743H289.409M289.409 188.816V195.743M289.409 188.816H286.243M289.409 195.743H286.243M286.243 195.743H284.264V188.816H286.243M286.243 195.743V188.816" stroke="#9D8962" stroke-width="0.7"/>
<path d="M289.409 206.826H291.982V213.95H289.409M289.409 206.826V213.95M289.409 206.826H286.243M289.409 213.95H286.243M286.243 213.95H284.264V206.826H286.243M286.243 213.95V206.826" stroke="#9D8962" stroke-width="0.7"/>
<path d="M289.409 224.836H291.982V231.763H289.409M289.409 224.836V231.763M289.409 224.836H286.243M289.409 231.763H286.243M286.243 231.763H284.264V224.836H286.243M286.243 231.763V224.836" stroke="#9D8962" stroke-width="0.7"/>
<path d="M289.409 243.043H291.982V249.97H289.409M289.409 243.043V249.97M289.409 243.043H286.243M289.409 249.97H286.243M286.243 249.97H284.264V243.043H286.243M286.243 249.97V243.043" stroke="#9D8962" stroke-width="0.7"/>
<path d="M289.409 261.449H291.982V268.97H289.409M289.409 261.449V268.97M289.409 261.449H286.243M289.409 268.97H286.243M286.243 268.97H284.264V261.449H286.243M286.243 268.97V261.449" stroke="#9D8962" stroke-width="0.7"/>
<path d="M289.409 279.657H291.982V287.177H289.409M289.409 279.657V287.177M289.409 279.657H286.243M289.409 287.177H286.243M286.243 287.177H284.264V279.657H286.243M286.243 287.177V279.657" stroke="#9D8962" stroke-width="0.7"/>
<path d="M289.409 297.666H291.982V305.384H289.409M289.409 297.666V305.384M289.409 297.666H286.243M289.409 305.384H286.243M286.243 305.384H284.264V297.666H286.243M286.243 305.384V297.666" stroke="#9D8962" stroke-width="0.7"/>
<path d="M109.381 130.813H105.947V144.386H109.381M109.381 130.813V144.386M109.381 130.813H113.101M109.381 144.386H113.101M113.101 130.813H116.153V144.386H113.101M113.101 130.813V144.386M131.633 130.433H128.199V144.006H131.633M131.633 130.433V144.006M131.633 130.433H135.352M131.633 144.006H135.352M135.352 130.433H138.404V144.006H135.352M135.352 130.433V144.006" stroke="#9D8962" stroke-width="0.7"/>
<path d="M109.381 148.833H105.947V162.791H109.381M109.381 148.833V162.791M109.381 148.833H113.101M109.381 162.791H113.101M113.101 148.833H116.153V162.791H113.101M113.101 148.833V162.791M131.633 148.443H128.199V162.401H131.633M131.633 148.443V162.401M131.633 148.443H135.352M131.633 162.401H135.352M135.352 148.443H138.404V162.401H135.352M135.352 148.443V162.401" stroke="#9D8962" stroke-width="0.7"/>
<path d="M109.381 167.041H105.947V180.999H109.381M109.381 167.041V180.999M109.381 167.041H113.101M109.381 180.999H113.101M113.101 167.041H116.153V180.999H113.101M113.101 167.041V180.999M131.633 166.65H128.199V180.608H131.633M131.633 166.65V180.608M131.633 166.65H135.352M131.633 180.608H135.352M135.352 166.65H138.404V180.608H135.352M135.352 166.65V180.608" stroke="#9D8962" stroke-width="0.7"/>
<path d="M109.381 204.039H105.947V217.612H109.381M109.381 204.039V217.612M109.381 204.039H113.101M109.381 217.612H113.101M113.101 204.039H116.153V217.612H113.101M113.101 204.039V217.612M131.633 203.659H128.199V217.43H131.633M131.633 203.659V217.43M131.633 203.659H135.352M131.633 217.43H135.352M135.352 203.659H138.404V217.43H135.352M135.352 203.659V217.43" stroke="#9D8962" stroke-width="0.7"/>
<path d="M109.381 221.675H105.947V236.018H109.381M109.381 221.675V236.018M109.381 221.675H113.101M109.381 236.018H113.101M113.101 221.675H116.153V236.018H113.101M113.101 221.675V236.018M131.633 221.273H128.199V235.826H131.633M131.633 221.273V235.826M131.633 221.273H135.352M131.633 235.826H135.352M135.352 221.273H138.404V235.826H135.352M135.352 221.273V235.826" stroke="#9D8962" stroke-width="0.7"/>
<path d="M109.381 239.882H105.947V254.225H109.381M109.381 239.882V254.225M109.381 239.882H113.101M109.381 254.225H113.101M113.101 239.882H116.153V254.225H113.101M113.101 239.882V254.225M131.633 239.481H128.199V254.033H131.633M131.633 239.481V254.033M131.633 239.481H135.352M131.633 254.033H135.352M135.352 239.481H138.404V254.033H135.352M135.352 239.481V254.033" stroke="#9D8962" stroke-width="0.7"/>
<path d="M109.381 258.02H105.947V269.86H109.381M109.381 258.02V269.86M109.381 258.02H113.101M109.381 269.86H113.101M113.101 258.02H116.153V269.86H113.101M113.101 258.02V269.86M131.633 257.688H128.199V269.701H131.633M131.633 257.688V269.701M131.633 257.688H135.352M131.633 269.701H135.352M135.352 257.688H138.404V269.701H135.352M135.352 257.688V269.701" stroke="#9D8962" stroke-width="0.7"/>
<path d="M109.381 277.073H105.947V290.839H109.381M109.381 277.073V290.839M109.381 277.073H113.101M109.381 290.839H113.101M113.101 277.073H116.153V290.839H113.101M113.101 277.073V290.839M131.633 276.688H128.199V290.852H131.633M131.633 276.688V290.852M131.633 276.688H135.352M131.633 290.852H135.352M135.352 276.688H138.404V290.852H135.352M135.352 276.688V290.852" stroke="#9D8962" stroke-width="0.7"/>
<path d="M109.381 294.45H105.947V306.677H109.381M109.381 294.45V306.677M109.381 294.45H113.101M109.381 306.677H113.101M113.101 294.45H116.153V306.677H113.101M113.101 294.45V306.677M131.633 294.108H128.199V306.491H131.633M131.633 294.108V306.491M131.633 294.108H135.352M131.633 306.491H135.352M135.352 294.108H138.404V306.491H135.352M135.352 294.108V306.491" stroke="#9D8962" stroke-width="0.7"/>
<path d="M109.407 122.715H105.746V112.028H109.407M109.407 122.715V112.028M109.407 122.715H113.168M109.407 112.028H113.168M113.168 112.028H116.433V122.715H113.168M113.168 112.028V122.715" stroke="#9D8962" stroke-width="0.7"/>
<path d="M109.668 107.871H106.143V93.6211H109.668M109.668 107.871V93.6211M109.668 107.871H113.289M109.668 93.6211H113.289M113.289 93.6211H116.434V107.871H113.289M113.289 93.6211V107.871" stroke="#9D8962" stroke-width="0.7"/>
<path d="M131.639 107.278H128.113V93.0283H131.639M131.639 107.278V93.0283M131.639 107.278H135.26M131.639 93.0283H135.26M135.26 93.0283H138.405V107.278H135.26M135.26 93.0283V107.278" stroke="#9D8962" stroke-width="0.7"/>
<path d="M109.6 196.337H106.143V185.254H109.6M109.6 196.337V185.254M109.6 196.337H113.152M109.6 185.254H113.152M113.152 185.254H116.236V196.337H113.152M113.152 185.254V196.337" stroke="#9D8962" stroke-width="0.7"/>
<path d="M131.639 122.318H128.113V111.631H131.639M131.639 122.318V111.631M131.639 122.318H135.26M131.639 111.631H135.26M135.26 111.631H138.405V122.318H135.26M135.26 111.631V122.318" stroke="#9D8962" stroke-width="0.7"/>
<path d="M131.571 195.94H128.311V184.857H131.571M131.571 195.94V184.857M131.571 195.94H135.32M131.571 184.857H135.32M135.32 184.857H138.404V195.94H135.32M135.32 184.857V195.94" stroke="#9D8962" stroke-width="0.7"/>
<path d="M215.389 59.5811C216.719 59.5811 217.813 58.8442 217.948 57.8988M215.389 59.5811C214.06 59.5811 212.966 58.8442 212.83 57.8988M215.389 59.5811V57.8988M215.389 55.8208C213.968 55.8208 212.816 56.6626 212.816 57.7009C212.816 57.7678 212.821 57.8338 212.83 57.8988M215.389 55.8208C216.81 55.8208 217.962 56.6626 217.962 57.7009C217.962 57.7678 217.957 57.8338 217.948 57.8988M215.389 55.8208V57.8988M217.948 57.8988H215.389M212.83 57.8988H215.389" stroke="#9D8962" stroke-width="0.7"/>
<path d="M216.773 57.8995C216.773 57.9382 216.77 57.9765 216.765 58.0141C216.692 58.5614 216.103 58.988 215.387 58.988C214.671 58.988 214.082 58.5614 214.01 58.0141C214.005 57.9765 214.002 57.9382 214.002 57.8995C214.002 57.2984 214.622 56.811 215.387 56.811C216.152 56.811 216.773 57.2984 216.773 57.8995Z" stroke="#9D8962" stroke-width="0.7"/>
<path d="M314.884 32.355C315.51 32.9207 316.01 33.4897 316.314 33.9458C316.468 34.1761 316.56 34.3609 316.599 34.4911C316.601 34.4975 316.603 34.5036 316.605 34.5094C316.599 34.5084 316.592 34.5073 316.586 34.506C316.452 34.4799 316.259 34.4073 316.014 34.2782C315.529 34.0227 314.912 33.5834 314.286 33.0177C313.659 32.4521 313.159 31.8831 312.855 31.427C312.702 31.1966 312.61 31.0119 312.57 30.8816C312.568 30.8752 312.566 30.8691 312.565 30.8633C312.571 30.8643 312.577 30.8655 312.583 30.8667C312.717 30.8928 312.91 30.9655 313.155 31.0945C313.64 31.3501 314.257 31.7893 314.884 32.355ZM316.62 34.603C316.62 34.6029 316.62 34.6019 316.62 34.5999C316.62 34.6021 316.62 34.603 316.62 34.603ZM316.696 34.5157C316.698 34.5151 316.699 34.515 316.699 34.515C316.699 34.5151 316.698 34.5154 316.696 34.5157ZM312.549 30.7698C312.549 30.7698 312.549 30.7709 312.549 30.7728C312.549 30.7707 312.549 30.7697 312.549 30.7698ZM312.473 30.857C312.471 30.8576 312.47 30.8577 312.47 30.8577C312.47 30.8576 312.471 30.8573 312.473 30.857Z" stroke="#9D8962" stroke-width="0.7"/>
<path d="M290.441 62.3521C290.441 62.7619 290.217 63.1611 289.8 63.4703C289.383 63.7795 288.789 63.9812 288.119 63.9812C287.449 63.9812 286.856 63.7795 286.438 63.4703C286.021 63.1611 285.797 62.7619 285.797 62.3521C285.797 61.9424 286.021 61.5432 286.438 61.234C286.856 60.9248 287.449 60.723 288.119 60.723C288.789 60.723 289.383 60.9248 289.8 61.234C290.217 61.5432 290.441 61.9424 290.441 62.3521Z" stroke="#9D8962" stroke-width="0.7"/>
</g>
<path d="M3.024 324.6H3.636L3.636 333H2.28L2.28 326.184L0.372 326.964L0.372 325.632L3.024 324.6Z" fill="#9D8962"/>
<path d="M2.712 309.704H6.864V311H0.492L0.492 310.028L2.928 307.892C3.952 307.004 4.6 306.404 4.872 306.092C5.152 305.772 5.292 305.436 5.292 305.084C5.292 304.7 5.148 304.384 4.86 304.136C4.58 303.88 4.192 303.752 3.696 303.752C2.712 303.752 2.124 304.268 1.932 305.3H0.564C0.66 304.428 0.996 303.736 1.572 303.224C2.156 302.712 2.884 302.456 3.756 302.456C4.628 302.456 5.328 302.704 5.856 303.2C6.392 303.688 6.66 304.296 6.66 305.024C6.66 305.272 6.616 305.516 6.528 305.756C6.448 305.988 6.356 306.192 6.252 306.368C6.156 306.536 5.968 306.764 5.688 307.052C5.416 307.332 5.188 307.556 5.004 307.724C4.828 307.884 4.512 308.16 4.056 308.552L2.736 309.692L2.712 309.704Z" fill="#9D8962"/>
<path d="M5.508 284.584C5.94 284.744 6.272 285 6.504 285.352C6.744 285.704 6.864 286.124 6.864 286.612C6.864 287.396 6.58 288.016 6.012 288.472C5.452 288.92 4.712 289.144 3.792 289.144C2.904 289.144 2.156 288.916 1.548 288.46C0.94 288.004 0.588 287.348 0.492 286.492H1.86C2.052 287.404 2.692 287.86 3.78 287.86C4.332 287.86 4.756 287.74 5.052 287.5C5.348 287.252 5.496 286.916 5.496 286.492C5.496 285.692 4.964 285.292 3.9 285.292H2.76V284.092H3.66C4.708 284.092 5.232 283.736 5.232 283.024C5.232 282.64 5.092 282.332 4.812 282.1C4.532 281.86 4.144 281.74 3.648 281.74C2.736 281.74 2.176 282.16 1.968 283H0.6C0.712 282.16 1.048 281.528 1.608 281.104C2.168 280.672 2.86 280.456 3.684 280.456C4.524 280.456 5.22 280.684 5.772 281.14C6.324 281.588 6.6 282.16 6.6 282.856C6.6 283.248 6.504 283.596 6.312 283.9C6.12 284.204 5.852 284.432 5.508 284.584Z" fill="#9D8962"/>
<path d="M7.272 263.796V265.068H6.06L6.06 267H4.704L4.704 265.068L0.372 265.08L0.372 263.796L4.044 258.6H6.06L6.06 263.796H7.272ZM1.848 263.796H4.704V259.86H4.596L1.848 263.796Z" fill="#9D8962"/>
<path d="M4.068 239.408C4.868 239.408 5.54 239.66 6.084 240.164C6.628 240.668 6.9 241.34 6.9 242.18C6.9 243.06 6.604 243.776 6.012 244.328C5.42 244.872 4.672 245.144 3.768 245.144C2.912 245.144 2.172 244.908 1.548 244.436C0.932 243.964 0.58 243.292 0.492 242.42H1.86C1.956 242.884 2.176 243.24 2.52 243.488C2.864 243.736 3.276 243.86 3.756 243.86C4.276 243.86 4.7 243.7 5.028 243.38C5.356 243.06 5.52 242.656 5.52 242.168C5.52 241.672 5.356 241.276 5.028 240.98C4.708 240.684 4.292 240.536 3.78 240.536C3.012 240.536 2.444 240.832 2.076 241.424H0.78L1.812 236.6H6.504L6.504 237.896H2.832L2.4 239.936C2.856 239.584 3.412 239.408 4.068 239.408Z" fill="#9D8962"/>
<path d="M4.08 217.312C4.848 217.312 5.508 217.56 6.06 218.056C6.612 218.544 6.888 219.22 6.888 220.084C6.888 220.988 6.58 221.724 5.964 222.292C5.356 222.86 4.596 223.144 3.684 223.144C2.788 223.144 2.032 222.864 1.416 222.304C0.8 221.744 0.492 221 0.492 220.072C0.492 219.6 0.6 219.108 0.816 218.596C1.04 218.084 1.316 217.592 1.644 217.12C1.972 216.648 2.46 215.98 3.108 215.116C3.284 214.892 3.416 214.72 3.504 214.6H5.1L2.772 217.648C3.196 217.424 3.632 217.312 4.08 217.312ZM3.684 221.848C4.212 221.848 4.648 221.688 4.992 221.368C5.344 221.04 5.52 220.612 5.52 220.084C5.52 219.556 5.348 219.136 5.004 218.824C4.66 218.512 4.224 218.356 3.696 218.356C3.152 218.356 2.708 218.512 2.364 218.824C2.028 219.136 1.86 219.56 1.86 220.096C1.86 220.624 2.032 221.048 2.376 221.368C2.728 221.688 3.164 221.848 3.684 221.848Z" fill="#9D8962"/>
<path d="M0.372 192.6H6.228V193.596L2.58 201H1.044L4.608 193.896H0.372L0.372 192.6Z" fill="#9D8962"/>
<path d="M5.412 174.596C5.86 174.756 6.204 175.02 6.444 175.388C6.692 175.756 6.816 176.184 6.816 176.672C6.816 177.424 6.516 178.024 5.916 178.472C5.324 178.92 4.572 179.144 3.66 179.144C2.74 179.144 1.98 178.92 1.38 178.472C0.788 178.024 0.492 177.424 0.492 176.672C0.492 176.184 0.612 175.756 0.852 175.388C1.1 175.02 1.448 174.756 1.896 174.596C1.536 174.444 1.256 174.208 1.056 173.888C0.856 173.568 0.756 173.208 0.756 172.808C0.756 172.112 1.032 171.548 1.584 171.116C2.136 170.676 2.828 170.456 3.66 170.456C4.484 170.456 5.172 170.676 5.724 171.116C6.276 171.548 6.552 172.112 6.552 172.808C6.552 173.208 6.452 173.568 6.252 173.888C6.052 174.208 5.772 174.444 5.412 174.596ZM3.66 171.74C3.172 171.74 2.792 171.852 2.52 172.076C2.248 172.292 2.112 172.592 2.112 172.976C2.112 173.712 2.628 174.08 3.66 174.08C4.684 174.08 5.196 173.712 5.196 172.976C5.196 172.592 5.06 172.292 4.788 172.076C4.516 171.852 4.14 171.74 3.66 171.74ZM3.66 177.86C4.212 177.86 4.648 177.748 4.968 177.524C5.296 177.292 5.46 176.968 5.46 176.552C5.46 175.688 4.86 175.256 3.66 175.256C2.452 175.256 1.848 175.688 1.848 176.552C1.848 176.968 2.008 177.292 2.328 177.524C2.656 177.748 3.1 177.86 3.66 177.86Z" fill="#9D8962"/>
<path d="M3.696 148.456C4.592 148.456 5.348 148.736 5.964 149.296C6.58 149.856 6.888 150.6 6.888 151.528C6.888 152 6.776 152.492 6.552 153.004C6.336 153.516 6.064 154.008 5.736 154.48C5.408 154.952 4.92 155.62 4.272 156.484C4.096 156.708 3.964 156.88 3.876 157H2.28L4.608 153.952C4.184 154.176 3.748 154.288 3.3 154.288C2.532 154.288 1.872 154.044 1.32 153.556C0.768 153.06 0.492 152.38 0.492 151.516C0.492 150.612 0.796 149.876 1.404 149.308C2.02 148.74 2.784 148.456 3.696 148.456ZM3.684 153.244C4.228 153.244 4.668 153.088 5.004 152.776C5.348 152.464 5.52 152.04 5.52 151.504C5.52 150.976 5.344 150.552 4.992 150.232C4.648 149.912 4.216 149.752 3.696 149.752C3.168 149.752 2.728 149.916 2.376 150.244C2.032 150.564 1.86 150.988 1.86 151.516C1.86 152.044 2.032 152.464 2.376 152.776C2.72 153.088 3.156 153.244 3.684 153.244Z" fill="#9D8962"/>
<path d="M3.024 126.6H3.636L3.636 135H2.28L2.28 128.184L0.372 128.964L0.372 127.632L3.024 126.6ZM8.73319 126.456C9.83719 126.456 10.6972 126.844 11.3132 127.62C11.9292 128.388 12.2372 129.448 12.2372 130.8C12.2372 132.152 11.9292 133.216 11.3132 133.992C10.6972 134.76 9.83719 135.144 8.73319 135.144C7.63719 135.144 6.78119 134.76 6.16519 133.992C5.54919 133.224 5.24119 132.16 5.24119 130.8C5.24119 129.44 5.54919 128.376 6.16519 127.608C6.78119 126.84 7.63719 126.456 8.73319 126.456ZM8.73319 133.848C10.1572 133.848 10.8692 132.832 10.8692 130.8C10.8692 128.768 10.1572 127.752 8.73319 127.752C7.31719 127.752 6.60919 128.768 6.60919 130.8C6.60919 132.832 7.31719 133.848 8.73319 133.848Z" fill="#9D8962"/>
<path d="M3.024 104.6H3.636L3.636 113H2.28L2.28 106.184L0.372 106.964L0.372 105.632L3.024 104.6ZM7.64119 104.6H8.25319L8.25319 113H6.89719L6.89719 106.184L4.98919 106.964L4.98919 105.632L7.64119 104.6Z" fill="#9D8962"/>
<path d="M3.024 82.6H3.636L3.636 91H2.28L2.28 84.184L0.372 84.964L0.372 83.632L3.024 82.6ZM7.32919 89.704H11.4812V91H5.10919V90.028L7.54519 87.892C8.56919 87.004 9.21719 86.404 9.48919 86.092C9.76919 85.772 9.90919 85.436 9.90919 85.084C9.90919 84.7 9.76519 84.384 9.47719 84.136C9.19719 83.88 8.80919 83.752 8.31319 83.752C7.32919 83.752 6.74119 84.268 6.54919 85.3H5.18119C5.27719 84.428 5.61319 83.736 6.18919 83.224C6.77319 82.712 7.50119 82.456 8.37319 82.456C9.24519 82.456 9.94519 82.704 10.4732 83.2C11.0092 83.688 11.2772 84.296 11.2772 85.024C11.2772 85.272 11.2332 85.516 11.1452 85.756C11.0652 85.988 10.9732 86.192 10.8692 86.368C10.7732 86.536 10.5852 86.764 10.3052 87.052C10.0332 87.332 9.80519 87.556 9.62119 87.724C9.44519 87.884 9.12919 88.16 8.67319 88.552L7.35319 89.692L7.32919 89.704Z" fill="#9D8962"/>
<path d="M3.024 60.6H3.636L3.636 69H2.28L2.28 62.184L0.372 62.964L0.372 61.632L3.024 60.6ZM10.1252 64.584C10.5572 64.744 10.8892 65 11.1212 65.352C11.3612 65.704 11.4812 66.124 11.4812 66.612C11.4812 67.396 11.1972 68.016 10.6292 68.472C10.0692 68.92 9.32919 69.144 8.40919 69.144C7.52119 69.144 6.77319 68.916 6.16519 68.46C5.55719 68.004 5.20519 67.348 5.10919 66.492H6.47719C6.66919 67.404 7.30919 67.86 8.39719 67.86C8.94919 67.86 9.37319 67.74 9.66919 67.5C9.96519 67.252 10.1132 66.916 10.1132 66.492C10.1132 65.692 9.58119 65.292 8.51719 65.292H7.37719V64.092H8.27719C9.32519 64.092 9.84919 63.736 9.84919 63.024C9.84919 62.64 9.70919 62.332 9.42919 62.1C9.14919 61.86 8.76119 61.74 8.26519 61.74C7.35319 61.74 6.79319 62.16 6.58519 63H5.21719C5.32919 62.16 5.66519 61.528 6.22519 61.104C6.78519 60.672 7.47719 60.456 8.30119 60.456C9.14119 60.456 9.83719 60.684 10.3892 61.14C10.9412 61.588 11.2172 62.16 11.2172 62.856C11.2172 63.248 11.1212 63.596 10.9292 63.9C10.7372 64.204 10.4692 64.432 10.1252 64.584Z" fill="#9D8962"/>
<path d="M3.024 38.6H3.636L3.636 47H2.28L2.28 40.184L0.372 40.964L0.372 39.632L3.024 38.6ZM11.8892 43.796V45.068H10.6772V47H9.32119V45.068L4.98919 45.08V43.796L8.66119 38.6H10.6772L10.6772 43.796H11.8892ZM6.46519 43.796H9.32119L9.32119 39.86H9.21319L6.46519 43.796Z" fill="#9D8962"/>
<path opacity="0.3" d="M28 196.5L25.5 194L23 196.5L25.5 199L28 196.5Z" fill="#F9F9F9"/>
<path opacity="0.3" d="M28 174.5L25.5 172L23 174.5L25.5 177L28 174.5Z" fill="#F9F9F9"/>
<path opacity="0.3" d="M28 152.5L25.5 150L23 152.5L25.5 155L28 152.5Z" fill="#F9F9F9"/>
<path opacity="0.3" d="M28 130.5L25.5 128L23 130.5L25.5 133L28 130.5Z" fill="#F9F9F9"/>
<path opacity="0.3" d="M28 108.5L25.5 106L23 108.5L25.5 111L28 108.5Z" fill="#F9F9F9"/>
<path opacity="0.3" d="M28 86.5L25.5 84L23 86.5L25.5 89L28 86.5Z" fill="#F9F9F9"/>
<path opacity="0.3" d="M28 64.5L25.5 62L23 64.5L25.5 67L28 64.5Z" fill="#F9F9F9"/>
<path opacity="0.3" d="M28 42.5L25.5 40L23 42.5L25.5 45L28 42.5Z" fill="#F9F9F9"/>
<path opacity="0.3" d="M28 218.5L25.5 216L23 218.5L25.5 221L28 218.5Z" fill="#F9F9F9"/>
<path opacity="0.3" d="M28 240.5L25.5 238L23 240.5L25.5 243L28 240.5Z" fill="#F9F9F9"/>
<path opacity="0.3" d="M28 262.5L25.5 260L23 262.5L25.5 265L28 262.5Z" fill="#F9F9F9"/>
<path opacity="0.3" d="M28 284.5L25.5 282L23 284.5L25.5 287L28 284.5Z" fill="#F9F9F9"/>
<path opacity="0.3" d="M28 328.5L25.5 326L23 328.5L25.5 331L28 328.5Z" fill="#F9F9F9"/>
<path opacity="0.3" d="M28 306.5L25.5 304L23 306.5L25.5 309L28 306.5Z" fill="#F9F9F9"/>
</svg>
