<svg width="656" height="652" viewBox="0 0 656 652" fill="none" xmlns="http://www.w3.org/2000/svg">
<g opacity="0.5">
<path d="M119.156 173.245H103L103.77 175.745C104.219 176.123 104.844 176.73 105.47 177.476C106.541 178.754 107.614 180.441 107.809 182.092M119.156 173.245L118.771 156.127H118.194V154.011L116.655 151.896V150.742H118.194L119.156 148.434M119.156 173.245H175.5M107.808 242.101V190.555L107.231 189.978V187.862L105.885 184.208H107.808L107.809 182.092M107.808 242.101L105.885 244.986L107.039 247.486M107.808 242.101H110.886M107.039 247.486V383.851L105.5 385.582L106.846 388.275L106.462 389.044L107.039 390.391V393.66L106.462 394.045L107.039 395.199L105.5 396.545L107.039 400.007V596.188M107.039 247.486L108.385 246.14H110.886M107.039 608.306L116.463 609.75M107.039 608.306H118.002M107.039 608.306V596.188M644.229 608.306V189.978M644.229 608.306H646.153V650.619H621.341M644.229 608.306H621.341M119.156 148.434V146.895L116.356 140.595M119.156 148.434L187.82 146.51V143.048M116.078 139.009V139.971L116.356 140.595M116.078 139.009L115.309 138.24V137.086H117.232V136.509H118.194V131.701L117.617 130.931V130.162H117.04V129.393H116.463V128.046H119.925L120.502 119.968H120.887L121.271 112.852L122.233 124.007L122.618 124.392V128.046H123.579L125.31 131.701L145.506 131.124V130.162H145.313V129.393H144.736V128.623H144.159V127.277H147.429V126.7L147.814 126.315H148.775L149.16 126.7V127.277H151.276L152.814 130.931L181.087 130.162V129.2H180.895V128.431H180.318V127.662H179.741V126.315H183.011V125.738L183.395 125.354H184.357L184.742 125.738V126.315H186.857L188.204 129.97L206.668 129.585V128.623H206.476V127.854H206.187V127.085H205.754V125.738H208.784V125.161L209.168 124.777H210.13L210.515 125.161V125.738H212.054V120.93H210.9V118.43M116.078 139.009L185.511 137.278M175.5 173.245C174.874 172.499 173.459 170.93 173.009 170.552L172.24 168.052L342.841 164.013V166.513M175.5 173.245C176.571 174.523 176.854 175.248 177.048 176.899V179.4H178.78M342.841 166.513V167.283L412.081 165.552V162.089M342.841 166.513C342.571 166.74 342.238 167.05 341.879 167.422M341.879 167.422C341.64 167.67 341.39 167.946 341.141 168.244C340.069 169.522 338.996 171.209 338.802 172.86V174.976V175.745L337.648 175.773M341.879 167.422V170.168L412.081 168.629V175.168M412.081 232.484V177.669M107.809 182.092H178.78M412.082 186.131C412.082 346.043 412.082 435.7 412.082 595.611M458.819 186.131C458.819 346.043 458.819 435.7 458.819 595.611M569.796 159.397V171.899M569.796 159.397H571.142V151.511H571.911V148.818M569.796 159.397H565.18V148.434H570.375M586.914 599.458V161.32H603.07M603.07 161.32V599.458M603.07 161.32L606.147 168.244M606.147 168.244V599.458M606.147 168.244L608.84 166.599M609.609 166.129V164.782M609.609 166.129L608.84 166.599M609.609 166.129V191.324M609.609 599.458V575.416M621.341 149.588L612.686 153.281L614.225 157.281M621.341 149.588V186.131M621.341 149.588L627.977 150.549M621.341 599.458V574.647M634.613 151.511L637.882 161.897M634.613 151.511V187.478M634.613 151.511L627.977 150.549M634.613 599.458V574.647M637.882 161.897V196.517M637.882 161.897H641.152M637.882 599.458V196.517M641.152 161.897L644.229 172.668V189.978M641.152 161.897V576.186M641.152 599.458V576.186M110.886 182.092V242.101M110.886 595.611V246.14M569.796 175.553H586.144V171.322M569.796 175.553L572.296 171.322M569.796 175.553V171.899M337.263 613.114V648.696H400.157V613.114H371.884M337.263 613.114V608.306M337.263 613.114H371.884M310.571 611.768H301.105V648.696H310.571M310.571 611.768H320.488M310.571 611.768V648.696M320.488 611.768H329.955V648.696H320.488M320.488 611.768V648.696M310.571 648.696H320.488M210.9 118.43C210.387 116.57 209.169 112.544 208.399 111.313V110.736M210.9 118.43L306.682 116.122M208.399 110.736H208.015V108.813M208.399 110.736L308.798 108.236M208.015 108.813H207.438V107.274H209.169V104.389H208.784V101.889M208.015 108.813L308.798 106.505M208.784 101.889H208.399V100.927H208.207V99.9655H207.822V98.8114H210.9L212.054 83.8094L213.592 98.8114H214.939L215.516 102.85L252.829 102.081M208.784 101.889H214.169M252.829 102.081V97.4651L252.252 94.9648V94.0031M252.829 102.081V104.581H246.866V106.889M258.214 72.077L257.829 72.654L257.252 90.9257L255.714 92.2721H252.252V94.0031M258.214 72.077L258.791 40.5341L259.753 72.077M258.214 72.077H259.753M259.753 72.077L260.137 72.654L260.714 90.9257L261.514 92.2721H264.591M264.591 92.2721L265.715 99.3885V101.504M264.591 92.2721V93.2337L263.984 94.0031M265.715 101.504L302.836 100.735V99.0038H302.451V96.5034H304.759V95.5418L304.951 95.3494L306.105 79.1933L307.259 95.3494L307.452 95.5418V96.5034H309.567L309.952 102.658L308.606 103.235M265.715 101.504H265.138L263.984 94.0031M308.606 103.235V104.774H309.567L309.952 120.738L307.836 122.469L308.221 122.661C308.349 122.469 308.644 122.084 308.798 122.084C308.99 122.084 309.567 121.892 309.952 122.661H312.452V126.7L332.647 126.508M308.606 103.235V99.3885H303.605V105.158M332.647 126.508V124.969H332.07V121.892H334.378C334.507 121.699 334.878 121.315 335.34 121.315C335.802 121.315 336.174 121.699 336.302 121.892H339.187V125.931L371.499 125.354V123.238H370.922V121.315H373.23C373.294 121.058 373.576 120.545 374.192 120.545C374.807 120.545 375.089 121.058 375.153 121.315H377.846V125.354L404.196 125.161V123.43H403.619V122.276H403.33V121.122H405.35M332.647 126.508V128.239M405.35 121.122L405.157 121.699H407.85L407.658 121.122M405.35 121.122L405.377 120.738M407.658 121.122H409.773M407.658 121.122L407.63 120.738M409.773 121.122L414.774 84.5787M409.773 121.122V122.276H409.389V123.43H408.812V129.072M414.774 84.5787V83.2324M414.774 84.5787V85.1557H415.351M414.774 83.2324H414.197V81.5013H414.774V80.3473H415.351V74.5773H414.967V73.6156H414.39V71.8846H416.698L417.852 56.6902L419.006 71.8846H421.698V73.6156V75.7313L452.472 74.962V73.6156H452.087V72.8463H451.51V70.9229H454.01C454.075 70.6665 454.357 70.1536 454.972 70.1536C455.588 70.1536 455.87 70.6665 455.934 70.9229H458.819L460.357 65.7299V63.6142H462.858C462.922 63.486 463.127 63.2296 463.435 63.2296C463.743 63.2296 463.948 63.486 464.012 63.6142H467.666V65.3452H467.089V67.8456L490.746 67.2686L492.093 62.8449H493.439L494.785 47.0735L496.132 62.8449H499.209V64.3836L498.44 67.0762L524.02 66.3069V64.9606H523.636V63.8066H523.059V62.0756H525.944C526.008 61.9473 526.251 61.6909 526.713 61.6909C527.174 61.6909 527.418 61.9473 527.482 62.0756H531.137V63.8066L529.598 68.2303H529.983C529.983 68.0379 530.098 67.6533 530.56 67.6533C531.021 67.6533 531.137 68.0379 531.137 68.2303H534.791V70.1536H534.214L533.829 72.077L549.408 71.8846L554.794 67.4609L555.948 51.8818L556.909 65.3452L557.679 66.1146M414.774 83.2324L459.203 82.0783M557.679 66.1146L559.794 63.8066C561.718 58.87 567.488 48.4967 575.181 46.4965V40.1494L575.951 39.5724V1.87486L577.682 1.29785V38.6107L578.643 39.5724V44.9578C582.041 44.1884 590.145 44.9963 593.838 52.0742M557.679 66.1146C570.604 54.7284 587.298 52.2024 593.838 52.0742M593.838 52.0742C601.017 51.5148 611.947 53.0795 622.181 58.8059M647.114 93.6184L648.076 94.7724M647.114 93.6184C643.15 75.6812 633.059 64.8926 622.181 58.8059M647.114 93.6184C640.895 84.771 617.379 70.846 573.065 85.925M648.076 94.7724V93.2337L650.961 91.3104M648.076 94.7724C648.592 95.5979 649.281 96.6138 649.853 97.6574M650.961 91.3104L652.115 69.7689L654.038 93.6184V94.0031M650.961 91.3104L651.923 91.6951M654.038 95.9264L654.615 96.5034V98.2344H654.038M654.038 95.9264V94.0031M654.038 95.9264L653.124 95.7299M654.038 98.2344V99.5808L655 101.889L654.423 110.544M654.038 98.2344L653.177 97.6574M654.423 110.544C654.359 112.724 654 117.045 653.077 116.891M654.423 110.544C654.102 110.672 653.461 110.621 653.461 109.39C653.461 108.432 653.306 102.443 653.177 97.6574M653.077 116.891C653.183 118.54 653.166 121.585 652.453 122.661M653.077 116.891C652.692 117.083 651.923 116.968 651.923 114.968C651.923 112.967 651.923 98.6191 651.923 91.6951M651.923 123.046C652.179 126.892 652.23 135.047 650.384 136.894M651.923 123.046L649.615 124.007C648.268 119.968 649.23 117.853 649.999 115.929C650.615 114.391 650.897 111.185 650.961 109.775M651.923 123.046C652.132 123.019 652.307 122.882 652.453 122.661M650.384 136.894C650.64 138.432 651.076 142.587 650.769 146.895M650.384 136.894L649.615 132.855C649.576 132.531 649.533 132.21 649.488 131.893M650.769 146.895C654.551 151.703 658.538 167.052 644.229 189.978M650.769 146.895C649.858 145.256 648.27 143.211 645.96 141.098M644.229 189.978C664.385 148.895 626.983 139.907 605.762 140.548M604.993 138.817L607.109 129.2C626.738 128.401 639.327 135.03 645.96 141.098M604.993 138.817L605.762 140.548M604.993 138.817L596.146 108.236L586.914 104.197M605.762 140.548L607.686 147.28M614.225 157.281L612.686 159.974C611.34 160.743 609.609 162.474 609.609 164.782M614.225 157.281L610.378 147.28M609.609 164.782L606.916 158.435V157.089M610.378 147.28H607.686M610.378 147.28L609.224 151.319C608.519 151.768 607.301 154.396 606.916 157.089M607.686 147.28L591.893 147.664M589.991 147.664C590.183 143.946 588.688 136.002 581.144 136.124C575.317 136.219 572.854 140.38 572.143 145.354M589.991 147.664H591.893M589.991 147.664L589.414 151.511C588.337 153.511 588.196 156.063 588.26 157.089M571.911 148.818H570.373C570.373 148.689 570.374 148.561 570.375 148.434M571.911 148.818C571.911 147.647 571.983 146.48 572.143 145.354M591.893 147.664C591.566 139.36 587.758 134.586 581.144 134.586C574.562 134.586 570.761 139.277 570.401 147.504C570.388 147.809 570.379 148.119 570.375 148.434M572.143 145.354C573.406 144.315 575.187 143.625 577.682 143.625C584.734 143.625 586.144 149.956 586.144 152.708V167.667M586.144 167.667H572.296M586.144 167.667V171.322M572.296 167.667L569.796 171.899M572.296 167.667V171.322M572.296 171.322H586.144M586.914 104.197L561.333 104.774L564.795 115.545M586.914 104.197C605.96 99.9432 644.847 99.6251 649.488 131.893M564.795 115.545H567.103M564.795 115.545L560.948 115.601M567.103 115.545L574.219 125.161L573.065 128.239M567.103 115.545L565.949 119.584M573.065 128.239C572.36 128.687 570.719 130.239 569.796 132.855M573.065 128.239L565.949 119.584M569.796 132.855V135.163L563.641 127.469L543.254 127.854M569.796 132.855L563.641 125.354M563.641 125.354C564.026 122.661 565.244 120.032 565.949 119.584M563.641 125.354L542.484 125.931M543.254 127.854L542.484 125.931M543.254 127.854L544.215 130.484L522.466 131.124M542.484 125.931C542.228 124.841 541.611 122.092 540.369 120.353C539.407 119.007 539.022 119.007 539.022 119.007L538.566 115.929M538.566 115.929L538.253 113.814L542.484 113.743M538.566 115.929L560.948 115.601M560.948 115.601L561.333 113.429L554.986 113.535M554.986 113.535V100.542C554.986 97.8498 552.493 95.7341 548.639 95.7341C544.331 95.7341 542.484 97.8498 542.484 100.542V113.743M554.986 113.535L542.484 113.743M622.181 58.8059L620.572 60.3445V62.8449M622.181 58.8059L622.88 60.3445M622.181 58.8059C622.111 58.4212 622.88 57.0749 625.765 58.4212C631.066 60.8949 633.651 65.1529 634.228 66.1146C634.689 66.8839 634.805 68.2303 634.805 68.8422M620.572 62.8449L629.804 70.5383M620.572 62.8449L622.88 60.3445M634.805 68.8422L633.074 70.5383H629.804M634.805 68.8422L631.535 68.4226M629.804 70.5383L631.535 68.4226M631.535 68.4226L622.88 60.3445M573.065 85.925V84.3864M573.065 85.925V90.3487H574.219M573.065 84.3864H573.835V83.4247H574.219V82.6553H574.604V81.6937H567.872L566.141 85.925M573.065 84.3864H568.449M574.219 90.3487V90.9257L587.683 90.3487C603.903 86.3097 639.267 84.5402 650.961 109.775M574.219 90.3487C619.803 77.0776 640.19 90.3487 648.845 104.197L649.422 103.043L649.23 102.081L649.999 101.119V100.542L650.576 99.1961C650.386 98.6893 650.134 98.17 649.853 97.6574M650.961 109.775L650.769 97.6574H649.853M650.961 109.775C650.653 117.16 651.828 121.443 652.453 122.661M651.923 91.6951L653.077 94.0031M653.077 94.0031H654.038M653.077 94.0031C653.091 94.5226 653.107 95.1045 653.124 95.7299M653.124 95.7299C653.141 96.3371 653.159 96.9854 653.177 97.6574M649.488 131.893C648.889 131.124 646.393 130.836 645.96 132.855C645.383 135.547 645.768 138.799 645.96 141.098M606.916 157.089H588.26M588.26 157.089V159.204H606.147L608.84 166.599M609.609 191.324L621.341 186.131M609.609 191.324V265.565M621.341 186.131L634.613 187.478M621.341 186.131V261.142M634.613 187.478L637.882 196.517M634.613 187.478V574.647M609.609 196.71L621.341 191.517L634.613 192.863L637.882 201.903M609.609 227.868L621.341 222.675L634.613 224.021L637.882 233.061M609.609 233.253L621.341 228.06L634.613 229.407L637.882 238.446M609.609 254.41L621.341 249.217L627.977 249.697M609.609 273.259L621.341 268.066L634.613 269.412L637.882 278.452M609.609 296.339L621.341 292.3L634.613 293.262L637.882 301.917M609.609 301.724L621.341 297.685L634.613 298.647L637.882 307.302M609.609 330.959L621.341 326.92L634.613 327.882L637.882 336.537M609.609 336.152L621.341 332.113L634.613 333.075L637.882 341.73M609.609 365.002L621.341 361.54L634.613 362.502L637.882 370.003M609.609 370.388L621.341 366.926L634.613 367.887L637.882 375.388M609.609 434.435L621.341 430.973L627.977 431.454M637.882 439.436L634.613 431.935L627.977 431.454M609.609 440.398L621.341 436.935L634.613 437.897L637.882 445.398M621.341 261.142L609.609 265.565M621.341 261.142L629.035 261.815M621.341 261.142V574.647M609.609 265.565V575.416M627.977 150.549V249.697M627.977 249.697L637.305 250.371L640.19 259.026L642.883 258.257L647.499 269.412C647.05 269.604 646.153 270.412 646.153 272.105H645.768C645.64 273.323 645.768 276.644 647.307 280.183L645.191 281.145C644.229 278.901 642.19 273.605 641.729 270.374L639.998 270.758L639.421 268.643H639.036L636.728 262.488L629.035 261.815M629.035 261.815L627.977 431.454M627.977 431.454V599.458M609.609 575.416L621.341 574.647M621.341 574.647H634.613M634.613 574.647L641.152 576.186M609.609 570.416L621.341 569.646H634.613L641.152 571.185M609.609 545.989L621.341 545.22H634.613L641.152 546.758M609.609 540.604L621.341 539.834H634.613L641.152 541.373M495.939 611.768V648.696M495.939 611.768H486.9M495.939 611.768H505.364M495.939 648.696H486.9M495.939 648.696H505.364M469.439 611.768V648.696H477.475M469.439 611.768H477.475M469.439 611.768V608.306M477.475 611.768H486.9M477.475 611.768V648.696M486.9 611.768V648.696M477.475 648.696H486.9M505.364 611.768V648.696M505.364 611.768H514.596M505.364 648.696H514.596M514.596 611.768V648.696M514.596 611.768H523.443M514.596 648.696H523.443V611.768M523.443 611.768V608.306M558.64 611.768V648.696M558.64 611.768H552.101M558.64 611.768H570.18M558.64 648.696H552.101M558.64 648.696H570.18M537.718 611.768V648.696H543.254M537.718 611.768H543.254M537.718 611.768V608.306M543.254 611.768H552.101M543.254 611.768V648.696M552.101 611.768V648.696M543.254 648.696H552.101M570.18 611.768V648.696M570.18 611.768H579.413M570.18 648.696H579.413M579.413 611.768V648.696M579.413 611.768H588.068M579.413 648.696H588.068V611.768M588.068 611.768V608.306M424.199 611.768V648.696M424.199 611.768H414.39V648.696H424.199M424.199 611.768H445.355V648.696H424.199M434.969 611.768V648.696M287.064 611.768V648.696H277.598M287.064 611.768H277.598M287.064 611.768V608.306M255.714 648.696V611.768M255.714 648.696H266.484M255.714 648.696H245.135M255.714 611.768H266.484M255.714 611.768H245.135M266.484 611.768H277.598M266.484 611.768V648.696M277.598 611.768V648.696M266.484 648.696H277.598M245.135 648.696V611.768M245.135 648.696H234.172M245.135 611.768H234.172M234.172 648.696V611.768M234.172 648.696H224.555V611.768M234.172 611.768H224.555M224.555 611.768V608.306M116.463 608.306V609.75M129.734 608.306H139.928M129.734 608.306V611.783M129.734 608.306H118.002M143.198 645.618V650.619M143.198 645.618H142.044M143.198 645.618H145.121M143.198 650.619H139.159V645.618H139.928M143.198 650.619H165.316M165.316 645.618V650.619M165.316 645.618H145.121M165.316 645.618V640.618M165.316 650.619H184.934M167.624 640.618L184.934 641.002M167.624 640.618V639.271M167.624 640.618H145.121M167.624 640.618V650.619M184.934 641.002V639.656L167.624 639.271M184.934 641.002V650.619M167.624 639.271H164.355M142.044 640.618H141.467V639.271H144.737M142.044 640.618V645.618M142.044 640.618H145.121M142.044 645.618H139.928M145.121 640.618V645.618M148.006 640.618V645.618M151.084 640.618V645.618M153.969 640.618V645.618M156.854 640.618V645.618M159.546 640.618V645.618M162.431 640.618V645.618M169.548 640.618V650.619M171.471 640.703V650.619M173.394 640.746V650.619M175.318 640.789V650.619M177.241 640.831V650.619M178.972 640.87V650.619M180.703 640.908V650.619M182.242 640.943V650.619M183.78 640.977V650.619M184.934 650.619H206.284M139.928 608.306H144.737M139.928 608.306V613.345M139.928 645.618V613.345M144.737 608.306V639.271M144.737 608.306H145.891M144.737 639.271H145.891M145.891 639.271H154.738M145.891 639.271V614.259M145.891 608.306H154.738M145.891 608.306V614.259M154.738 608.306H158.008M154.738 608.306V615.614M154.738 639.271H158.008M154.738 639.271V615.614M158.008 639.271V608.306M158.008 639.271H164.355M158.008 608.306H164.355M164.355 608.306V616.384M164.355 608.306H178.01M164.355 639.271V616.384M154.738 615.614L145.891 614.259M164.355 616.384H178.01M178.01 616.384V639.502M178.01 616.384V608.306M116.463 609.75V650.619H129.734V611.783M129.734 611.783L139.928 613.345M180.318 608.306V639.502M164.355 614.268H178.01M178.01 608.306H206.284M154.738 612.922L145.891 611.566M129.734 608.883L139.928 610.444M206.284 608.306V650.619M206.284 608.306H224.555M206.284 650.619H297.45M523.443 608.306H537.718M523.443 608.306H469.439M537.718 608.306H588.068M469.439 608.306H458.819M458.819 608.306V650.619M458.819 608.306H454.203M458.819 650.619H454.203M458.819 650.619H621.341M454.203 608.306V650.619M454.203 608.306H337.263M454.203 650.619H297.45M337.263 608.306H297.45M297.45 608.306V650.619M297.45 608.306H287.064M287.064 608.306H224.555M343.995 613.114V648.696M351.304 613.114V648.696M358.613 613.114V629.078M358.613 648.696V629.078M364.96 613.114V629.078M378.808 613.114V629.078M378.808 648.696V629.078M385.924 613.114V648.696M393.233 613.114V648.696M378.808 629.078H371.884M358.613 629.078H364.96M364.96 629.078H371.884M371.884 629.078V613.114M178.78 182.092V180.746M178.78 182.092H118.002V242.101M118.002 608.306V246.14M107.039 596.188H178.78M458.819 595.227H409.966V596.188H178.78M116.356 140.595L186.473 139.009M187.435 142.664C187.499 141.574 187.166 138.779 185.319 136.317V135.355M185.319 135.355L184.357 132.855L332.647 129.97V131.893M185.319 135.355L332.647 131.893M332.647 131.893V133.432M332.647 131.893C332.059 132.708 330.544 135.187 330.268 139.394M463.05 88.8101H462.318V85.7327M463.05 88.8101L461.586 94.7724M463.05 88.8101L527.482 86.6944V91.3104L558.64 89.7717L560.436 85.925M449.779 140.356L461.586 94.7724M449.779 140.356L451.971 131.893H466.897H470.22M449.779 140.356H444.293M461.586 94.7724L417.852 95.9264M461.586 94.7724L460.999 91.8874L416.698 93.0414M461.586 94.7724L459.396 84.0017M417.852 95.9264H416.698V93.0414M417.852 95.9264L408.812 129.072M405.734 140.356H423.814H428.142M405.734 140.356H403.262V141.221M405.734 140.356L407.361 134.393M405.927 160.551L404.196 158.243H403.234L402.465 157.666L402.272 156.704L401.888 156.512L403.115 143.625M405.927 160.551L406.311 162.089H412.081M405.927 160.551L407.081 151.896M412.081 162.089V154.588H416.121M407.081 151.896H426.891M407.081 151.896V149.78M426.891 151.896V164.398H445.74V146C445.74 142.949 444.169 135.932 436.316 135.932C431.81 135.932 429.395 137.943 428.142 140.356M426.891 151.896V149.78M426.891 149.78V146C426.891 144.39 427.159 142.249 428.142 140.356M426.891 149.78H407.081M407.081 149.78C406.953 148.883 406.311 146.626 404.773 144.779H404.388V143.625H403.811V142.087H403.262M403.262 142.087L403.115 143.625M403.262 142.087V141.221M416.698 93.0414C416.633 91.631 416.274 88.31 415.351 86.3097V85.1557M415.351 85.1557L459.396 84.0017M459.396 84.0017L459.203 82.0783M459.203 82.0783V80.3473L460.357 74.962M460.357 74.962L530.752 73.808L529.983 76.8853M460.357 74.962L460.934 79.001L462.318 85.7327M252.252 94.0031H263.984M264.591 102.85V104.004H269.177V106.312M332.647 133.432L408.147 131.508M332.647 133.432V136.317M408.147 131.508L408.812 129.072M408.147 131.508L407.361 134.393M405.377 120.738L406.504 104.966L407.63 120.738M405.377 120.738H407.63M118.002 242.101H119.348L121.849 243.832M118.002 242.101H110.886M118.002 246.14H119.348L120.599 247.005M118.002 246.14H110.886M178.78 180.746V179.4M178.78 180.746V239.408M178.78 179.4L211.669 178.823L337.648 175.773M178.78 252.871V381.736V395.199V524.255V537.142V596.188M605.955 650.619V608.306M588.068 608.306H621.341M621.341 608.306V650.619M337.648 175.773V176.899M412.081 177.669L337.648 179.207V176.899M412.081 177.669V175.168M337.648 176.899L412.081 175.168M330.724 145.549L403.115 143.625M330.724 145.549C330.253 143.195 330.153 141.145 330.268 139.394M330.724 145.549C330.774 144.797 330.856 143.853 330.968 142.856M332.647 136.317C331.851 136.772 331.286 140.025 330.968 142.856M332.647 136.317L407.361 134.393M187.435 143.048H187.82M187.82 143.048H189.743L330.268 139.394M330.968 142.856L403.262 141.221M462.318 85.7327L527.482 84.0017L529.983 76.8853M529.983 76.8853L558.64 76.116L562.102 80.3473L561.333 84.0017L560.436 85.925M560.436 85.925H566.141M567.872 85.1557V85.925H566.141M567.872 87.2714V90.3487H567.488V90.9257M470.22 131.893C468.79 133.812 468.436 136.283 468.436 138.048V159.781H485.361V138.048C485.361 136.53 484.932 133.925 483.366 131.893M470.22 131.893C471.468 130.219 473.534 128.965 476.898 128.965C480.062 128.965 482.091 130.239 483.366 131.893M483.366 131.893L508.832 131.124M508.832 131.124C507.601 132.988 507.287 135.276 507.287 136.937V159.781H515.75H524.213V136.937C524.213 135.503 523.83 133.099 522.466 131.124M508.832 131.124C510.049 129.282 512.161 127.854 515.75 127.854C519.129 127.854 521.212 129.307 522.466 131.124M123.58 172.091V156.127C123.58 153.819 124.426 149.78 129.35 149.78C134.158 149.78 135.12 154.204 135.12 156.127V172.091H129.35H123.58ZM159.739 171.322V155.358C159.739 153.05 160.585 149.011 165.509 149.011C170.317 149.011 171.279 153.434 171.279 155.358V171.322H165.509H159.739ZM194.167 167.26V151.296C194.167 148.988 195.013 144.949 199.937 144.949C204.745 144.949 205.707 149.372 205.707 151.296V167.26H199.937H194.167ZM227.248 166.613V150.649C227.248 148.341 228.094 144.302 233.018 144.302C237.826 144.302 238.788 148.726 238.788 150.649V166.613H233.018H227.248ZM270.716 165.447V149.483C270.716 147.175 271.562 143.136 276.486 143.136C281.294 143.136 282.256 147.56 282.256 149.483V165.447H276.486H270.716ZM308.413 164.555V148.591C308.413 146.283 309.26 142.244 314.183 142.244C318.992 142.244 319.953 146.668 319.953 148.591V164.555H314.183H308.413ZM346.303 166.898V150.934C346.303 148.626 347.149 144.587 352.073 144.587C356.882 144.587 357.843 149.011 357.843 150.934V166.898H352.073H346.303ZM381.116 166.326V150.362C381.116 148.054 381.962 144.015 386.886 144.015C391.694 144.015 392.656 148.439 392.656 150.362V166.326H386.886H381.116Z" stroke="#9D8962"/>
<path d="M439.394 202.865H445.357L445.168 173.245H439.394M439.394 202.865V173.245M439.394 202.865H432.47M439.394 173.245H432.47M432.47 173.245H426.893V202.865H432.47M432.47 173.245V202.865" stroke="#9D8962"/>
<path d="M439.394 232.484H445.357L445.168 210.942H439.394M439.394 232.484V210.942M439.394 232.484H432.47M439.394 210.942H432.47M432.47 210.942H426.893V232.484H432.47M432.47 210.942V232.484" stroke="#9D8962"/>
<path d="M439.394 274.798H445.357L445.168 248.255H439.394M439.394 274.798V248.255M439.394 274.798H432.47M439.394 248.255H432.47M432.47 248.255H426.893V274.798H432.47M432.47 248.255V274.798" stroke="#9D8962"/>
<path d="M439.394 310.956H445.357L445.168 283.26H439.394M439.394 310.956V283.26M439.394 310.956H432.47M439.394 283.26H432.47M432.47 283.26H426.893V310.956H432.47M432.47 283.26V310.956" stroke="#9D8962"/>
<path d="M439.394 347.116H445.357L445.168 319.035H439.394M439.394 347.116V319.035M439.394 347.116H432.47M439.394 319.035H432.47M432.47 319.035H426.893V347.116H432.47M432.47 319.035V347.116" stroke="#9D8962"/>
<path d="M439.394 377.504H445.357L445.168 354.809H439.394M439.394 377.504V354.809M439.394 377.504H432.47M439.394 354.809H432.47M432.47 354.809H426.893V377.504H432.47M432.47 354.809V377.504" stroke="#9D8962"/>
<path d="M439.394 419.433H445.357L445.168 392.121H439.394M439.394 419.433V392.121M439.394 419.433H432.47M439.394 392.121H432.47M432.47 392.121H426.893V419.433H432.47M432.47 392.121V419.433" stroke="#9D8962"/>
<path d="M439.394 455.592H445.357L445.168 427.126H439.394M439.394 455.592V427.126M439.394 455.592H432.47M439.394 427.126H432.47M432.47 427.126H426.893V455.592H432.47M432.47 427.126V455.592" stroke="#9D8962"/>
<path d="M439.394 491.366H445.357L445.168 462.516H439.394M439.394 491.366V462.516M439.394 491.366H432.47M439.394 462.516H432.47M432.47 462.516H426.893V491.366H432.47M432.47 462.516V491.366" stroke="#9D8962"/>
<path d="M439.394 522.524H445.357L445.168 498.29H439.394M439.394 522.524V498.29M439.394 522.524H432.47M439.394 498.29H432.47M432.47 498.29H426.893V522.524H432.47M432.47 498.29V522.524" stroke="#9D8962"/>
<path d="M439.394 563.684H445.357L445.168 535.988H439.394M439.394 563.684V535.988M439.394 563.684H432.47M439.394 535.988H432.47M432.47 535.988H426.893V563.684H432.47M432.47 535.988V563.684" stroke="#9D8962"/>
<path d="M439.394 594.843H445.357L445.168 570.608H439.394M439.394 594.843V570.608M439.394 594.843H432.47M439.394 570.608H432.47M432.47 570.608H426.893V594.843H432.47M432.47 570.608V594.843" stroke="#9D8962"/>
<path d="M609.609 254.41L621.342 249.217L627.977 249.696L637.306 250.371L640.191 259.026L642.883 258.257L647.499 269.412C647.05 269.604 646.153 270.412 646.153 272.105H645.768C645.669 273.05 645.724 275.264 646.473 277.862C647.028 279.376 647.374 280.344 647.307 280.183L645.384 281.144L641.345 270.374L639.998 270.758L639.037 268.643L636.729 262.488L629.035 261.815L621.342 261.142L609.609 265.565V254.41Z" fill="#1C1E1E"/>
<path d="M647.307 280.183C645.768 276.644 645.64 273.323 645.768 272.105H646.153C646.153 270.412 647.05 269.604 647.499 269.412L642.883 258.257L640.191 259.026L637.306 250.371L627.977 249.696L621.342 249.217L609.609 254.41V265.565L621.342 261.142L629.035 261.815L636.729 262.488L639.037 268.643M647.307 280.183L645.384 281.144L641.345 270.374L639.998 270.758L639.037 268.643M647.307 280.183C647.498 280.644 644.309 271.848 642.499 267.489L639.037 268.643" stroke="#9D8962"/>
<path d="M215.518 104.581V107.659M217.441 104.581V107.659M219.557 104.581V107.659M221.48 104.581V107.466M223.596 104.581V107.466M225.519 104.581V107.466M227.635 104.581V107.466M229.558 104.581V107.274M231.674 104.581V107.274M233.597 104.581V107.274M235.52 104.389V107.274M237.636 104.389V107.274M239.559 104.197V107.082M241.483 104.197V107.082M243.598 104.197V106.889M245.522 104.197V106.889" stroke="#9D8962"/>
<path d="M339.957 128.623V131.7M341.88 128.623V131.7M343.996 128.623V131.7M345.919 128.623V131.508M348.035 128.623V131.508M349.958 128.623V131.508M352.074 128.623V131.508M353.997 128.623V131.316M356.113 128.623V131.316M358.036 128.623V131.316M359.96 128.431V131.316M362.075 128.431V131.316M363.999 128.238V131.123M365.922 128.238V131.123M368.038 128.238V130.931M369.961 128.238V130.931" stroke="#9D8962"/>
<path d="M421.506 78.2318V81.3092M423.429 78.2318V81.3092M425.545 78.2318V81.3092M427.468 78.2318V81.1169M429.584 78.2318V81.1169M431.507 78.2318V81.1169M433.623 78.2318V81.1169M435.546 78.2318V80.9245M437.662 78.2318V80.9245M439.585 78.2318V80.9245M441.509 78.0395V80.9245M443.624 78.0395V80.9245M445.548 77.8472V80.7322M447.471 77.8472V80.7322M449.587 77.8472V80.5399M451.51 77.8472V80.5399" stroke="#9D8962"/>
<path d="M270.715 103.235V105.928M274.561 103.235V105.928M276.677 103.235V105.928M278.601 103.235V105.736M280.716 103.235V105.736M282.64 103.235V105.736M284.755 103.043V105.736M286.679 102.85V105.543M288.794 102.85V105.543M290.718 102.85V105.543M292.641 102.658V105.543M294.757 102.658V105.543M296.68 102.466V105.351M298.603 102.466V105.351M300.719 102.466V105.159M302.642 102.466V105.159M268.599 103.235V104.004M266.676 103.235V104.004M272.638 103.235V105.928" stroke="#9D8962"/>
<path d="M377.461 127.085V129.97M379.577 127.085V130.739M381.692 127.085V130.739M383.616 127.085V130.739M385.924 127.277V130.739M388.039 127.277V130.739M390.155 127.277V130.739M392.271 126.893V130.547M394.194 126.893V130.547M396.31 126.893V130.355M398.425 126.893V130.355M400.541 126.7V130.162M402.464 126.7V130.162" stroke="#9D8962"/>
<path d="M467.281 70.1537V73.0387M469.397 70.1537V73.8081M471.513 70.1537V73.8081M473.436 70.1537V73.8081M475.744 70.346V73.8081M477.86 70.346V73.8081M479.975 70.346V73.8081M482.091 69.9614V73.6157M484.014 69.9614V73.6157M486.13 69.9614V73.4234M488.246 69.9614V73.4234M490.361 69.769V73.2311" stroke="#9D8962"/>
<path d="M522.482 68.9995V72.6539M520.367 68.9995V73.0385M518.059 68.9995V73.0385M515.751 69.1918V73.0385M513.635 69.1918V73.0385M511.519 69.1918V73.0385M509.404 69.5765V73.2309M507.48 69.5765V73.2309M505.365 69.5765V73.0385M503.249 69.5765V73.0385M501.133 69.3842V72.8462M499.21 69.3842V72.8462" stroke="#9D8962"/>
<path d="M566.334 87.4639V91.1182M564.218 87.4639V91.1182M562.487 87.4639V91.1182M560.372 87.6562V91.1182" stroke="#9D8962"/>
<path d="M552.486 74.3154V75.7316M550.508 74.1055V75.7316M548.375 74.1055V75.7316M546.242 74.1055V75.7316M544.108 74.3153V75.9239M542.169 74.3153V75.9239M540.036 74.3153V76.0988M537.903 74.3153V76.2037M535.77 74.2104V76.0988M533.83 74.2104V76.0988" stroke="#9D8962"/>
<path d="M127.62 187.093H121.85V204.403H122.043H127.62M127.62 187.093V204.403M127.62 187.093H133.967M127.62 204.403H133.967M133.967 204.403H138.775V187.093H133.967M133.967 204.403V187.093" stroke="#9D8962"/>
<path d="M127.614 263.643H121.844V277.298H122.037H127.614M127.614 263.643V277.298M127.614 263.643H133.961M127.614 277.298H133.577H133.961M133.961 277.298V263.643M133.961 277.298H134.579H138.578L138.769 263.643H133.961" stroke="#9D8962"/>
<path d="M127.614 298.647H121.844V312.303H122.037H127.614M127.614 298.647V312.303M127.614 298.647H133.961M127.614 312.303H133.577H133.961M133.961 312.303V298.647M133.961 312.303H134.134H138.578L138.769 298.647H133.961" stroke="#9D8962"/>
<path d="M127.614 334.037H121.844V347.692H122.037H127.614M127.614 334.037V347.692M127.614 334.037H133.961M127.614 347.692H133.577H133.961M133.961 347.692V334.037M133.961 347.692H134.134H138.578L138.769 334.037H133.961" stroke="#9D8962"/>
<path d="M163.201 333.268H156.662V347.308H158.585H163.201M163.201 333.268V347.308M163.201 333.268H170.509M163.201 347.308H170.126H170.509M170.509 347.308V333.268M170.509 347.308H170.874H176.088V333.268H170.509" stroke="#9D8962"/>
<path d="M163.201 298.647H156.662V311.918H158.585H163.201M163.201 298.647V311.918M163.201 298.647H170.509M163.201 311.918H170.126H170.509M170.509 311.918V298.647M170.509 311.918H170.874H176.088V298.647H170.509" stroke="#9D8962"/>
<path d="M163.201 263.258H156.662V276.914H158.585H163.201M163.201 263.258V276.914M163.201 263.258H170.509M163.201 276.914H170.126H170.509M170.509 276.914V263.258M170.509 276.914H170.874H176.088V263.258H170.509" stroke="#9D8962"/>
<path d="M163.071 221.713H156.467V239.792H158.409H163.071M163.071 221.713V239.792M163.071 221.713H170.451M163.071 239.792H170.064H170.451M170.451 239.792V221.713M170.451 239.792H170.819H176.085V221.713H170.451" stroke="#9D8962"/>
<path d="M197.429 217.481H191.473V235.946H193.225H197.429M197.429 217.481V235.946M197.429 217.481H204.086M197.429 235.946H203.736H204.086M204.086 235.946V217.481M204.086 235.946H204.418H209.167V217.481H204.086" stroke="#9D8962"/>
<path d="M197.429 182.477H191.473V200.941H193.225H197.429M197.429 182.477V200.941M197.429 182.477H204.086M197.429 200.941H203.736H204.086M204.086 200.941V182.477M204.086 200.941H204.418H209.167V182.477H204.086" stroke="#9D8962"/>
<path d="M163.071 186.324H156.467V203.249H158.409H163.071M163.071 186.324V203.249M163.071 186.324H170.451M163.071 203.249H170.064H170.451M170.451 203.249V186.324M170.451 203.249H170.819H176.085V186.324H170.451" stroke="#9D8962"/>
<path d="M127.614 369.234H121.844V383.168H122.037H127.614M127.614 369.234V383.168M127.614 369.234H133.961M127.614 383.168H133.577H133.961M133.961 383.168V369.234M133.961 383.168H138.794L138.769 369.234H133.961" stroke="#9D8962"/>
<path d="M127.618 509.83H121.848V523.764H122.041H127.618M127.618 509.83V523.764M127.618 509.83H133.965M127.618 523.764H133.581H133.965M133.965 523.764V509.83M133.965 523.764H138.798L138.773 509.83H133.965" stroke="#9D8962"/>
<path d="M127.614 404.046H121.844V417.981H122.037H127.614M127.614 404.046V417.981M127.614 404.046H133.961M127.614 417.981H133.577H133.961M133.961 417.981V404.046M133.961 417.981H138.794L138.769 404.046H133.961" stroke="#9D8962"/>
<path d="M127.614 438.282H121.844V452.216H122.037H127.614M127.614 438.282V452.216M127.614 438.282H133.961M127.614 452.216H133.577H133.961M133.961 452.216V438.282M133.961 452.216H138.794L138.769 438.282H133.961" stroke="#9D8962"/>
<path d="M163.199 438.667H156.467V453.092H158.582H163.199M163.199 438.667V453.092M163.199 438.667H170.123M163.199 453.092H170.123M170.123 453.092L170.123 438.667M170.123 453.092H175.893V438.667H170.123" stroke="#9D8962"/>
<path d="M163.199 403.277H156.467V417.702H158.582H163.199M163.199 403.277V417.702M163.199 403.277H170.123M163.199 417.702H170.123M170.123 417.702L170.123 403.277M170.123 417.702H175.893V403.277H170.123" stroke="#9D8962"/>
<path d="M163.199 367.887H156.467V382.312H158.582H163.199M163.199 367.887V382.312M163.199 367.887H170.123M163.199 382.312H170.123M170.123 382.312L170.123 367.887M170.123 382.312H175.893V367.887H170.123" stroke="#9D8962"/>
<path d="M127.618 474.056H121.848V487.99H122.041H127.618M127.618 474.056V487.99M127.618 474.056H133.965M127.618 487.99H133.581H133.965M133.965 487.99V474.056M133.965 487.99H138.798L138.773 474.056H133.965" stroke="#9D8962"/>
<path d="M127.618 543.682H121.848V558.491H127.618M127.618 543.682H133.965M127.618 543.682V558.491M133.965 543.682H138.773L138.795 558.491H133.965M133.965 543.682V558.491M127.618 558.491H133.965" stroke="#9D8962"/>
<path d="M127.61 578.686H121.848V594.073H127.61M127.61 578.686H133.949M127.61 578.686V594.073M133.949 578.686H138.751L138.773 594.073H133.949M133.949 578.686V594.073M127.61 594.073H133.949" stroke="#9D8962"/>
<path d="M163.146 578.686H156.467V593.688H163.146M163.146 578.686H170.109M163.146 578.686V593.688M170.109 578.686H176.06L176.085 593.688H170.109M170.109 578.686V593.688M163.146 593.688H170.109" stroke="#9D8962"/>
<path d="M163.146 543.297H156.467V558.299H163.146M163.146 543.297H170.109M163.146 543.297V558.299M170.109 543.297H176.06L176.085 558.299H170.109M170.109 543.297V558.299M163.146 558.299H170.109" stroke="#9D8962"/>
<path d="M163.146 508.292H156.467V523.294H163.146M163.146 508.292H170.109M163.146 508.292V523.294M170.109 508.292H176.06L176.085 523.294H170.109M170.109 508.292V523.294M163.146 523.294H170.109" stroke="#9D8962"/>
<path d="M163.146 473.287H156.467V488.289H163.146M163.146 473.287H170.109M163.146 473.287V488.289M170.109 473.287H176.06L176.085 488.289H170.109M170.109 473.287V488.289M163.146 488.289H170.109" stroke="#9D8962"/>
<path d="M197.112 542.912H191.473V557.53H197.112M197.112 542.912H204.124M197.112 542.912V557.53M204.124 542.912H209.145L209.167 557.53H204.124M204.124 542.912V557.53M197.112 557.53H204.124" stroke="#9D8962"/>
<path d="M197.112 507.522H191.473V522.14H197.112M197.112 507.522H204.124M197.112 507.522V522.14M204.124 507.522H209.145L209.167 522.14H204.124M204.124 507.522V522.14M197.112 522.14H204.124" stroke="#9D8962"/>
<path d="M197.112 472.133H191.473V486.75H197.112M197.112 472.133H204.124M197.112 472.133V486.75M204.124 472.133H209.145L209.167 486.75H204.124M204.124 472.133V486.75M197.112 486.75H204.124" stroke="#9D8962"/>
<path d="M197.112 436.743H191.473V451.361H197.112M197.112 436.743H204.124M197.112 436.743V451.361M204.124 436.743H209.145L209.167 451.361H204.124M204.124 436.743V451.361M197.112 451.361H204.124" stroke="#9D8962"/>
<path d="M197.112 400.969H191.473V415.586H197.112M197.112 400.969H204.124M197.112 400.969V415.586M204.124 400.969H209.145L209.167 415.586H204.124M204.124 400.969V415.586M197.112 415.586H204.124" stroke="#9D8962"/>
<path d="M197.112 365.964H191.473V379.428H197.112M197.112 365.964H204.124M197.112 365.964V379.428M204.124 365.964H209.145L209.167 379.428H204.124M204.124 365.964V379.428M197.112 379.428H204.124" stroke="#9D8962"/>
<path d="M197.112 330.959H191.473V344.423H197.112M197.112 330.959H204.124M197.112 330.959V344.423M204.124 330.959H209.145L209.167 344.423H204.124M204.124 330.959V344.423M197.112 344.423H204.124" stroke="#9D8962"/>
<path d="M197.112 295.57H191.473V309.033H197.112M197.112 295.57H204.124M197.112 295.57V309.033M204.124 295.57H209.145L209.167 309.033H204.124M204.124 295.57V309.033M197.112 309.033H204.124" stroke="#9D8962"/>
<path d="M197.112 259.795H191.473V273.259H197.112M197.112 259.795H204.124M197.112 259.795V273.259M204.124 259.795H209.145L209.167 273.259H204.124M204.124 259.795V273.259M197.112 273.259H204.124" stroke="#9D8962"/>
<path d="M197.112 578.301H191.473V592.919H197.112M197.112 578.301H204.124M197.112 578.301V592.919M204.124 578.301H209.145L209.167 592.919H204.124M204.124 578.301V592.919M197.112 592.919H204.124" stroke="#9D8962"/>
<path d="M127.614 222.482H121.844V239.793H122.037H127.614M127.614 222.482V239.793M127.614 222.482H133.961M127.614 239.793H133.961M133.961 239.793H138.769V222.482H133.961M133.961 239.793V222.482" stroke="#9D8962"/>
<path d="M632.689 123.046V132.855L625.572 130.739L625.574 121.315C625.574 118.622 625.574 114.391 629.037 115.16C632.979 116.036 632.689 120.353 632.689 123.046Z" stroke="#9D8962"/>
<path d="M521.521 99.6339V110.352H509.211V99.6339C509.211 97.1667 510.114 92.8491 515.366 92.8491C520.495 92.8491 521.521 97.5779 521.521 99.6339Z" stroke="#9D8962"/>
<path d="M483.823 100.403V111.121H471.514V100.403C471.514 97.936 472.416 93.6185 477.668 93.6185C482.797 93.6185 483.823 98.3472 483.823 100.403Z" stroke="#9D8962"/>
<path d="M559.987 243.64H552.293M559.987 243.64V498.868M559.987 243.64L565.18 247.871M559.987 520.217H552.293M559.987 520.217V498.868M559.987 520.217L565.18 524.448M544.6 243.64H537.676V498.868M544.6 243.64V520.217M544.6 243.64H552.293M544.6 520.217H537.676V498.868M544.6 520.217H552.293M552.293 243.64V520.217M537.676 498.868H559.987M559.987 498.868L565.18 503.099M537.676 493.29H559.987L565.18 497.521M537.676 456.939H559.987L565.18 461.17M537.676 462.516H559.987L565.18 466.748M537.676 426.165H559.987L565.18 430.396M537.676 420.587H559.987L565.18 424.819M537.676 394.238H559.987L565.18 398.469M537.676 384.236H559.987L565.18 388.468M537.676 347.885L559.987 347.693L565.18 351.924M537.676 353.463L559.987 353.27L565.18 357.502M537.676 317.111H559.987L565.18 321.343M537.676 311.534H559.987L565.18 315.765M537.676 280.76L559.987 280.568L565.18 284.799M537.676 275.183L559.987 274.99L565.18 279.222M537.676 250.179L559.987 249.987L565.18 254.218M565.18 141.51V247.871M565.18 141.51V136.317L559.987 130.932M565.18 141.51L559.987 136.125M565.18 247.871V593.688H559.987M552.293 130.932H559.987M552.293 130.932V136.125M552.293 130.932H544.6M559.987 130.932V136.125M552.293 229.407H559.987V208.058M552.293 229.407V208.19M552.293 229.407H544.6M552.293 136.125V163.761M552.293 136.125H559.987M552.293 136.125H544.6M552.293 163.761V202.613M552.293 163.761L544.6 163.894M552.293 163.761L559.987 163.629M552.293 202.613V208.19M552.293 202.613L544.6 202.745M552.293 202.613L559.987 202.48M552.293 208.19L544.6 208.323M552.293 208.19L559.987 208.058M544.6 229.407H537.676V208.442M544.6 229.407V208.323M544.6 130.932H537.676V136.125M544.6 130.932V136.125M544.6 208.323V202.745M544.6 208.323L537.676 208.442M544.6 202.745V163.894M544.6 202.745L537.676 202.865M544.6 163.894V136.125M544.6 163.894L537.676 164.013M544.6 136.125H537.676M559.987 136.125V163.629M537.676 136.125V164.013M537.676 164.013V202.865M537.676 202.865V208.442M559.987 163.629V202.48M559.987 163.629L565.18 169.014M559.987 202.48V208.058M559.987 202.48L565.18 207.865M559.987 208.058L565.18 213.443M565.18 174.976L559.987 169.591L552.293 169.724L544.6 169.856L537.676 169.976M559.987 534.065V540.604M559.987 534.065L565.18 536.95M559.987 534.065H552.293M559.987 593.688V571.57M559.987 593.688H552.293M537.676 540.604V534.065H544.6M537.676 540.604H559.987M537.676 540.604V565.992M559.987 540.604V565.992M559.987 540.604L565.18 543.489M537.676 565.992H559.987M537.676 565.992V571.57M559.987 565.992V571.57M559.987 565.992L565.18 568.877M537.676 571.57V593.688H544.6M537.676 571.57H559.987M559.987 571.57L565.18 574.455M544.6 534.065V593.688M544.6 534.065H552.293M544.6 593.688H552.293M552.293 534.065V593.688" stroke="#9D8962"/>
<path d="M511.901 165.936H507.67V195.94H511.901M511.901 165.936V195.94M511.901 165.936H518.056M511.901 195.94H518.056M518.056 165.936H523.441V195.94H518.056M518.056 165.936V195.94" stroke="#9D8962"/>
<path d="M511.901 204.788H507.67V226.33H511.901M511.901 204.788V226.33M511.901 204.788H518.056M511.901 226.33H518.056M518.056 204.788H523.441V226.33H518.056M518.056 204.788V226.33" stroke="#9D8962"/>
<path d="M511.901 242.486H507.67V269.413H511.901M511.901 242.486V269.413M511.901 242.486H518.056M511.901 269.413H518.056M518.056 242.486H523.441V269.413H518.056M518.056 242.486V269.413" stroke="#9D8962"/>
<path d="M511.901 277.49H507.67V305.956H511.901M511.901 277.49V305.956M511.901 277.49H518.056M511.901 305.956H518.056M518.056 277.49H523.441V305.956H518.056M518.056 277.49V305.956" stroke="#9D8962"/>
<path d="M511.901 314.418H507.67V342.499H511.901M511.901 314.418V342.499M511.901 314.418H518.056M511.901 342.499H518.056M518.056 314.418H523.441V342.499H518.056M518.056 314.418V342.499" stroke="#9D8962"/>
<path d="M511.901 350.577H507.67V373.657H511.901M511.901 350.577V373.657M511.901 350.577H518.056M511.901 373.657H518.056M518.056 350.577H523.441V373.657H518.056M518.056 350.577V373.657" stroke="#9D8962"/>
<path d="M511.901 388.275H507.67V415.971H511.901M511.901 388.275V415.971M511.901 388.275H518.056M511.901 415.971H518.056M518.056 388.275H523.441V415.971H518.056M518.056 388.275V415.971" stroke="#9D8962"/>
<path d="M511.901 423.665H507.67V452.899H511.901M511.901 423.665V452.899M511.901 423.665H518.056M511.901 452.899H518.056M518.056 423.665H523.441V452.899H518.056M518.056 423.665V452.899" stroke="#9D8962"/>
<path d="M511.901 460.208H507.67V489.443H511.901M511.901 460.208V489.443M511.901 460.208H518.056M511.901 489.443H518.056M518.056 460.208H523.441V489.443H518.056M518.056 460.208V489.443" stroke="#9D8962"/>
<path d="M511.901 496.367H507.67V520.601H511.901M511.901 496.367V520.601M511.901 496.367H518.056M511.901 520.601H518.056M518.056 496.367H523.441V520.601H518.056M518.056 496.367V520.601" stroke="#9D8962"/>
<path d="M511.901 534.064H507.67V562.53H511.901M511.901 534.064V562.53M511.901 534.064H518.056M511.901 562.53H518.056M518.056 534.064H523.441V562.53H518.056M518.056 534.064V562.53" stroke="#9D8962"/>
<path d="M511.901 569.069H507.67V593.688H511.901M511.901 569.069V593.688M511.901 569.069H518.056M511.901 593.688H518.056M518.056 569.069H523.441V593.688H518.056M518.056 569.069V593.688" stroke="#9D8962"/>
<path d="M311.106 577.532H304.951V592.918H311.106M311.106 577.532V592.918M311.106 577.532H317.453M311.106 592.918H317.453M317.453 592.918H323.8V577.532H317.453M317.453 592.918V577.532" stroke="#9D8962"/>
<path d="M311.106 542.142H304.951V557.144H311.106M311.106 542.142V557.144M311.106 542.142H317.453M311.106 557.144H317.453M317.453 557.144H323.8V542.142H317.453M317.453 557.144V542.142" stroke="#9D8962"/>
<path d="M311.106 506.753H304.951V521.756H311.106M311.106 506.753V521.756M311.106 506.753H317.453M311.106 521.756H317.453M317.453 521.756H323.8V506.753H317.453M317.453 521.756V506.753" stroke="#9D8962"/>
<path d="M311.106 470.979H304.951V485.981H311.106M311.106 470.979V485.981M311.106 470.979H317.453M311.106 485.981H317.453M317.453 485.981H323.8V470.979H317.453M317.453 485.981V470.979" stroke="#9D8962"/>
<path d="M311.106 435.204H304.951V450.206H311.106M311.106 435.204V450.206M311.106 435.204H317.453M311.106 450.206H317.453M317.453 450.206H323.8V435.204H317.453M317.453 450.206V435.204" stroke="#9D8962"/>
<path d="M311.106 399.815H304.951V415.202H311.106M311.106 399.815V415.202M311.106 399.815H317.453M311.106 415.202H317.453M317.453 415.202H323.8V399.815H317.453M317.453 415.202V399.815" stroke="#9D8962"/>
<path d="M311.106 364.425H304.951V379.812H311.106M311.106 364.425V379.812M311.106 364.425H317.453M311.106 379.812H317.453M317.453 379.812H323.8V364.425H317.453M317.453 379.812V364.425" stroke="#9D8962"/>
<path d="M311.106 329.036H304.951V344.422H311.106M311.106 329.036V344.422M311.106 329.036H317.453M311.106 344.422H317.453M317.453 344.422H323.8V329.036H317.453M317.453 344.422V329.036" stroke="#9D8962"/>
<path d="M311.106 293.262H304.951V308.648H311.106M311.106 293.262V308.648M311.106 293.262H317.453M311.106 308.648H317.453M317.453 308.648H323.8V293.262H317.453M317.453 308.648V293.262" stroke="#9D8962"/>
<path d="M311.106 257.872H304.951V273.259H311.106M311.106 257.872V273.259M311.106 257.872H317.453M311.106 273.259H317.453M317.453 273.259H323.8V257.872H317.453M317.453 273.259V257.872" stroke="#9D8962"/>
<path d="M311.106 215.559H304.951V235.946H311.106M311.106 215.559V235.946M311.106 215.559H317.453M311.106 235.946H317.453M317.453 235.946H323.8V215.559H317.453M317.453 235.946V215.559" stroke="#9D8962"/>
<path d="M311.106 180.169H304.951V199.402H311.106M311.106 180.169V199.402M311.106 180.169H317.453M311.106 199.402H317.453M317.453 199.402H323.8V180.169H317.453M317.453 199.402V180.169" stroke="#9D8962"/>
<path d="M348.536 182.477H341.879V199.402H348.536M348.536 182.477V199.402M348.536 182.477H355.727M348.536 199.402H355.727M355.727 199.402H362.266V182.477H355.727M355.727 199.402V182.477" stroke="#9D8962"/>
<path d="M348.536 217.867H341.879V236.331H348.536M348.536 217.867V236.331M348.536 217.867H355.727M348.536 236.331H355.727M355.727 236.331H362.266V217.867H355.727M355.727 236.331V217.867" stroke="#9D8962"/>
<path d="M348.536 259.795H341.879V273.643H348.536M348.536 259.795V273.643M348.536 259.795H355.727M348.536 273.643H355.727M355.727 273.643H362.266V259.795H355.727M355.727 273.643V259.795" stroke="#9D8962"/>
<path d="M348.536 295.185H341.879V309.033H348.536M348.536 295.185V309.033M348.536 295.185H355.727M348.536 309.033H355.727M355.727 309.033H362.266V295.185H355.727M355.727 309.033V295.185" stroke="#9D8962"/>
<path d="M348.536 330.575H341.879V344.423H348.536M348.536 330.575V344.423M348.536 330.575H355.727M348.536 344.423H355.727M355.727 344.423H362.266V330.575H355.727M355.727 344.423V330.575" stroke="#9D8962"/>
<path d="M348.536 365.964H341.879V379.812H348.536M348.536 365.964V379.812M348.536 365.964H355.727M348.536 379.812H355.727M355.727 379.812H362.266V365.964H355.727M355.727 379.812V365.964" stroke="#9D8962"/>
<path d="M348.536 401.354H341.879V415.202H348.536M348.536 401.354V415.202M348.536 401.354H355.727M348.536 415.202H355.727M355.727 415.202H362.266V401.354H355.727M355.727 415.202V401.354" stroke="#9D8962"/>
<path d="M348.536 436.743H341.879V450.976H348.536M348.536 436.743V450.976M348.536 436.743H355.727M348.536 450.976H355.727M355.727 450.976H362.266V436.743H355.727M355.727 450.976V436.743" stroke="#9D8962"/>
<path d="M348.536 471.748H341.879V486.75H348.536M348.536 471.748V486.75M348.536 471.748H355.727M348.536 486.75H355.727M355.727 486.75H362.266V471.748H355.727M355.727 486.75V471.748" stroke="#9D8962"/>
<path d="M348.536 507.522H341.879V522.14H348.536M348.536 507.522V522.14M348.536 507.522H355.727M348.536 522.14H355.727M355.727 522.14H362.266V507.522H355.727M355.727 522.14V507.522" stroke="#9D8962"/>
<path d="M348.536 542.527H341.879V557.144H348.536M348.536 542.527V557.144M348.536 542.527H355.727M348.536 557.144H355.727M355.727 557.144H362.266V542.527H355.727M355.727 557.144V542.527" stroke="#9D8962"/>
<path d="M348.536 578.301H341.879V592.919H348.536M348.536 578.301V592.919M348.536 578.301H355.727M348.536 592.919H355.727M355.727 592.919H362.266V578.301H355.727M355.727 592.919V578.301" stroke="#9D8962"/>
<path d="M383.422 571H377.268V594.849H383.422M383.422 571V594.849M383.422 571H390.071M383.422 594.849H390.071M390.071 594.849H396.116V571H390.071M390.071 594.849V571" stroke="#9D8962"/>
<path d="M383.422 537.526H377.268V564.837H383.422M383.422 537.526V564.837M383.422 537.526H390.071M383.422 564.837H390.071M390.071 564.837H396.116V537.526H390.071M390.071 564.837V537.526" stroke="#9D8962"/>
<path d="M383.422 500.598H377.268V524.063H383.422M383.422 500.598V524.063M383.422 500.598H390.071M383.422 524.063H390.071M390.071 524.063H396.116V500.598H390.071M390.071 524.063V500.598" stroke="#9D8962"/>
<path d="M383.422 464.824H377.268V494.059H383.422M383.422 464.824V494.059M383.422 464.824H390.071M383.422 494.059H390.071M390.071 494.059H396.116V464.824H390.071M390.071 494.059V464.824" stroke="#9D8962"/>
<path d="M383.422 429.819H377.268V458.284H383.422M383.422 429.819V458.284M383.422 429.819H390.071M383.422 458.284H390.071M390.071 458.284H396.116V429.819H390.071M390.071 458.284V429.819" stroke="#9D8962"/>
<path d="M383.422 395.199H377.268V422.511H383.422M383.422 395.199V422.511M383.422 395.199H390.071M383.422 422.511H390.071M390.071 422.511H396.116V395.199H390.071M390.071 422.511V395.199" stroke="#9D8962"/>
<path d="M383.422 359.04H377.268V380.582H383.422M383.422 359.04V380.582M383.422 359.04H390.071M383.422 380.582H390.071M390.071 380.582H396.116V359.04H390.071M390.071 380.582V359.04" stroke="#9D8962"/>
<path d="M383.422 323.65H377.268V351.347H383.422M383.422 323.65V351.347M383.422 323.65H390.071M383.422 351.347H390.071M390.071 351.347H396.116V323.65H390.071M390.071 351.347V323.65" stroke="#9D8962"/>
<path d="M383.422 287.876H377.268V315.572H383.422M383.422 287.876V315.572M383.422 287.876H390.071M383.422 315.572H390.071M390.071 315.572H396.116V287.876H390.071M390.071 315.572V287.876" stroke="#9D8962"/>
<path d="M383.422 253.641H377.268V279.798H383.422M383.422 253.641V279.798M383.422 253.641H390.071M383.422 279.798H390.071M390.071 279.798H396.116V253.641H390.071M390.071 279.798V253.641" stroke="#9D8962"/>
<path d="M383.422 217.097H377.268V237.869H383.422M383.422 217.097V237.869M383.422 217.097H390.071M383.422 237.869H390.071M390.071 237.869H396.116V217.097H390.071M390.071 237.869V217.097" stroke="#9D8962"/>
<path d="M383.422 181.708H377.268V207.865H383.422M383.422 181.708V207.865M383.422 181.708H390.071M383.422 207.865H390.071M390.071 207.865H396.116V181.708H390.071M390.071 207.865V181.708" stroke="#9D8962"/>
<path d="M473.821 167.09H469.59V186.708H473.821M473.821 167.09V186.708M473.821 167.09H479.591M473.821 186.708H479.591M479.591 186.708H484.207V167.09H479.591M479.591 186.708V167.09" stroke="#9D8962"/>
<path d="M473.821 205.557H469.59V224.79H473.821M473.821 205.557V224.79M473.821 205.557H479.591M473.821 224.79H479.591M479.591 224.79H484.207V205.557H479.591M479.591 224.79V205.557" stroke="#9D8962"/>
<path d="M473.821 248.64H469.59V262.873H473.821M473.821 248.64V262.873M473.821 248.64H479.591M473.821 262.873H479.591M479.591 262.873H484.207V248.64H479.591M479.591 262.873V248.64" stroke="#9D8962"/>
<path d="M473.821 285.184H469.59V299.416H473.821M473.821 285.184V299.416M473.821 285.184H479.591M473.821 299.416H479.591M479.591 299.416H484.207V285.184H479.591M479.591 299.416V285.184" stroke="#9D8962"/>
<path d="M473.821 321.343H469.59V335.96H473.821M473.821 321.343V335.96M473.821 321.343H479.591M473.821 335.96H479.591M479.591 335.96H484.207V321.343H479.591M479.591 335.96V321.343" stroke="#9D8962"/>
<path d="M473.821 357.886H469.59V372.504H473.821M473.821 357.886V372.504M473.821 357.886H479.591M473.821 372.504H479.591M479.591 372.504H484.207V357.886H479.591M479.591 372.504V357.886" stroke="#9D8962"/>
<path d="M473.821 394.43H469.59V409.047H473.821M473.821 394.43V409.047M473.821 394.43H479.591M473.821 409.047H479.591M479.591 409.047H484.207V394.43H479.591M479.591 409.047V394.43" stroke="#9D8962"/>
<path d="M473.821 430.588H469.59V445.206H473.821M473.821 430.588V445.206M473.821 430.588H479.591M473.821 445.206H479.591M479.591 445.206H484.207V430.588H479.591M479.591 445.206V430.588" stroke="#9D8962"/>
<path d="M473.821 467.132H469.59V481.75H473.821M473.821 467.132V481.75M473.821 467.132H479.591M473.821 481.75H479.591M479.591 481.75H484.207V467.132H479.591M479.591 481.75V467.132" stroke="#9D8962"/>
<path d="M473.821 503.291H469.59V518.293H473.821M473.821 503.291V518.293M473.821 503.291H479.591M473.821 518.293H479.591M479.591 518.293H484.207V503.291H479.591M479.591 518.293V503.291" stroke="#9D8962"/>
<path d="M473.821 539.834H469.59V554.837H473.821M473.821 539.834V554.837M473.821 539.834H479.591M473.821 554.837H479.591M479.591 554.837H484.207V539.834H479.591M479.591 554.837V539.834" stroke="#9D8962"/>
<path d="M473.821 576.378H469.59V591.38H473.821M473.821 576.378V591.38M473.821 576.378H479.591M473.821 591.38H479.591M479.591 591.38H484.207V576.378H479.591M479.591 591.38V576.378" stroke="#9D8962"/>
<path d="M579.99 180.554H584.99V199.402H579.99M579.99 180.554V199.402M579.99 180.554H573.835M579.99 199.402H573.835M573.835 199.402H569.988V180.554H573.835M573.835 199.402V180.554" stroke="#9D8962"/>
<path d="M579.99 218.251H584.99V236.715H579.99M579.99 218.251V236.715M579.99 218.251H573.835M579.99 236.715H573.835M573.835 236.715H569.988V218.251H573.835M573.835 236.715V218.251" stroke="#9D8962"/>
<path d="M579.99 260.18H584.99V273.643H579.99M579.99 260.18V273.643M579.99 260.18H573.835M579.99 273.643H573.835M573.835 273.643H569.988V260.18H573.835M573.835 273.643V260.18" stroke="#9D8962"/>
<path d="M579.99 295.57H584.99V309.033H579.99M579.99 295.57V309.033M579.99 295.57H573.835M579.99 309.033H573.835M573.835 309.033H569.988V295.57H573.835M573.835 309.033V295.57" stroke="#9D8962"/>
<path d="M579.99 330.959H584.99V344.423H579.99M579.99 330.959V344.423M579.99 330.959H573.835M579.99 344.423H573.835M573.835 344.423H569.988V330.959H573.835M573.835 344.423V330.959" stroke="#9D8962"/>
<path d="M579.99 366.349H584.99V379.812H579.99M579.99 366.349V379.812M579.99 366.349H573.835M579.99 379.812H573.835M573.835 379.812H569.988V366.349H573.835M573.835 379.812V366.349" stroke="#9D8962"/>
<path d="M579.99 401.354H584.99V415.202H579.99M579.99 401.354V415.202M579.99 401.354H573.835M579.99 415.202H573.835M573.835 415.202H569.988V401.354H573.835M573.835 415.202V401.354" stroke="#9D8962"/>
<path d="M579.99 436.358H584.99V449.822H579.99M579.99 436.358V449.822M579.99 436.358H573.835M579.99 449.822H573.835M573.835 449.822H569.988V436.358H573.835M573.835 449.822V436.358" stroke="#9D8962"/>
<path d="M579.99 471.748H584.99V485.211H579.99M579.99 471.748V485.211M579.99 471.748H573.835M579.99 485.211H573.835M573.835 485.211H569.988V471.748H573.835M573.835 485.211V471.748" stroke="#9D8962"/>
<path d="M579.99 507.522H584.99V522.14H579.99M579.99 507.522V522.14M579.99 507.522H573.835M579.99 522.14H573.835M573.835 522.14H569.988V507.522H573.835M573.835 522.14V507.522" stroke="#9D8962"/>
<path d="M579.99 542.912H584.99V557.529H579.99M579.99 542.912V557.529M579.99 542.912H573.835M579.99 557.529H573.835M573.835 557.529H569.988V542.912H573.835M573.835 557.529V542.912" stroke="#9D8962"/>
<path d="M579.99 577.917H584.99V592.919H579.99M579.99 577.917V592.919M579.99 577.917H573.835M579.99 592.919H573.835M573.835 592.919H569.988V577.917H573.835M573.835 592.919V577.917" stroke="#9D8962"/>
<path d="M230.074 253.61H223.4V279.991H230.074M230.074 253.61V279.991M230.074 253.61H237.304M230.074 279.991H237.304M237.304 253.61H243.236V279.991H237.304M237.304 253.61V279.991M273.324 252.872H266.65V279.253H273.324M273.324 252.872V279.253M273.324 252.872H280.554M273.324 279.253H280.554M280.554 252.872H286.486V279.253H280.554M280.554 252.872V279.253" stroke="#9D8962"/>
<path d="M230.074 288.635H223.4V315.764H230.074M230.074 288.635V315.764M230.074 288.635H237.304M230.074 315.764H237.304M237.304 288.635H243.236V315.764H237.304M237.304 288.635V315.764M273.324 287.876H266.65V315.006H273.324M273.324 287.876V315.006M273.324 287.876H280.554M273.324 315.006H280.554M280.554 287.876H286.486V315.006H280.554M280.554 287.876V315.006" stroke="#9D8962"/>
<path d="M230.074 324.025H223.4V351.155H230.074M230.074 324.025V351.155M230.074 324.025H237.304M230.074 351.155H237.304M237.304 324.025H243.236V351.155H237.304M237.304 324.025V351.155M273.324 323.266H266.65V350.396H273.324M273.324 323.266V350.396M273.324 323.266H280.554M273.324 350.396H280.554M280.554 323.266H286.486V350.396H280.554M280.554 323.266V350.396" stroke="#9D8962"/>
<path d="M230.074 395.937H223.4V422.318H230.074M230.074 395.937V422.318M230.074 395.937H237.304M230.074 422.318H237.304M237.304 395.937H243.236V422.318H237.304M237.304 395.937V422.318M273.324 395.199H266.65V421.965H273.324M273.324 395.199V421.965M273.324 395.199H280.554M273.324 421.965H280.554M280.554 395.199H286.486V421.965H280.554M280.554 395.199V421.965" stroke="#9D8962"/>
<path d="M230.074 430.214H223.4V458.092H230.074M230.074 430.214V458.092M230.074 430.214H237.304M230.074 458.092H237.304M237.304 430.214H243.236V458.092H237.304M237.304 430.214V458.092M273.324 429.434H266.65V457.719H273.324M273.324 429.434V457.719M273.324 429.434H280.554M273.324 457.719H280.554M280.554 429.434H286.486V457.719H280.554M280.554 429.434V457.719" stroke="#9D8962"/>
<path d="M230.074 465.604H223.4V493.482H230.074M230.074 465.604V493.482M230.074 465.604H237.304M230.074 493.482H237.304M237.304 465.604H243.236V493.482H237.304M237.304 465.604V493.482M273.324 464.824H266.65V493.108H273.324M273.324 464.824V493.108M273.324 464.824H280.554M273.324 493.108H280.554M280.554 464.824H286.486V493.108H280.554M280.554 464.824V493.108" stroke="#9D8962"/>
<path d="M230.074 500.857H223.4V523.871H230.074M230.074 500.857V523.871M230.074 500.857H237.304M230.074 523.871H237.304M237.304 500.857H243.236V523.871H237.304M237.304 500.857V523.871M273.324 500.213H266.65V523.562H273.324M273.324 500.213V523.562M273.324 500.213H280.554M273.324 523.562H280.554M280.554 500.213H286.486V523.562H280.554M280.554 500.213V523.562" stroke="#9D8962"/>
<path d="M230.074 537.89H223.4V564.645H230.074M230.074 537.89V564.645M230.074 537.89H237.304M230.074 564.645H237.304M237.304 537.89H243.236V564.645H237.304M237.304 537.89V564.645M273.324 537.142H266.65V564.672H273.324M273.324 537.142V564.672M273.324 537.142H280.554M273.324 564.672H280.554M280.554 537.142H286.486V564.672H280.554M280.554 537.142V564.672" stroke="#9D8962"/>
<path d="M230.074 571.665H223.4V595.429H230.074M230.074 571.665V595.429M230.074 571.665H237.304M230.074 595.429H237.304M237.304 571.665H243.236V595.429H237.304M237.304 571.665V595.429M273.324 571H266.65V595.068H273.324M273.324 571V595.068M273.324 571H280.554M273.324 595.068H280.554M280.554 571H286.486V595.068H280.554M280.554 571V595.068" stroke="#9D8962"/>
<path d="M230.134 237.869H223.018V217.097H230.134M230.134 237.869V217.097M230.134 237.869H237.443M230.134 217.097H237.443M237.443 217.097H243.79V237.869H237.443M237.443 217.097V237.869" stroke="#9D8962"/>
<path d="M230.638 209.019H223.785V181.323H230.638M230.638 209.019V181.323M230.638 209.019H237.676M230.638 181.323H237.676M237.676 181.323H243.788V209.019H237.676M237.676 181.323V209.019" stroke="#9D8962"/>
<path d="M273.337 207.865H266.484V180.169H273.337M273.337 207.865V180.169M273.337 207.865H280.375M273.337 180.169H280.375M280.375 180.169H286.487V207.865H280.375M280.375 180.169V207.865" stroke="#9D8962"/>
<path d="M230.506 380.966H223.785V359.425H230.506M230.506 380.966V359.425M230.506 380.966H237.409M230.506 359.425H237.409M237.409 359.425H243.403V380.966H237.409M237.409 359.425V380.966" stroke="#9D8962"/>
<path d="M273.337 237.1H266.484V216.328H273.337M273.337 237.1V216.328M273.337 237.1H280.375M273.337 216.328H280.375M280.375 216.328H286.487V237.1H280.375M280.375 216.328V237.1" stroke="#9D8962"/>
<path d="M273.205 380.197H266.869V358.655H273.205M273.205 380.197V358.655M273.205 380.197H280.493M273.205 358.655H280.493M280.493 358.655H286.487V380.197H280.493M280.493 358.655V380.197" stroke="#9D8962"/>
<path d="M436.124 115.16C438.708 115.16 440.834 113.728 441.097 111.89M436.124 115.16C433.54 115.16 431.413 113.728 431.15 111.89M436.124 115.16V111.89M436.124 107.851C433.362 107.851 431.123 109.487 431.123 111.505C431.123 111.635 431.132 111.764 431.15 111.89M436.124 107.851C438.886 107.851 441.124 109.487 441.124 111.505C441.124 111.635 441.115 111.764 441.097 111.89M436.124 107.851V111.89M441.097 111.89H436.124M431.15 111.89H436.124" stroke="#9D8962"/>
<path d="M438.815 111.891C438.815 111.966 438.81 112.04 438.8 112.113C438.659 113.177 437.514 114.006 436.122 114.006C434.731 114.006 433.586 113.177 433.444 112.113C433.435 112.04 433.43 111.966 433.43 111.891C433.43 110.722 434.635 109.775 436.122 109.775C437.609 109.775 438.815 110.722 438.815 111.891Z" stroke="#9D8962"/>
<path d="M629.624 62.1076C630.85 63.2141 631.833 64.3312 632.434 65.2334C632.737 65.6878 632.926 66.0637 633.011 66.3408C633.057 66.4943 633.061 66.5785 633.058 66.6184C633.019 66.6252 632.935 66.6299 632.777 66.5992C632.493 66.5437 632.1 66.3936 631.617 66.139C630.658 65.6335 629.446 64.7699 628.22 63.6634C626.994 62.5569 626.011 61.4398 625.41 60.5376C625.108 60.0832 624.918 59.7073 624.834 59.4302C624.787 59.2767 624.783 59.1925 624.786 59.1526C624.826 59.1458 624.91 59.1411 625.067 59.1718C625.351 59.2273 625.745 59.3774 626.228 59.632C627.187 60.1375 628.398 61.0011 629.624 62.1076Z" stroke="#9D8962"/>
<path d="M582.183 120.545C582.183 121.412 581.71 122.237 580.864 122.864C580.019 123.49 578.828 123.892 577.49 123.892C576.152 123.892 574.961 123.49 574.115 122.864C573.27 122.237 572.797 121.412 572.797 120.545C572.797 119.679 573.27 118.853 574.115 118.227C574.961 117.601 576.152 117.199 577.49 117.199C578.828 117.199 580.019 117.601 580.864 118.227C581.71 118.853 582.183 119.679 582.183 120.545Z" stroke="#9D8962"/>
</g>
<path d="M11.024 581.6H11.636L11.636 590H10.28L10.28 583.184L8.372 583.964V582.632L11.024 581.6Z" fill="#9D8962"/>
<path d="M7.712 553.704H11.864V555H5.492V554.028L7.928 551.892C8.952 551.004 9.6 550.404 9.872 550.092C10.152 549.772 10.292 549.436 10.292 549.084C10.292 548.7 10.148 548.384 9.86 548.136C9.58 547.88 9.192 547.752 8.696 547.752C7.712 547.752 7.124 548.268 6.932 549.3H5.564C5.66 548.428 5.996 547.736 6.572 547.224C7.156 546.712 7.884 546.456 8.756 546.456C9.628 546.456 10.328 546.704 10.856 547.2C11.392 547.688 11.66 548.296 11.66 549.024C11.66 549.272 11.616 549.516 11.528 549.756C11.448 549.988 11.356 550.192 11.252 550.368C11.156 550.536 10.968 550.764 10.688 551.052C10.416 551.332 10.188 551.556 10.004 551.724C9.828 551.884 9.512 552.16 9.056 552.552L7.736 553.692L7.712 553.704Z" fill="#9D8962"/>
<path d="M10.508 515.584C10.94 515.744 11.272 516 11.504 516.352C11.744 516.704 11.864 517.124 11.864 517.612C11.864 518.396 11.58 519.016 11.012 519.472C10.452 519.92 9.712 520.144 8.792 520.144C7.904 520.144 7.156 519.916 6.548 519.46C5.94 519.004 5.588 518.348 5.492 517.492H6.86C7.052 518.404 7.692 518.86 8.78 518.86C9.332 518.86 9.756 518.74 10.052 518.5C10.348 518.252 10.496 517.916 10.496 517.492C10.496 516.692 9.964 516.292 8.9 516.292H7.76V515.092H8.66C9.708 515.092 10.232 514.736 10.232 514.024C10.232 513.64 10.092 513.332 9.812 513.1C9.532 512.86 9.144 512.74 8.648 512.74C7.736 512.74 7.176 513.16 6.968 514H5.6C5.712 513.16 6.048 512.528 6.608 512.104C7.168 511.672 7.86 511.456 8.684 511.456C9.524 511.456 10.22 511.684 10.772 512.14C11.324 512.588 11.6 513.16 11.6 513.856C11.6 514.248 11.504 514.596 11.312 514.9C11.12 515.204 10.852 515.432 10.508 515.584Z" fill="#9D8962"/>
<path d="M12.272 481.796V483.068H11.06L11.06 485H9.704L9.704 483.068L5.372 483.08V481.796L9.044 476.6H11.06V481.796H12.272ZM6.848 481.796H9.704V477.86H9.596L6.848 481.796Z" fill="#9D8962"/>
<path d="M9.068 444.408C9.868 444.408 10.54 444.66 11.084 445.164C11.628 445.668 11.9 446.34 11.9 447.18C11.9 448.06 11.604 448.776 11.012 449.328C10.42 449.872 9.672 450.144 8.768 450.144C7.912 450.144 7.172 449.908 6.548 449.436C5.932 448.964 5.58 448.292 5.492 447.42H6.86C6.956 447.884 7.176 448.24 7.52 448.488C7.864 448.736 8.276 448.86 8.756 448.86C9.276 448.86 9.7 448.7 10.028 448.38C10.356 448.06 10.52 447.656 10.52 447.168C10.52 446.672 10.356 446.276 10.028 445.98C9.708 445.684 9.292 445.536 8.78 445.536C8.012 445.536 7.444 445.832 7.076 446.424H5.78L6.812 441.6H11.504V442.896H7.832L7.4 444.936C7.856 444.584 8.412 444.408 9.068 444.408Z" fill="#9D8962"/>
<path d="M9.08 409.312C9.848 409.312 10.508 409.56 11.06 410.056C11.612 410.544 11.888 411.22 11.888 412.084C11.888 412.988 11.58 413.724 10.964 414.292C10.356 414.86 9.596 415.144 8.684 415.144C7.788 415.144 7.032 414.864 6.416 414.304C5.8 413.744 5.492 413 5.492 412.072C5.492 411.6 5.6 411.108 5.816 410.596C6.04 410.084 6.316 409.592 6.644 409.12C6.972 408.648 7.46 407.98 8.108 407.116C8.284 406.892 8.416 406.72 8.504 406.6H10.1L7.772 409.648C8.196 409.424 8.632 409.312 9.08 409.312ZM8.684 413.848C9.212 413.848 9.648 413.688 9.992 413.368C10.344 413.04 10.52 412.612 10.52 412.084C10.52 411.556 10.348 411.136 10.004 410.824C9.66 410.512 9.224 410.356 8.696 410.356C8.152 410.356 7.708 410.512 7.364 410.824C7.028 411.136 6.86 411.56 6.86 412.096C6.86 412.624 7.032 413.048 7.376 413.368C7.728 413.688 8.164 413.848 8.684 413.848Z" fill="#9D8962"/>
<path d="M6.372 371.6H12.228V372.596L8.58 380H7.044L10.608 372.896H6.372V371.6Z" fill="#9D8962"/>
<path d="M10.412 340.596C10.86 340.756 11.204 341.02 11.444 341.388C11.692 341.756 11.816 342.184 11.816 342.672C11.816 343.424 11.516 344.024 10.916 344.472C10.324 344.92 9.572 345.144 8.66 345.144C7.74 345.144 6.98 344.92 6.38 344.472C5.788 344.024 5.492 343.424 5.492 342.672C5.492 342.184 5.612 341.756 5.852 341.388C6.1 341.02 6.448 340.756 6.896 340.596C6.536 340.444 6.256 340.208 6.056 339.888C5.856 339.568 5.756 339.208 5.756 338.808C5.756 338.112 6.032 337.548 6.584 337.116C7.136 336.676 7.828 336.456 8.66 336.456C9.484 336.456 10.172 336.676 10.724 337.116C11.276 337.548 11.552 338.112 11.552 338.808C11.552 339.208 11.452 339.568 11.252 339.888C11.052 340.208 10.772 340.444 10.412 340.596ZM8.66 337.74C8.172 337.74 7.792 337.852 7.52 338.076C7.248 338.292 7.112 338.592 7.112 338.976C7.112 339.712 7.628 340.08 8.66 340.08C9.684 340.08 10.196 339.712 10.196 338.976C10.196 338.592 10.06 338.292 9.788 338.076C9.516 337.852 9.14 337.74 8.66 337.74ZM8.66 343.86C9.212 343.86 9.648 343.748 9.968 343.524C10.296 343.292 10.46 342.968 10.46 342.552C10.46 341.688 9.86 341.256 8.66 341.256C7.452 341.256 6.848 341.688 6.848 342.552C6.848 342.968 7.008 343.292 7.328 343.524C7.656 343.748 8.1 343.86 8.66 343.86Z" fill="#9D8962"/>
<path d="M8.696 301.456C9.592 301.456 10.348 301.736 10.964 302.296C11.58 302.856 11.888 303.6 11.888 304.528C11.888 305 11.776 305.492 11.552 306.004C11.336 306.516 11.064 307.008 10.736 307.48C10.408 307.952 9.92 308.62 9.272 309.484C9.096 309.708 8.964 309.88 8.876 310H7.28L9.608 306.952C9.184 307.176 8.748 307.288 8.3 307.288C7.532 307.288 6.872 307.044 6.32 306.556C5.768 306.06 5.492 305.38 5.492 304.516C5.492 303.612 5.796 302.876 6.404 302.308C7.02 301.74 7.784 301.456 8.696 301.456ZM8.684 306.244C9.228 306.244 9.668 306.088 10.004 305.776C10.348 305.464 10.52 305.04 10.52 304.504C10.52 303.976 10.344 303.552 9.992 303.232C9.648 302.912 9.216 302.752 8.696 302.752C8.168 302.752 7.728 302.916 7.376 303.244C7.032 303.564 6.86 303.988 6.86 304.516C6.86 305.044 7.032 305.464 7.376 305.776C7.72 306.088 8.156 306.244 8.684 306.244Z" fill="#9D8962"/>
<path d="M3.024 266.6H3.636L3.636 275H2.28L2.28 268.184L0.372 268.964L0.372 267.632L3.024 266.6ZM8.73319 266.456C9.83719 266.456 10.6972 266.844 11.3132 267.62C11.9292 268.388 12.2372 269.448 12.2372 270.8C12.2372 272.152 11.9292 273.216 11.3132 273.992C10.6972 274.76 9.83719 275.144 8.73319 275.144C7.63719 275.144 6.78119 274.76 6.16519 273.992C5.54919 273.224 5.24119 272.16 5.24119 270.8C5.24119 269.44 5.54919 268.376 6.16519 267.608C6.78119 266.84 7.63719 266.456 8.73319 266.456ZM8.73319 273.848C10.1572 273.848 10.8692 272.832 10.8692 270.8C10.8692 268.768 10.1572 267.752 8.73319 267.752C7.31719 267.752 6.60919 268.768 6.60919 270.8C6.60919 272.832 7.31719 273.848 8.73319 273.848Z" fill="#9D8962"/>
<path d="M6.024 231.6H6.636L6.636 240H5.28L5.28 233.184L3.372 233.964V232.632L6.024 231.6ZM10.6412 231.6H11.2532L11.2532 240H9.89719L9.89719 233.184L7.98919 233.964L7.98919 232.632L10.6412 231.6Z" fill="#9D8962"/>
<path d="M4.024 196.6H4.636L4.636 205H3.28L3.28 198.184L1.372 198.964L1.372 197.632L4.024 196.6ZM8.32919 203.704H12.4812V205H6.10919V204.028L8.54519 201.892C9.56919 201.004 10.2172 200.404 10.4892 200.092C10.7692 199.772 10.9092 199.436 10.9092 199.084C10.9092 198.7 10.7652 198.384 10.4772 198.136C10.1972 197.88 9.80919 197.752 9.31319 197.752C8.32919 197.752 7.74119 198.268 7.54919 199.3H6.18119C6.27719 198.428 6.61319 197.736 7.18919 197.224C7.77319 196.712 8.50119 196.456 9.37319 196.456C10.2452 196.456 10.9452 196.704 11.4732 197.2C12.0092 197.688 12.2772 198.296 12.2772 199.024C12.2772 199.272 12.2332 199.516 12.1452 199.756C12.0652 199.988 11.9732 200.192 11.8692 200.368C11.7732 200.536 11.5852 200.764 11.3052 201.052C11.0332 201.332 10.8052 201.556 10.6212 201.724C10.4452 201.884 10.1292 202.16 9.67319 202.552L8.35319 203.692L8.32919 203.704Z" fill="#9D8962"/>
<path d="M4.024 161.6H4.636L4.636 170H3.28L3.28 163.184L1.372 163.964L1.372 162.632L4.024 161.6ZM11.1252 165.584C11.5572 165.744 11.8892 166 12.1212 166.352C12.3612 166.704 12.4812 167.124 12.4812 167.612C12.4812 168.396 12.1972 169.016 11.6292 169.472C11.0692 169.92 10.3292 170.144 9.40919 170.144C8.52119 170.144 7.77319 169.916 7.16519 169.46C6.55719 169.004 6.20519 168.348 6.10919 167.492H7.47719C7.66919 168.404 8.30919 168.86 9.39719 168.86C9.94919 168.86 10.3732 168.74 10.6692 168.5C10.9652 168.252 11.1132 167.916 11.1132 167.492C11.1132 166.692 10.5812 166.292 9.51719 166.292H8.37719V165.092H9.27719C10.3252 165.092 10.8492 164.736 10.8492 164.024C10.8492 163.64 10.7092 163.332 10.4292 163.1C10.1492 162.86 9.76119 162.74 9.26519 162.74C8.35319 162.74 7.79319 163.16 7.58519 164H6.21719C6.32919 163.16 6.66519 162.528 7.22519 162.104C7.78519 161.672 8.47719 161.456 9.30119 161.456C10.1412 161.456 10.8372 161.684 11.3892 162.14C11.9412 162.588 12.2172 163.16 12.2172 163.856C12.2172 164.248 12.1212 164.596 11.9292 164.9C11.7372 165.204 11.4692 165.432 11.1252 165.584Z" fill="#9D8962"/>
<path d="M3.024 126.6H3.636L3.636 135H2.28L2.28 128.184L0.372 128.964L0.372 127.632L3.024 126.6ZM11.8892 131.796V133.068H10.6772V135H9.32119V133.068L4.98919 133.08V131.796L8.66119 126.6H10.6772L10.6772 131.796H11.8892ZM6.46519 131.796H9.32119L9.32119 127.86H9.21319L6.46519 131.796Z" fill="#9D8962"/>
<path opacity="0.3" d="M28 375.5L25.5 373L23 375.5L25.5 378L28 375.5Z" fill="#F9F9F9"/>
<path opacity="0.3" d="M28 340.5L25.5 338L23 340.5L25.5 343L28 340.5Z" fill="#F9F9F9"/>
<path opacity="0.3" d="M28 305.5L25.5 303L23 305.5L25.5 308L28 305.5Z" fill="#F9F9F9"/>
<path opacity="0.3" d="M28 270.5L25.5 268L23 270.5L25.5 273L28 270.5Z" fill="#F9F9F9"/>
<path opacity="0.3" d="M28 235.5L25.5 233L23 235.5L25.5 238L28 235.5Z" fill="#F9F9F9"/>
<path opacity="0.3" d="M28 200.5L25.5 198L23 200.5L25.5 203L28 200.5Z" fill="#F9F9F9"/>
<path opacity="0.3" d="M28 165.5L25.5 163L23 165.5L25.5 168L28 165.5Z" fill="#F9F9F9"/>
<path opacity="0.3" d="M28 130.5L25.5 128L23 130.5L25.5 133L28 130.5Z" fill="#F9F9F9"/>
<path opacity="0.3" d="M28 410.5L25.5 408L23 410.5L25.5 413L28 410.5Z" fill="#F9F9F9"/>
<path opacity="0.3" d="M28 445.5L25.5 443L23 445.5L25.5 448L28 445.5Z" fill="#F9F9F9"/>
<path opacity="0.3" d="M28 480.5L25.5 478L23 480.5L25.5 483L28 480.5Z" fill="#F9F9F9"/>
<path opacity="0.3" d="M28 515.5L25.5 513L23 515.5L25.5 518L28 515.5Z" fill="#F9F9F9"/>
<path opacity="0.3" d="M28 585.5L25.5 583L23 585.5L25.5 588L28 585.5Z" fill="#F9F9F9"/>
<path opacity="0.3" d="M28 550.5L25.5 548L23 550.5L25.5 553L28 550.5Z" fill="#F9F9F9"/>
</svg>
