<svg width="44" height="32" viewBox="0 0 44 32" fill="none" xmlns="http://www.w3.org/2000/svg">
<path d="M1.63694 27.9716C2.06009 27.9716 2.39602 28.0904 2.64471 28.328C2.89712 28.5656 3.02332 28.89 3.02332 29.3012C3.02332 29.7161 2.89712 30.0461 2.64471 30.2913C2.3923 30.5327 2.05638 30.6534 1.63694 30.6534H0.796198V31.9321H0V27.9716H1.63694ZM1.60353 29.8839C1.80397 29.8839 1.95616 29.833 2.06009 29.7312C2.16402 29.6293 2.21599 29.4898 2.21599 29.3125C2.21599 29.1314 2.16402 28.9919 2.06009 28.8938C1.95616 28.792 1.80397 28.741 1.60353 28.741H0.796198V29.8839H1.60353Z" fill="#F9F9F9"/>
<path d="M5.94121 31.9321L4.93343 30.5063H4.49357V31.9321H3.69738V27.9716H5.37329C5.78902 27.9716 6.11381 28.0885 6.34766 28.3224C6.58522 28.5524 6.704 28.8655 6.704 29.2616C6.704 29.5784 6.6279 29.8368 6.47572 30.0367C6.32353 30.2366 6.10824 30.3724 5.82985 30.4441L6.92114 31.9321H5.94121ZM4.49357 28.741V29.7991H5.2842C5.48836 29.7991 5.64054 29.7538 5.74076 29.6633C5.8447 29.569 5.89666 29.4389 5.89666 29.2729C5.89666 29.1069 5.8447 28.9768 5.74076 28.8825C5.63683 28.7882 5.48465 28.741 5.2842 28.741H4.49357Z" fill="#F9F9F9"/>
<path d="M7.40563 31.9321V27.9716H8.20183V31.9321H7.40563Z" fill="#F9F9F9"/>
<path d="M11.9264 27.9716H12.8451V31.9321H12.0489V29.0918L10.9632 30.7609H10.8908L9.81062 29.0918V31.9321H9.01442V27.9716H9.92754L10.9298 29.4935L11.9264 27.9716Z" fill="#F9F9F9"/>
<path d="M16.3026 28.741H14.4819V29.5388H16.1523V30.3083H14.4819V31.1626H16.3026V31.9321H13.6857V27.9716H16.3026V28.741Z" fill="#F9F9F9"/>
<path d="M21.1343 27.9716H21.9305V31.9321H21.1343V30.2913H19.4027V31.9321H18.6065V27.9716H19.4027V29.5218H21.1343V27.9716Z" fill="#F9F9F9"/>
<path d="M23.1889 28.4921C23.5787 28.0998 24.0612 27.9037 24.6366 27.9037C25.2119 27.9037 25.6945 28.0998 26.0842 28.4921C26.474 28.8844 26.6688 29.371 26.6688 29.9518C26.6688 30.5327 26.474 31.0193 26.0842 31.4116C25.6945 31.8039 25.2119 32 24.6366 32C24.0612 32 23.5787 31.8039 23.1889 31.4116C22.8029 31.0193 22.6099 30.5327 22.6099 29.9518C22.6099 29.371 22.8029 28.8844 23.1889 28.4921ZM25.5107 29.0353C25.2806 28.7939 24.9892 28.6732 24.6366 28.6732C24.284 28.6732 23.9907 28.7939 23.7569 29.0353C23.5267 29.2767 23.4117 29.5822 23.4117 29.9518C23.4117 30.3215 23.5267 30.627 23.7569 30.8684C23.9907 31.1098 24.284 31.2305 24.6366 31.2305C24.9892 31.2305 25.2806 31.1098 25.5107 30.8684C25.7446 30.627 25.8615 30.3215 25.8615 29.9518C25.8615 29.5822 25.7446 29.2767 25.5107 29.0353Z" fill="#F9F9F9"/>
<path d="M28.1405 31.1626H29.8108V31.9321H27.3443V27.9716H28.1405V31.1626Z" fill="#F9F9F9"/>
<path d="M31.7978 27.9716C32.3657 27.9716 32.839 28.1602 33.2176 28.5374C33.5999 28.9146 33.7911 29.386 33.7911 29.9518C33.7911 30.5176 33.5999 30.9891 33.2176 31.3663C32.839 31.7435 32.3657 31.9321 31.7978 31.9321H30.3892V27.9716H31.7978ZM31.7978 31.1626C32.1505 31.1626 32.4381 31.0495 32.6608 30.8232C32.8836 30.5968 32.9949 30.3064 32.9949 29.9518C32.9949 29.5973 32.8836 29.3068 32.6608 29.0805C32.4381 28.8542 32.1505 28.741 31.7978 28.741H31.1854V31.1626H31.7978Z" fill="#F9F9F9"/>
<path d="M34.4726 31.9321V27.9716H35.2688V31.9321H34.4726Z" fill="#F9F9F9"/>
<path d="M38.6203 27.9716H39.4165V31.9321H38.4978L36.8052 29.1597L36.8776 30.2743V31.9321H36.0814V27.9716H36.9945L38.6927 30.7439L38.6203 29.6293V27.9716Z" fill="#F9F9F9"/>
<path d="M41.8675 29.7821H44V31.9321H43.3207V31.2645C43.2279 31.4832 43.0646 31.6605 42.8308 31.7963C42.6006 31.9321 42.3259 32 42.0067 32C41.4574 32 40.9971 31.8076 40.6259 31.4229C40.2547 31.0344 40.0691 30.5459 40.0691 29.9575C40.0691 29.3653 40.2584 28.8749 40.637 28.4864C41.0194 28.0979 41.5019 27.9037 42.0847 27.9037C42.5449 27.9037 42.944 28.0319 43.2818 28.2884C43.6232 28.5411 43.8515 28.8731 43.9666 29.2842H43.1147C43.0219 29.0918 42.8846 28.9428 42.7027 28.8372C42.5245 28.7278 42.3167 28.6732 42.0791 28.6732C41.7191 28.6732 41.4277 28.7939 41.205 29.0353C40.9822 29.2767 40.8709 29.5878 40.8709 29.9688C40.8709 30.3385 40.9767 30.6459 41.1883 30.8911C41.4035 31.1325 41.6968 31.2532 42.068 31.2532C42.3389 31.2532 42.5746 31.1834 42.7751 31.0438C42.9755 30.9043 43.1092 30.71 43.176 30.461H41.8675V29.7821Z" fill="#F9F9F9"/>
<path d="M31.3726 7.39971C31.3687 9.37769 30.6069 11.2764 29.2487 12.6932L27.2785 14.0426L26.6992 14.4431C26.6782 14.4442 26.6572 14.4442 26.6362 14.4431V3.33548H23.3617V10.7192H20.2094V3.33548H16.9467V21.078L12.6122 24.0251V0H25.5605C25.9292 0.0736131 26.2896 0.184958 26.6362 0.332341C28.0289 0.893212 29.2241 1.86578 30.0671 3.12428C30.91 4.38278 31.362 5.86934 31.3647 7.39171L31.3726 7.39971Z" fill="#F9F9F9"/>
<path d="M21.5521 13.9466H20.3069V15.2119H21.5521V13.9466Z" fill="#F9F9F9"/>
<path d="M23.1805 13.9466H21.9353V15.2119H23.1805V13.9466Z" fill="#F9F9F9"/>
<path d="M21.5521 15.6764H20.3069V16.9417H21.5521V15.6764Z" fill="#F9F9F9"/>
<path d="M23.1805 15.6764H21.9353V16.9417H23.1805V15.6764Z" fill="#F9F9F9"/>
</svg>
