<svg width="13" height="13" viewBox="0 0 13 13" fill="none" xmlns="http://www.w3.org/2000/svg">
<g clip-path="url(#clip0_782_559)">
<path d="M10.4157 8.26628L9.03983 8.10919C8.70941 8.07128 8.38441 8.18503 8.1515 8.41794L7.15483 9.41461C5.62191 8.63461 4.36525 7.38336 3.58525 5.84503L4.58733 4.84294C4.82025 4.61003 4.934 4.28503 4.89608 3.95461L4.739 2.58961C4.674 2.04253 4.21358 1.63086 3.66108 1.63086L2.724 1.63086C2.11191 1.63086 1.60275 2.14003 1.64066 2.75211C1.92775 7.37794 5.62733 11.0721 10.2477 11.3592C10.8598 11.3971 11.369 10.8879 11.369 10.2759V9.33878C11.3744 8.79169 10.9627 8.33128 10.4157 8.26628Z" fill="#9D8962"/>
</g>
<defs>
<clipPath id="clip0_782_559">
<rect width="13" height="13" fill="white"/>
</clipPath>
</defs>
</svg>
