<svg width="846" height="679" viewBox="0 0 846 679" fill="none" xmlns="http://www.w3.org/2000/svg">
<path opacity="0.2" d="M294.226 0.238281L351.049 110.745L3.68031 247.537L1 568.327L560.113 426.171L742.91 677.761M342.472 0.238281L416.448 143.468H654.996L682.394 402.88L766.497 392.912L804.349 559.679L829.998 552.771L845 653.564L779.667 655.984L795.98 677.761M717.715 406.859L726.828 469.086M726.828 469.086L652.851 480.352L613.19 425.142M726.828 469.086L717.239 402.88L630.612 413.527M630.612 413.527L613.19 425.142M630.612 413.527L678.039 407.72L666.253 301.181L538.67 321.029L613.19 425.142M9.57699 251.828L65.8635 230.371L74.4405 284.015L9.57699 293.134V251.828ZM9.57699 299.571V376.282L148.417 355.361L137.16 280.26L9.57699 299.571ZM9.57699 400.422L7.96881 478.206L163.427 454.602L152.169 378.964L9.57699 400.422ZM7.96881 484.107L6.89668 560.281L52.998 548.479L42.8128 478.206L7.96881 484.107ZM48.7095 478.206L59.4308 546.334L172.54 517.902L163.963 461.576L48.7095 478.206ZM171.468 460.503L180.045 516.293L328.534 478.206L322.637 437.973L171.468 460.503ZM159.138 377.892L170.396 453.53L321.565 430.463L310.308 355.898L159.138 377.892ZM155.386 354.825L306.555 332.294L295.298 256.656L144.129 279.187L155.386 354.825ZM72.8323 228.225L126.439 206.767L136.088 273.286L80.3372 281.869L72.8323 228.225ZM132.871 204.622L260.454 154.196L275.464 252.365L143.056 272.213L132.871 204.622ZM267.959 151.514L353.193 117.182L393.933 194.966L419.128 230.907L282.969 251.828L267.959 151.514ZM327.998 429.926L316.205 354.288L455.045 334.44L486.672 329.076L552.608 421.343L522.052 429.39L504.027 403.848L327.998 429.926ZM302.267 255.583L312.988 331.221L438.963 312.446L474.343 307.082L424.489 236.808L396.614 240.563L302.267 255.583ZM328.534 436.363L334.431 477.133L397.15 461.576L392.325 426.708L328.534 436.363ZM397.15 425.635L402.51 459.967L516.692 430.999L502.754 410.078L397.15 425.635ZM656.604 484.643L777.754 466.404L796.516 549.016L716.643 568.328L656.604 484.643ZM723.076 406.323L762.744 399.886L776.682 461.04L732.725 468.013L723.076 406.323ZM419.664 149.368H589.477L619.966 193.816L620.933 202.511L492.569 222.861L477.559 231.98L449.167 192.284L419.664 149.368ZM664.109 279.187L523.66 300.644L481.312 237.344L494.713 228.225L656.068 204.622L664.109 279.187ZM596.252 149.368L625.773 193.816L627.225 202.043L653.842 198.656L649.002 149.368H596.252ZM735.628 577.101L826.126 558.711L840.161 650.176L788.862 651.144L735.628 577.101Z" stroke="white" stroke-width="0.96789"/>
<path opacity="0.1" d="M625.773 193.816L596.252 149.369H649.002L653.842 198.656L627.225 202.044L625.773 193.816Z" stroke="white" stroke-width="0.96789"/>
<path opacity="0.1" d="M497.518 210.912L498.948 210.691L499.717 215.338L508.072 214.01L507.852 212.793L513.019 211.908L513.239 213.236L519.065 212.351L518.846 211.134L521.594 210.691L518.846 192.877L513.019 193.762L512.799 192.545L505.214 193.651L505.434 194.869L496.859 196.196L497.518 200.733L495.979 200.954L497.518 210.912Z" stroke="white" stroke-width="0.96789"/>
<path opacity="0.1" fill-rule="evenodd" clip-rule="evenodd" d="M553.277 205.893L553.469 207.183L547.731 208.049L547.539 206.759L544.794 207.174L542.138 189.342L547.94 188.467L547.756 187.237L555.384 186.086L555.567 187.316L564.188 186.017L564.874 190.622L566.346 190.4L567.818 200.292L566.348 200.514L567.035 205.136L558.62 206.406L558.428 205.117L553.277 205.893Z" stroke="white" stroke-width="0.96789"/>
<path opacity="0.1" fill-rule="evenodd" clip-rule="evenodd" d="M524.925 210.172L522.135 210.593L519.479 192.762L522.768 192.265L522.584 191.035L532.872 189.484L533.055 190.714L541.677 189.412L544.346 207.334L543.156 207.513L541.685 207.735L541.864 208.935L535.864 209.84L535.671 208.551L530.837 209.28L531.029 210.569L525.117 211.461L524.925 210.172Z" stroke="white" stroke-width="0.96789"/>
<path opacity="0.1" d="M446.969 153.589L446.024 152.2L433.076 161.114L477.461 226.419L490.409 217.504L487.109 212.649M446.969 153.589L440.324 158.174L441.165 159.409L437.335 162.051L442.148 169.116L443.216 168.378L446.161 172.702L445.093 173.441L448.374 178.257L449.442 177.519L451.012 179.822L460.389 173.351M446.969 153.589L448.516 152.521L449.363 153.75L453.179 151.117L458.107 158.356L459.126 157.653L463.464 164.031L462.445 164.734L465.787 169.626L460.389 173.351M487.109 212.649L488.724 211.534L487.883 210.3L491.7 207.666L486.771 200.43L487.79 199.726L483.428 193.324L482.409 194.027L479.092 189.157L473.668 192.9M487.109 212.649L480.528 217.19L479.687 215.956L475.857 218.599L471.045 211.534L472.113 210.797L469.168 206.474L468.1 207.211L464.819 202.395L465.887 201.658L464.317 199.353L473.668 192.9M460.738 173.862L460.389 173.351M460.738 173.862L451.36 180.334L452.956 182.675L451.887 183.413L455.268 188.376L456.336 187.638L459.101 191.697L458.032 192.435L461.463 197.47L462.457 196.784L463.298 198.019L463.978 199.018L473.405 192.513M460.738 173.862L466.135 170.138L468.015 172.899L469.035 172.195L474.917 180.829L473.898 181.532L478.828 188.771L473.405 192.513M473.405 192.513L473.668 192.9" stroke="white" stroke-width="0.96789"/>
<path opacity="0.1" d="M532.203 272.771L535.503 277.626L522.555 286.541L488.31 239.944L501.258 231.03L504.787 235.436M532.203 272.771L533.817 271.656L532.976 270.422L536.794 267.787L531.888 260.601L532.976 259.735L528.521 253.446L527.024 254.479L524.145 250.25L519.199 253.663L509.848 260.117L510.98 261.78L509.912 262.517L513.193 267.333L514.261 266.596L517.206 270.919L516.138 271.656L520.95 278.721L524.78 276.078L525.621 277.312L532.203 272.771ZM504.787 235.436L506.723 233.984L507.55 234.952L510.98 232.048L515.918 238.823L516.401 238.339L521.725 245.115L521.241 245.599L523.921 248.893L518.498 252.635L509.072 259.14L508.391 258.141L507.55 256.905L506.556 257.592L504.202 254.08L505.271 253.342L502.507 249.283L501.438 250.022L496.981 243.535L499.463 241.654L498.496 239.944L504.787 235.436Z" stroke="white" stroke-width="0.96789"/>
<path opacity="0.1" fill-rule="evenodd" clip-rule="evenodd" d="M510.564 156.586L510.564 170.108L501.773 170.108L501.773 172.101L495.251 172.101L495.251 170.068L486.787 170.068L486.787 156.618L489.716 156.618L489.716 155.639L507.63 155.639L507.63 156.586L510.564 156.586Z" stroke="white" stroke-width="0.96789"/>
<path opacity="0.1" fill-rule="evenodd" clip-rule="evenodd" d="M510.95 156.586L513.884 156.586L513.884 155.639L531.798 155.639L531.798 156.618L534.727 156.618L534.727 170.068L526.263 170.068L526.263 172.101L519.741 172.101L519.741 170.108L510.95 170.108L510.95 156.586Z" stroke="white" stroke-width="0.96789"/>
<path opacity="0.1" fill-rule="evenodd" clip-rule="evenodd" d="M571.347 165.267L569.752 162.926L584.525 152.729L586.407 155.488L587.426 154.784L593.308 163.42L592.288 164.124L597.219 171.36L582.369 181.609L581.688 180.61L580.848 179.375L579.853 180.061L576.424 175.023L577.49 174.285L574.727 170.23L573.658 170.965L570.278 166.002L571.347 165.267Z" stroke="white" stroke-width="0.96789"/>
<path opacity="0.1" fill-rule="evenodd" clip-rule="evenodd" d="M587.559 189.064L586.49 189.802L583.208 184.986L584.277 184.248L582.707 181.944L597.483 171.748L600.799 176.616L601.818 175.913L606.179 182.317L605.162 183.02L610.09 190.255L606.273 192.889L607.115 194.124L598.917 199.78L598.078 198.545L594.248 201.189L589.436 194.124L590.502 193.389L587.559 189.064Z" stroke="white" stroke-width="0.96789"/>
<path opacity="0.1" d="M657.617 437.663L654.193 433.081L655.37 432.015L650.021 425.142L649.379 425.622L644.565 419.335L641.463 421.679L640.5 420.614L632.049 427.327C632.263 427.611 632.712 428.179 632.798 428.179L629.161 430.523L634.189 437.236L635.258 436.384L638.147 440.646L636.863 441.392L640.179 445.974L641.463 445.335L643.389 447.572M657.617 437.663L643.389 447.572M657.617 437.663L660.612 442.138L661.575 441.286L666.603 447.999L665.426 448.958L669.812 454.925L666.603 457.482L667.245 458.441L659.114 464.515L658.258 463.449L654.942 465.794L649.807 459.294L650.877 458.441L648.096 454.286L647.133 454.925L643.709 450.663L644.886 449.81L643.389 447.572" stroke="white" stroke-width="0.96789"/>
<path opacity="0.1" d="M596.847 358.374L593.399 353.772L594.584 352.702L589.196 345.8L588.55 346.282L583.7 339.968L580.576 342.322L579.606 341.252L571.093 347.994C571.308 348.279 571.761 348.85 571.847 348.85L568.183 351.204L573.248 357.946L574.326 357.09L577.235 361.37L575.942 362.119L579.282 366.721L580.576 366.079L582.515 368.326M596.847 358.374L582.515 368.326M596.847 358.374L599.864 362.868L600.834 362.012L605.898 368.754L604.713 369.717L609.131 375.71M582.515 368.326L584.024 370.573L582.838 371.429L586.287 375.71L587.256 375.068L590.058 379.241L588.981 380.097L592.213 384.271L593.399 383.521L595.446 386.09M595.446 386.09L609.131 375.71M595.446 386.09L597.062 388.444L595.446 389.514L598.894 394.009L600.08 393.259L602.881 397.219L601.804 397.968L606.976 404.817L610.317 402.462L611.071 403.318L619.153 397.54L618.398 396.363L622.385 394.009L616.997 387.053L618.183 386.09L613.549 379.922L612.579 380.778L609.131 375.71" stroke="white" stroke-width="0.96789"/>
<path opacity="0.1" d="M492.905 381.436L496.385 385.971L495.228 387.055L500.661 393.855L501.294 393.366L506.186 399.587L509.244 397.196L510.219 398.248L518.546 391.405C518.328 391.124 517.872 390.562 517.787 390.563L521.378 388.164L516.267 381.519L515.213 382.388L512.271 378.164L513.54 377.399L510.166 372.862L508.896 373.52L506.943 371.309M492.905 381.436L506.943 371.309M492.905 381.436L489.853 377L488.906 377.868L483.795 371.223L484.954 370.246L480.493 364.338M506.943 371.309L505.417 369.091L506.578 368.221L503.102 364.005L502.152 364.659L499.318 360.541L500.372 359.672L497.111 355.56L495.949 356.324L493.885 353.794M493.885 353.794L480.493 364.338M493.885 353.794L492.251 351.471L493.835 350.381L490.356 345.952L489.194 346.716L486.363 342.811L487.419 342.049L482.199 335.299L478.928 337.693L478.169 336.851L470.255 342.728L471.019 343.89L467.107 346.294L472.542 353.148L471.383 354.125L476.059 360.204L477.006 359.337L480.493 364.338" stroke="white" stroke-width="0.96789"/>
<path opacity="0.1" d="M426.465 287.249L429.945 291.784L428.788 292.868L434.221 299.668L434.854 299.179L439.746 305.4L442.804 303.009L443.78 304.061L452.106 297.218C451.888 296.937 451.432 296.375 451.347 296.376L454.938 293.977L449.827 287.332L448.773 288.201L445.831 283.977L447.1 283.212L443.726 278.675L442.456 279.333L440.503 277.122M426.465 287.249L440.503 277.122M426.465 287.249L423.413 282.813L422.466 283.681L417.355 277.036L418.514 276.059L414.053 270.151M440.503 277.122L438.977 274.904L440.138 274.034L436.662 269.818L435.712 270.472L432.878 266.354L433.932 265.485L430.671 261.373L429.509 262.137L427.445 259.607M427.445 259.607L414.053 270.151M427.445 259.607L425.811 257.284L427.395 256.194L423.917 251.765L422.754 252.529L419.924 248.624L420.979 247.862L415.76 241.112L412.488 243.506L411.729 242.664L403.815 248.541L404.579 249.703L400.668 252.107L406.102 258.961L404.943 259.938L409.619 266.017L410.566 265.15L414.053 270.151" stroke="white" stroke-width="0.96789"/>
<path opacity="0.1" d="M558.035 269.885L552.169 270.778L551.955 269.672L544.383 270.778L544.71 271.92L536.865 272.961L537.365 276.811L535.963 277.115L537.365 287.27L538.623 287.057L539.156 291.003M558.035 269.885L560.701 286.524M558.035 269.885L564.221 269.032L563.901 267.219L571.154 266.365L571.58 267.859L579.366 266.365M560.701 286.524L557.715 286.844L558.035 288.764L552.702 289.084L552.595 287.91L547.262 288.55L547.476 289.83L539.156 291.003M560.701 286.524L563.474 286.204L563.581 287.377L569.234 286.844L569.056 285.351L573.82 284.924L574.034 285.884L579.793 285.564L579.793 283.857L582.246 283.617M539.156 291.003L539.69 293.777L625.976 280.658L625.549 278.311M582.246 283.617L579.366 266.365M582.246 283.617L585.126 283.217L585.446 284.391L590.992 283.617L590.885 282.471L595.685 281.511L595.898 282.577L601.231 281.938L601.018 280.658L604.004 280.391M579.366 266.365L587.686 264.872L587.472 263.486L595.152 262.419L595.472 263.699L601.391 262.952M625.549 278.311L617.017 279.484L617.017 278.631L612.644 279.164L612.644 280.658L607.204 281.084L606.991 280.124L604.004 280.391M625.549 278.311L625.016 274.365L626.403 274.152L624.909 263.912L623.629 263.912L623.096 259.753L614.67 261.246L614.457 259.753L607.097 260.713L607.311 262.206L601.391 262.952M604.004 280.391L601.391 262.952" stroke="white" stroke-width="0.96789"/>
<path opacity="0.1" d="M99.0819 309.55L104.951 308.68L105.161 309.787L112.737 308.71L112.414 307.566L120.264 306.556L119.778 302.704L121.182 302.406L119.819 292.245L118.56 292.453L118.042 288.505L109.718 289.646L109.927 290.926L104.591 291.546L104.489 290.372L99.1551 290.671L99.4677 292.592L96.48 292.901M99.0819 309.55L96.48 292.901M99.0819 309.55L92.8925 310.379L93.2054 312.193L85.9494 313.018L85.5286 311.524L77.7368 312.987M96.48 292.901L93.7057 293.21L93.6036 292.036L87.9487 292.548L88.1207 294.042L83.355 294.45L83.1454 293.489L77.3847 293.787L77.378 295.493L74.924 295.724M74.924 295.724L77.7368 312.987M74.924 295.724L72.0427 296.112L71.7273 294.938L66.1781 295.69L66.2803 296.837L61.477 297.778L61.2679 296.711L55.9325 297.33L56.1409 298.61L53.1534 298.866M77.7368 312.987L69.4118 314.447L69.6197 315.835L61.9362 316.872L61.6212 315.59L55.6989 316.314M53.1534 298.866L50.166 299.121L49.9564 298.16L44.5152 298.565L44.5094 300.059L40.1344 300.575L40.1377 299.722L31.6006 300.862L32.1186 304.81L30.7312 305.018L32.1847 315.263L33.4646 315.268L33.9817 319.43L42.4134 317.969L42.621 319.463L49.984 318.532L49.7765 317.038L55.6989 316.314M53.1534 298.866L55.6989 316.314" stroke="white" stroke-width="0.96789"/>
<path opacity="0.1" d="M74.5201 443.604L68.6505 444.474L68.4414 443.367L60.8645 444.444L61.1879 445.588L53.3383 446.598L53.8239 450.45L52.4202 450.748L53.7833 460.909L55.0418 460.701L55.5598 464.649L63.8836 463.508L63.6753 462.227L69.0106 461.608L69.1127 462.782L74.4468 462.482L74.1343 460.561L77.1219 460.253M74.5201 443.604L77.1219 460.253M74.5201 443.604L80.7095 442.775L80.3966 440.961L87.6526 440.135L88.0734 441.63L95.8652 440.167M77.1219 460.253L79.8963 459.944L79.9984 461.117L85.6533 460.606L85.4812 459.112L90.247 458.704L90.4566 459.665L96.2173 459.367L96.2239 457.661L98.678 457.43M98.678 457.43L95.8652 440.167M98.678 457.43L101.559 457.041L101.875 458.216L107.424 457.464L107.322 456.317L112.125 455.376L112.334 456.443L117.669 455.824L117.461 454.543L120.449 454.288M95.8652 440.167L104.19 438.706L103.982 437.319L111.666 436.282L111.981 437.563L117.903 436.84M120.449 454.288L123.436 454.033L123.646 454.994L129.087 454.588L129.093 453.095L133.468 452.579L133.464 453.432L142.001 452.292L141.483 448.344L142.871 448.136L141.417 437.891L140.137 437.886L139.62 433.724L131.189 435.185L130.981 433.691L123.618 434.622L123.825 436.116L117.903 436.84M120.449 454.288L117.903 436.84" stroke="white" stroke-width="0.96789"/>
<path opacity="0.1" d="M427.12 362.685L432.991 361.828L433.198 362.935L440.777 361.874L440.456 360.729L448.308 359.735L447.83 355.883L449.235 355.587L447.893 345.423L446.634 345.629L446.124 341.68L437.798 342.803L438.003 344.085L432.667 344.693L432.567 343.519L427.232 343.807L427.541 345.729L424.553 346.031M427.12 362.685L424.553 346.031M427.12 362.685L420.929 363.502L421.238 365.317L413.98 366.127L413.563 364.631L405.768 366.078M424.553 346.031L421.778 346.335L421.678 345.161L416.022 345.66L416.191 347.155L411.424 347.553L411.217 346.592L405.455 346.877L405.445 348.584L402.991 348.81M402.991 348.81L405.768 366.078M402.991 348.81L400.109 349.192L399.796 348.017L394.245 348.758L394.345 349.904L389.54 350.836L389.333 349.768L383.996 350.376L384.202 351.657L381.214 351.906M405.768 366.078L397.44 367.522L397.645 368.91L389.959 369.93L389.647 368.649L383.723 369.36M381.214 351.906L378.226 352.155L378.018 351.194L372.576 351.588L372.567 353.081L368.191 353.589L368.196 352.735L359.657 353.858L360.167 357.807L358.779 358.012L360.211 368.26L361.491 368.268L362 372.43L370.434 370.987L370.639 372.482L378.004 371.566L377.799 370.071L383.723 369.36M381.214 351.906L383.723 369.36" stroke="white" stroke-width="0.96789"/>
<path opacity="0.1" d="M81.2702 341.028L75.4048 341.926L75.1905 340.82L67.6188 341.933L67.9477 343.076L60.1031 344.124L60.6073 347.973L59.2051 348.278L60.6173 358.433L61.8748 358.218L62.4119 362.164M81.2702 341.028L83.9525 357.664M81.2702 341.028L87.3535 339.853L87.1274 338.475L94.4858 337.508L94.7006 338.475L103.246 337.508L103.662 341.133L104.942 341.131L106.445 351.369L105.059 351.584L105.596 355.53M83.9525 357.664L80.9664 357.987L81.2882 359.906L75.9556 360.231L75.8478 359.058L70.5155 359.703L70.7301 360.983L62.4119 362.164M83.9525 357.664L87.0392 357.36L87.2535 358.32L92.6926 357.888L92.6912 356.395L97.0636 355.858L97.0644 356.711L105.596 355.53M62.4119 362.164L62.9288 364.811L106.125 358.412L105.596 355.53" stroke="white" stroke-width="0.96789"/>
<path opacity="0.1" d="M372.045 297.525L366.18 298.423L365.965 297.317L358.394 298.431L358.723 299.573L350.878 300.621L351.382 304.47L349.98 304.775L351.392 314.93L352.65 314.715L353.187 318.661M372.045 297.525L374.727 314.161M372.045 297.525L378.128 296.35L377.902 294.972L385.261 294.005L385.475 294.972L394.02 294.005L394.437 297.63L395.717 297.628L397.22 307.866L395.834 308.081L396.371 312.027M374.727 314.161L371.741 314.484L372.063 316.403L366.73 316.728L366.623 315.555L361.29 316.2L361.505 317.48L353.187 318.661M374.727 314.161L377.814 313.858L378.028 314.817L383.467 314.385L383.466 312.892L387.838 312.355L387.839 313.208L396.371 312.027M353.187 318.661L353.704 321.308L396.9 314.909L396.371 312.027" stroke="white" stroke-width="0.96789"/>
<path opacity="0.1" d="M92.4367 412.075L98.3063 411.205L98.5153 412.312L106.092 411.236L105.769 410.092L113.618 409.082L113.133 405.23L114.537 404.932L113.173 394.77L111.915 394.979L111.397 391.03M92.4367 412.075L89.8348 395.426M92.4367 412.075L86.3477 413.22L86.5672 414.6L79.2041 415.531L78.9941 414.563L70.4446 415.489L70.0452 411.862L68.7653 411.857L67.3119 401.612L68.6992 401.405L68.1813 397.456M89.8348 395.426L92.8224 395.118L92.5099 393.197L97.844 392.898L97.9461 394.071L103.281 393.452L103.073 392.171L111.397 391.03M89.8348 395.426L86.7466 395.715L86.537 394.754L81.0959 395.16L81.0901 396.653L76.7151 397.169L76.7184 396.316L68.1813 397.456M111.397 391.03L110.893 388.381L67.6658 394.571L68.1813 397.456" stroke="white" stroke-width="0.96789"/>
<path opacity="0.1" d="M234.7 289.435L232.098 272.786M234.7 289.435L228.51 290.264L228.823 292.079L221.567 292.904L221.146 291.409L213.354 292.872M234.7 289.435L242.533 287.986L242.954 289.481L250.21 288.656L249.897 286.842L256.086 286.012M232.098 272.786L229.323 273.095L229.221 271.922L223.566 272.433L223.738 273.927L218.973 274.335L218.763 273.374L213.002 273.672L212.996 275.379L210.542 275.61M232.098 272.786L234.383 271.956L234.389 270.249L240.15 269.952L240.36 270.912L245.125 270.504L244.953 269.01L250.608 268.499L250.71 269.673L253.485 269.363M210.542 275.61L213.354 292.872M210.542 275.61L207.66 275.998L207.345 274.823L201.796 275.576L201.898 276.722L197.095 277.663L196.886 276.596L191.55 277.215L191.759 278.496L188.771 278.751M213.354 292.872L205.029 294.333L205.237 295.72L197.554 296.757L197.239 295.476L191.317 296.2M188.771 278.751L185.784 279.006L185.574 278.045L180.133 278.451L180.127 279.944L175.752 280.46L175.755 279.607L167.218 280.747L167.736 284.696L166.349 284.904L167.802 295.148L169.082 295.153L169.599 299.315L178.031 297.855L178.239 299.349L185.602 298.417L185.394 296.923L191.317 296.2M188.771 278.751L191.317 296.2M256.086 286.012L261.956 284.905L262.165 286.012L269.419 284.905L269.419 283.792L277.268 282.782L276.783 278.93L278.186 278.632L276.823 268.47L275.565 268.679L275.047 264.73L266.723 265.871L266.931 267.152L261.596 267.771L261.494 266.598L256.16 266.897L256.472 268.818L253.485 269.363M256.086 286.012L253.485 269.363" stroke="white" stroke-width="0.96789"/>
<path opacity="0.1" d="M231.363 419.739L233.964 436.388M231.363 419.739L237.552 418.91L237.239 417.096L244.495 416.271L244.916 417.766L252.708 416.303M231.363 419.739L223.529 421.188L223.108 419.694L215.852 420.519L216.165 422.333L209.976 423.162M233.964 436.388L236.739 436.079L236.841 437.253L242.496 436.741L242.324 435.248L247.089 434.839L247.299 435.8L253.06 435.502L253.066 433.796L255.52 433.565M233.964 436.388L231.679 437.219L231.673 438.925L225.912 439.223L225.703 438.262L220.937 438.67L221.109 440.164L215.454 440.676L215.352 439.502L212.578 439.811M255.52 433.565L252.708 416.303M255.52 433.565L258.402 433.177L258.717 434.351L264.266 433.599L264.164 432.452L268.967 431.511L269.177 432.579L274.512 431.959L274.304 430.679L277.291 430.424M252.708 416.303L261.033 414.842L260.825 413.454L268.508 412.417L268.823 413.699L274.746 412.975M277.291 430.424L280.278 430.168L280.488 431.129L285.929 430.724L285.935 429.231L290.31 428.714L290.307 429.567L298.844 428.427L298.326 424.479L299.713 424.271L298.26 414.026L296.98 414.021L296.463 409.859L288.031 411.32L287.823 409.826L280.46 410.757L280.668 412.251L274.746 412.975M277.291 430.424L274.746 412.975M209.976 423.162L204.106 424.269L203.897 423.162L196.643 424.269L196.643 425.383L188.794 426.393L189.279 430.245L187.876 430.543L189.239 440.704L190.497 440.496L191.015 444.444L199.339 443.303L199.131 442.023L204.466 441.403L204.568 442.577L209.902 442.278L209.59 440.357L212.578 439.811M209.976 423.162L212.578 439.811" stroke="white" stroke-width="0.96789"/>
<path opacity="0.1" d="M388.556 396.382L391.222 413.34M388.556 396.382L394.766 395.232L394.528 394.355L402.129 393.289L402.129 394.088L410.28 393.289M388.556 396.382L380.743 397.51L380.322 396.016L373.066 396.841L373.379 398.655L367.189 399.484M391.222 413.34L393.952 413.063L394.208 414.3L399.755 413.34L399.567 411.824L404.332 411.416L404.513 412.122L410.273 411.824L410.28 410.118L412.734 409.887M391.222 413.34L388.556 413.66L388.886 415.247L383.126 415.545L382.916 414.584L378.15 414.992L378.322 416.486L372.668 416.998L372.565 415.824L369.791 416.133M412.734 409.887L410.28 393.289M412.734 409.887L415.753 409.714L415.931 410.673L421.48 409.921L421.378 408.774L426.312 408.281L426.419 409.607L431.859 408.754L431.859 407.154L434.505 406.746M410.28 393.289L416.601 392.01L416.393 390.622L424.077 389.662L424.077 390.942L432.605 389.982M456.497 403.528L453.51 404.061L453.937 405.553L448.391 406.088L448.071 405.021L443.149 405.553L443.143 407.046L437.702 407.451L437.492 406.491L434.505 406.746M456.497 403.528L455.473 390.348L454.193 390.343L453.937 386.783M456.497 403.528L459.163 403.528L459.376 404.594L465.136 404.061L464.923 402.461L469.722 401.715L469.936 402.995L477.666 401.509L477.148 397.56L478.535 397.352L477.082 387.108L475.802 387.103L475.545 383.542L467.376 384.649L467.056 383.156L459.376 384.223L459.59 385.823L453.937 386.783M453.937 386.783L447.964 387.642L447.757 386.148L440.504 387.528L440.711 389.022L432.605 389.982M434.505 406.746L432.605 389.982M367.189 399.484L361.319 400.591L361.11 399.484L353.857 400.591L353.857 401.705L346.007 402.715L346.493 406.567L345.089 406.865L346.452 417.026L347.711 416.818L348.229 420.766L356.553 419.625L356.344 418.345L361.68 417.725L361.782 418.899L367.116 418.6L366.803 416.679L369.791 416.133M367.189 399.484L369.791 416.133" stroke="white" stroke-width="0.96789"/>
<path opacity="0.1" d="M649.547 310.629L641.36 311.678L641.548 313.17L636.535 313.78L636.279 312.549L630.776 313.17L631.075 314.59L628.216 314.951M649.547 310.629L649.227 308.069L584.372 317.78L584.814 320.124M649.547 310.629L649.974 314.533L652.64 314.276L653.707 324.495L652.001 324.815L652.64 328.868L644.321 329.828L644.641 331.214L637.068 332.281L636.855 330.616L631.075 331.765M628.216 314.951L631.075 331.765M628.216 314.951L625.549 315.322L625.549 314.149L619.363 314.951L619.683 316.337L615.204 316.922L614.987 315.855L609.107 316.337L609.444 317.692L606.458 318.188M631.075 331.765L622.765 333.313L622.988 334.698L615.316 335.815L614.987 334.537L609.073 335.323M584.814 320.124L593.339 318.894L593.339 320.122L598.245 319.588L597.925 318.188L603.471 317.455L603.685 318.628L606.458 318.188M584.814 320.124L585.373 324.067L583.988 324.289L585.549 334.518L586.829 334.51L587.389 338.666L595.805 337.117L596.029 338.609L603.381 337.6L603.158 336.109L609.073 335.323M606.458 318.188L609.073 335.323" stroke="white" stroke-width="0.96789"/>
<path opacity="0.1" d="M196.811 341.936L205.046 340.948L204.882 339.442L209.924 338.869L210.161 340.112L215.695 339.533L215.419 338.098L218.294 337.758M196.811 341.936L197.089 344.521L262.349 335.276L261.944 332.909M196.811 341.936L196.448 337.996L193.767 338.232L192.868 327.916L194.586 327.608L194.011 323.515L202.378 322.617L202.08 321.216L209.699 320.204L209.885 321.885L215.706 320.776M218.294 337.758L215.706 320.776M218.294 337.758L220.977 337.406L220.957 338.59L227.18 337.833L226.882 336.432L231.388 335.881L231.587 336.958L237.497 336.522L237.182 335.152L240.188 334.678M215.706 320.776L224.072 319.285L223.872 317.886L231.592 316.824L231.9 318.116L237.85 317.373M261.944 332.909L253.367 334.077L253.388 332.839L248.454 333.335L248.752 334.75L243.173 335.442L242.978 334.257L240.188 334.678M261.944 332.909L261.449 328.927L262.843 328.715L261.448 318.385L260.163 318.382L259.67 314.186L251.197 315.676L250.998 314.17L243.6 315.125L243.799 316.631L237.85 317.373M240.188 334.678L237.85 317.373" stroke="white" stroke-width="0.96789"/>
<path opacity="0.1" d="M267.239 368.343L259.006 369.348L259.173 370.854L254.132 371.437L253.893 370.194L248.36 370.785L248.639 372.22L245.765 372.565M267.239 368.343L266.956 365.759L201.715 375.137L202.124 377.504M267.239 368.343L267.61 372.283L270.291 372.041L271.211 382.355L269.494 382.666L270.076 386.759L261.712 387.673L262.013 389.074L254.396 390.101L254.206 388.421L248.387 389.542M245.765 372.565L248.387 389.542M245.765 372.565L243.083 372.922L243.1 371.739L236.879 372.508L237.18 373.908L232.675 374.47L232.473 373.392L226.564 373.841L226.882 375.21L223.877 375.691M248.387 389.542L240.024 391.05L240.227 392.449L232.51 393.526L232.199 392.235L226.251 392.99M202.124 377.504L210.699 376.319L210.681 377.557L215.613 377.05L215.313 375.636L220.89 374.932L221.087 376.117L223.877 375.691M202.124 377.504L202.628 381.484L201.234 381.7L202.651 392.027L203.935 392.027L204.437 396.222L212.907 394.714L213.11 396.22L220.505 395.25L220.303 393.744L226.251 392.99M223.877 375.691L226.251 392.99" stroke="white" stroke-width="0.96789"/>
<path opacity="0.1" d="M366.128 251.693L369.003 251.348L368.724 249.913L374.256 249.322L374.496 250.565L379.536 249.982L379.37 248.476L387.603 247.471L387.974 251.411L390.654 251.169L391.575 261.483L389.857 261.795L390.44 265.887L382.075 266.802L382.376 268.202L374.759 269.229L374.57 267.549L368.751 268.67M366.128 251.693L368.751 268.67M366.128 251.693L363.446 252.05L363.463 250.867L357.242 251.636L357.543 253.037L353.038 253.598L352.837 252.521L346.928 252.969L347.246 254.338L344.241 254.819M368.751 268.67L360.388 270.178L360.591 271.577L352.873 272.654L352.563 271.364L346.614 272.118M344.241 254.819L341.451 255.245L341.254 254.06L335.676 254.764L335.977 256.178L331.044 256.685L331.062 255.447L322.488 256.632L322.991 260.613L321.598 260.828L323.014 271.155L324.299 271.155L324.801 275.351L333.271 273.843L333.473 275.349L340.868 274.379L340.666 272.873L346.614 272.118M344.241 254.819L346.614 272.118" stroke="white" stroke-width="0.96789"/>
<path opacity="0.1" d="M553.082 228.126L550.165 228.653L549.847 227.598L530.436 230.447L531.921 244.376L540.3 243.426L540.619 245.115L547.301 244.165L547.089 242.477L555.097 241.263M553.082 228.126L555.999 227.598L555.68 226.648L575.781 223.535M553.082 228.126L555.097 241.263M555.097 241.263L563.105 240.05L563.424 241.527L570 240.683L569.788 239.1L577.69 237.834M577.69 237.834L585.592 236.567L585.91 238.361L592.699 237.412L592.381 235.512L600.495 234.351M577.69 237.834L575.781 223.535M575.781 223.535L595.881 220.423L596.093 221.372L598.692 221.003M600.495 234.351L608.609 233.191L609.034 234.985L615.716 233.929L615.504 232.03L623.353 230.553L621.126 217.046L601.185 219.473L601.291 220.634L598.692 221.003M600.495 234.351L598.692 221.003" stroke="white" stroke-width="0.96789"/>
<path opacity="0.1" d="M648.769 230.405L648.279 227.464L649.35 227.16L646.757 207.602L632.657 208.888L633.494 217.327L631.783 217.622L632.644 224.355L634.353 224.167L635.462 232.237M648.769 230.405L649.259 233.346L650.224 233.04L653.073 253.295M648.769 230.405L635.462 232.237M635.462 232.237L636.57 240.306L635.072 240.604L635.828 247.229L637.431 247.039L638.594 255.003M638.594 255.003L639.758 262.967L637.94 263.26L638.8 270.1L640.724 269.808L641.777 277.984L655.295 276.369L654.96 273.75L655.923 273.551L653.073 253.295M638.594 255.003L653.073 253.295" stroke="white" stroke-width="0.96789"/>
<path opacity="0.1" d="M139.408 478.86L93.9174 485.636L100.209 528.707L121.018 525.319L118.115 505.477L112.791 505.961L111.339 496.766L141.344 491.927L139.408 478.86Z" stroke="white" stroke-width="0.96789"/>
<path opacity="0.1" d="M241.037 186.073L195.546 192.849L201.837 235.92L222.647 232.532L219.743 212.69L214.42 213.174L212.968 203.979L242.972 199.14L241.037 186.073Z" stroke="white" stroke-width="0.96789"/>
<path opacity="0.1" d="M727.967 495.307L773.372 487.978L780.429 530.931L759.571 534.008L756.326 514.22L761.545 513.068L760.143 503.865L730.082 508.345L727.967 495.307Z" stroke="white" stroke-width="0.96789"/>
<path opacity="0.1" d="M666.99 355.621L666.5 352.681L667.571 352.376L664.978 332.818L650.879 334.104L651.715 342.544L650.004 342.838L650.865 349.571L652.574 349.383L653.683 357.453M666.99 355.621L667.48 358.562L668.445 358.256L671.294 378.512L656.816 380.219L655.652 372.255L654.049 372.445L653.293 365.821L654.791 365.523L653.683 357.453M666.99 355.621L653.683 357.453" stroke="white" stroke-width="0.96789"/>
<path opacity="0.1" d="M315.46 302.721L316.004 305.649L314.916 305.968L317.855 325.45L332.224 323.959L331.245 315.549L332.986 315.23L332.007 308.523L330.265 308.736L329.013 300.698M315.46 302.721L314.916 299.794L313.936 300.113L310.725 279.939L325.475 278.023L326.781 285.954L328.414 285.741L329.285 292.342L327.761 292.661L329.013 300.698M315.46 302.721L329.013 300.698" stroke="white" stroke-width="0.96789"/>
<path opacity="0.1" d="M159.63 324.015L160.174 326.942L159.086 327.262L162.025 346.743L176.394 345.253L175.414 336.843L177.156 336.523L176.176 329.816L174.434 330.029L173.183 321.992M159.63 324.015L159.086 321.087L158.106 321.406L154.894 301.233L169.645 299.317L170.951 307.248L172.584 307.035L173.455 313.635L171.931 313.954L173.183 321.992M159.63 324.015L173.183 321.992" stroke="white" stroke-width="0.96789"/>
<path opacity="0.1" d="M23.9193 344.34L24.44 347.268L23.3987 347.587L26.2101 367.069L39.9546 365.578L39.0175 357.168L40.6835 356.849L39.7463 350.142L38.0803 350.355L36.8829 342.318M23.9193 344.34L23.3987 341.413L22.4616 341.732L19.3899 321.558L33.4988 319.642L34.7483 327.573L36.3102 327.36L37.1432 333.961L35.6855 334.28L36.8829 342.318M23.9193 344.34L36.8829 342.318" stroke="white" stroke-width="0.96789"/>
<path opacity="0.1" d="M36.5019 425.643L37.0226 428.571L35.9813 428.89L38.7927 448.372L52.5372 446.881L51.6001 438.471L53.2661 438.152L52.329 431.445L50.663 431.658L49.4655 423.62M36.5019 425.643L35.9813 422.715L35.0442 423.035L31.9725 402.861L46.0815 400.945L47.331 408.876L48.8928 408.663L49.7258 415.263L48.2681 415.583L49.4655 423.62M36.5019 425.643L49.4655 423.62" stroke="white" stroke-width="0.96789"/>
<path opacity="0.1" d="M171.245 405.317L171.789 408.245L170.7 408.564L173.639 428.046L188.009 426.556L187.029 418.145L188.771 417.826L187.791 411.119L186.049 411.332L184.797 403.295M171.245 405.317L170.7 402.39L169.72 402.709L166.509 382.536L181.259 380.619L182.566 388.55L184.199 388.337L185.069 394.938L183.545 395.257L184.797 403.295M171.245 405.317L184.797 403.295" stroke="white" stroke-width="0.96789"/>
<path opacity="0.1" d="M328.805 383.056L329.325 385.983L328.284 386.303L331.095 405.784L344.84 404.294L343.903 395.884L345.569 395.565L344.632 388.858L342.966 389.071L341.768 381.033M328.805 383.056L328.284 380.128L327.347 380.448L324.275 360.274L338.384 358.358L339.634 366.289L341.196 366.076L342.029 372.676L340.571 372.996L341.768 381.033M328.805 383.056L341.768 381.033" stroke="white" stroke-width="0.96789"/>
<path opacity="0.1" d="M294.581 304.623L294.06 301.696L295.101 301.376L292.29 281.895L278.545 283.385L279.483 291.795L277.817 292.114L278.754 298.821L280.42 298.608L281.617 306.646M294.581 304.623L295.101 307.551L296.038 307.231L299.11 327.405L285.001 329.321L283.752 321.39L282.19 321.603L281.357 315.003L282.815 314.683L281.617 306.646M294.581 304.623L281.617 306.646" stroke="white" stroke-width="0.96789"/>
<path opacity="0.1" d="M137.577 327.852L137.032 324.925L138.121 324.605L135.182 305.124L120.812 306.614L121.792 315.024L120.05 315.344L121.03 322.05L122.772 321.838L124.024 329.875M137.577 327.852L138.121 330.78L139.101 330.461L142.312 350.634L127.562 352.55L126.255 344.619L124.623 344.832L123.752 338.232L125.276 337.913L124.024 329.875M137.577 327.852L124.024 329.875" stroke="white" stroke-width="0.96789"/>
<path opacity="0.1" d="M150.365 409.155L149.844 406.228L150.886 405.908L148.074 386.427L134.33 387.917L135.267 396.327L133.601 396.646L134.538 403.353L136.204 403.14L137.401 411.178M150.365 409.155L150.886 412.083L151.823 411.763L154.894 431.937L140.786 433.853L139.536 425.922L137.974 426.135L137.141 419.535L138.599 419.215L137.401 411.178M150.365 409.155L137.401 411.178" stroke="white" stroke-width="0.96789"/>
<path opacity="0.1" d="M306.401 385.926L305.904 382.998L306.898 382.679L304.215 363.197L291.095 364.687L291.989 373.098L290.399 373.417L291.294 380.124L292.884 379.911L294.027 387.948M306.401 385.926L306.898 388.853L307.793 388.534L310.725 408.707L297.257 410.624L296.064 402.693L294.574 402.905L293.778 396.305L295.17 395.986L294.027 387.948M306.401 385.926L294.027 387.948" stroke="white" stroke-width="0.96789"/>
<path opacity="0.1" d="M652.347 406.446L655.284 405.93L655.597 406.998L675.132 404.233L673.722 390.145L665.29 391.056L664.98 389.348L658.255 390.268L658.459 391.976L650.399 393.155M652.347 406.446L649.411 406.962L649.726 407.924L629.496 410.952L627.661 396.489L635.614 395.255L635.41 393.654L642.028 392.84L642.339 394.335L650.399 393.155M652.347 406.446L650.399 393.155" stroke="white" stroke-width="0.96789"/>
<path opacity="0.1" d="M696.93 463.401L699.867 462.885L700.18 463.953L719.715 461.188L718.305 447.101L709.873 448.011L709.563 446.303L702.838 447.223L703.041 448.931L694.982 450.111M696.93 463.401L693.994 463.917L694.309 464.879L674.079 467.907L672.244 453.444L680.197 452.211L679.993 450.609L686.611 449.795L686.922 451.29L694.982 450.111M696.93 463.401L694.982 450.111" stroke="white" stroke-width="0.96789"/>
<path opacity="0.1" d="M709.981 411.627L709.964 412.639L712.922 412.266L714.983 425.539L706.935 426.791L707.079 428.312L700.515 429.487L700.238 427.897L692.275 429.066L689.759 414.706L709.981 411.627Z" stroke="white" stroke-width="0.96789"/>
<rect opacity="0.1" x="194.152" y="470.024" width="21.2936" height="21.2936" transform="rotate(-7.34188 194.152 470.024)" stroke="white" stroke-width="0.96789"/>
<rect opacity="0.1" x="157.372" y="221.277" width="21.2936" height="21.2936" transform="rotate(-7.34188 157.372 221.277)" stroke="white" stroke-width="0.96789"/>
<rect opacity="0.1" x="85.7482" y="231.923" width="21.2936" height="21.2936" transform="rotate(-7.34188 85.7482 231.923)" stroke="white" stroke-width="0.96789"/>
<rect opacity="0.1" x="276.423" y="457.442" width="21.2936" height="21.2936" transform="rotate(-7.34188 276.423 457.442)" stroke="white" stroke-width="0.96789"/>
<rect opacity="0.1" x="741.978" y="422.598" width="21.2936" height="21.2936" transform="rotate(-7.34188 741.978 422.598)" stroke="white" stroke-width="0.96789"/>
<path opacity="0.1" d="M792.25 615.417C795.32 616.913 798.768 617.752 802.413 617.752C804.245 617.752 806.027 617.54 807.736 617.139M792.25 615.417C784.514 611.647 779.184 603.708 779.184 594.523C779.184 581.694 789.584 571.294 802.413 571.294C815.242 571.294 825.642 581.694 825.642 594.523C825.642 605.52 818 614.733 807.736 617.139M792.25 615.417L791.977 618.962M807.736 617.139L807.445 620.656M791.977 618.962C795.046 620.458 798.477 621.269 802.121 621.269C803.953 621.269 805.735 621.057 807.445 620.656M791.977 618.962L789.83 646.789L805.317 646.305L807.445 620.656M786.443 611.461L786.051 617.332L784.507 640.498L779.667 634.206L781.119 612.811C776.896 607.899 774.344 601.509 774.344 594.523C774.344 579.021 786.911 566.454 802.413 566.454C817.915 566.454 830.482 579.021 830.482 594.523C830.482 603.879 825.904 612.165 818.867 617.266L816.931 646.305H812.092L813.982 620.104L814.511 614.365" stroke="white" stroke-width="0.96789"/>
<circle opacity="0.1" cx="328.147" cy="189.945" r="42.5872" stroke="white" stroke-width="0.96789"/>
<circle opacity="0.1" cx="328.147" cy="189.945" r="30.9725" stroke="white" stroke-width="0.96789"/>
<circle opacity="0.1" cx="328.147" cy="189.945" r="38.7156" stroke="white" stroke-width="0.96789"/>
<g opacity="0.1">
<path d="M308.953 213.273L329.805 210.712L340.231 209.432L345.444 208.792L346.747 208.632L304.312 175.478L304.472 176.782L305.112 181.995L306.392 192.421L308.953 213.273Z" stroke="white" stroke-width="0.96789"/>
<path d="M348.096 187.3L345.536 166.448L324.684 169.008L314.258 170.288L309.045 170.929L307.742 171.089L350.177 204.242L350.017 202.939L349.376 197.726L348.096 187.3Z" stroke="white" stroke-width="0.96789"/>
</g>
<path opacity="0.1" d="M357.015 443.77L356.945 443.186L374.937 441.029L375.007 441.614L375.064 442.094L375.545 442.037L381.903 441.274L383.703 456.289L377.345 457.052L376.864 457.109L376.922 457.59L376.992 458.174L359 460.331L358.93 459.746L358.873 459.266L358.392 459.324L352.034 460.086L350.234 445.071L356.592 444.309L357.073 444.251L357.015 443.77Z" stroke="white" stroke-width="0.96789"/>
<path opacity="0.3" d="M409.692 452.194C408.793 452.396 407.965 452.261 407.208 451.788C406.457 451.306 405.977 450.6 405.768 449.671C405.559 448.741 405.692 447.902 406.167 447.153C406.647 446.394 407.341 445.913 408.247 445.709C408.957 445.55 409.629 445.609 410.263 445.888C410.896 446.158 411.382 446.609 411.721 447.239L411.087 447.381C410.81 446.927 410.427 446.601 409.938 446.401C409.447 446.194 408.926 446.152 408.375 446.276C407.634 446.442 407.071 446.834 406.687 447.453C406.302 448.071 406.196 448.765 406.369 449.536C406.54 450.299 406.933 450.881 407.547 451.283C408.159 451.677 408.832 451.792 409.564 451.627C410.116 451.504 410.57 451.247 410.927 450.857C411.29 450.458 411.499 449.995 411.555 449.466L412.19 449.324C412.152 450.039 411.902 450.658 411.44 451.182C410.985 451.697 410.402 452.035 409.692 452.194ZM416.968 443.882L417.095 444.449L414.828 444.958L416.101 450.624L415.5 450.759L414.228 445.093L411.95 445.604L411.823 445.037L414.701 444.391L416.968 443.882ZM418.75 444.327C419.23 443.568 419.916 443.089 420.808 442.889C421.699 442.689 422.524 442.829 423.283 443.309C424.04 443.782 424.523 444.483 424.731 445.412C424.938 446.334 424.802 447.174 424.321 447.933C423.849 448.69 423.163 449.169 422.264 449.371C421.365 449.573 420.536 449.434 419.777 448.953C419.026 448.471 418.547 447.769 418.34 446.847C418.133 445.926 418.27 445.086 418.75 444.327ZM422.944 443.814C422.332 443.419 421.663 443.304 420.938 443.467C420.212 443.63 419.657 444.02 419.272 444.638C418.886 445.249 418.779 445.939 418.952 446.71C419.123 447.473 419.515 448.052 420.127 448.446C420.74 448.84 421.408 448.956 422.134 448.793C422.859 448.63 423.414 448.24 423.799 447.621C424.184 447.003 424.291 446.313 424.12 445.55C423.946 444.779 423.555 444.2 422.944 443.814ZM427.406 441.538L430.353 440.876L431.753 447.109L431.152 447.244L430.597 444.773L428.603 445.221L427.129 448.147L426.37 448.318L427.909 445.365C427.298 445.439 426.804 445.359 426.427 445.127C426.049 444.894 425.803 444.521 425.687 444.007C425.547 443.38 425.611 442.854 425.88 442.428C426.157 442.001 426.666 441.704 427.406 441.538ZM428.216 444.772L430.483 444.263L429.877 441.566L427.554 442.088C426.965 442.22 426.582 442.441 426.405 442.751C426.227 443.053 426.188 443.426 426.288 443.872C426.478 444.718 427.121 445.018 428.216 444.772ZM437.163 439.347L437.764 439.212L439.164 445.445L438.563 445.58L437.909 442.667L433.557 443.644L434.211 446.557L433.611 446.692L432.211 440.459L432.812 440.324L433.43 443.078L437.782 442.101L437.163 439.347ZM446.17 443.871L445.343 444.057L440.924 441.764L441.626 444.892L441.025 445.027L439.626 438.794L440.226 438.659L440.865 441.503L443.615 437.898L444.431 437.715L441.568 441.453L446.17 443.871ZM450.772 436.291L451.373 436.156L452.772 442.389L452.172 442.524L451.838 441.039C451.699 441.586 451.432 442.059 451.038 442.457C450.649 442.846 450.167 443.105 449.593 443.234C448.724 443.429 447.945 443.282 447.256 442.794C446.568 442.306 446.118 441.594 445.907 440.657C445.697 439.72 445.799 438.884 446.213 438.148C446.627 437.412 447.265 436.947 448.126 436.754C448.708 436.623 449.258 436.654 449.778 436.847C450.303 437.031 450.747 437.344 451.108 437.787L450.772 436.291ZM449.543 442.638C450.268 442.475 450.816 442.09 451.188 441.483C451.558 440.868 451.656 440.175 451.483 439.405C451.31 438.634 450.926 438.054 450.33 437.664C449.733 437.266 449.072 437.149 448.347 437.312C447.629 437.473 447.1 437.857 446.761 438.465C446.419 439.066 446.335 439.751 446.508 440.522C446.681 441.293 447.051 441.88 447.618 442.284C448.183 442.681 448.825 442.799 449.543 442.638Z" fill="white"/>
<path opacity="0.3" d="M288.417 227.326L288.508 227.911L285.776 228.335L286.932 235.784L286.323 235.878L285.168 228.429L282.436 228.853L282.345 228.268L288.417 227.326ZM289.525 229.752C290.055 229.027 290.771 228.595 291.674 228.455C292.577 228.315 293.391 228.51 294.116 229.04C294.839 229.562 295.274 230.294 295.42 231.235C295.565 232.169 295.372 232.998 294.842 233.722C294.32 234.446 293.603 234.878 292.693 235.02C291.782 235.161 290.964 234.966 290.24 234.436C289.523 233.905 289.092 233.173 288.947 232.239C288.802 231.306 288.995 230.477 289.525 229.752ZM293.744 229.521C293.159 229.086 292.5 228.926 291.765 229.04C291.03 229.154 290.45 229.506 290.025 230.097C289.598 230.681 289.445 231.363 289.567 232.143C289.686 232.916 290.039 233.519 290.623 233.954C291.208 234.388 291.867 234.548 292.602 234.434C293.336 234.32 293.916 233.968 294.342 233.377C294.767 232.786 294.92 232.104 294.8 231.331C294.679 230.551 294.327 229.947 293.744 229.521ZM299.798 227.195C300.67 227.059 301.434 227.258 302.088 227.791C302.743 228.324 303.144 229.065 303.291 230.014C303.438 230.963 303.281 231.791 302.818 232.497C302.356 233.203 301.689 233.624 300.816 233.76C300.227 233.851 299.677 233.787 299.165 233.569C298.659 233.342 298.241 232.995 297.91 232.53L298.591 236.914L297.982 237.008L296.558 227.826L297.166 227.732L297.401 229.247C297.575 228.703 297.87 228.25 298.284 227.888C298.704 227.517 299.209 227.286 299.798 227.195ZM300.634 233.188C301.361 233.076 301.914 232.731 302.295 232.155C302.675 231.571 302.804 230.889 302.683 230.109C302.561 229.32 302.231 228.709 301.693 228.276C301.156 227.842 300.524 227.681 299.797 227.794C299.062 227.908 298.49 228.259 298.08 228.848C297.669 229.429 297.523 230.11 297.644 230.89C297.765 231.671 298.111 232.279 298.68 232.716C299.248 233.145 299.899 233.302 300.634 233.188ZM308.409 225.988L308.498 226.562L305.077 227.093L305.968 232.831L305.359 232.926L304.38 226.613L308.409 225.988ZM310.159 226.551C310.69 225.826 311.406 225.394 312.309 225.254C313.212 225.114 314.026 225.309 314.75 225.839C315.474 226.361 315.909 227.093 316.055 228.034C316.2 228.968 316.007 229.797 315.477 230.522C314.954 231.245 314.238 231.678 313.327 231.819C312.417 231.96 311.599 231.766 310.874 231.236C310.157 230.704 309.726 229.972 309.581 229.038C309.437 228.105 309.629 227.276 310.159 226.551ZM314.378 226.32C313.794 225.886 313.134 225.725 312.4 225.839C311.665 225.953 311.085 226.306 310.66 226.897C310.233 227.48 310.08 228.162 310.201 228.942C310.321 229.715 310.673 230.319 311.258 230.753C311.842 231.187 312.502 231.348 313.236 231.234C313.971 231.12 314.551 230.767 314.977 230.176C315.402 229.585 315.555 228.903 315.435 228.131C315.314 227.35 314.962 226.747 314.378 226.32ZM321.499 227.002C321.944 227.043 322.295 227.188 322.554 227.438C322.811 227.68 322.968 227.989 323.026 228.363C323.109 228.899 322.997 229.359 322.688 229.744C322.386 230.12 321.86 230.366 321.11 230.483L318.114 230.947L317.135 224.635L319.844 224.214C321.29 223.99 322.096 224.414 322.262 225.485C322.36 226.112 322.105 226.618 321.499 227.002ZM321.667 225.659C321.608 225.285 321.445 225.012 321.176 224.842C320.914 224.671 320.489 224.632 319.899 224.723L317.822 225.045L318.178 227.341L320.21 227.026C320.776 226.938 321.173 226.77 321.401 226.523C321.629 226.276 321.718 225.989 321.667 225.659ZM321.02 229.979C322.076 229.815 322.537 229.297 322.401 228.425C322.345 228.066 322.174 227.794 321.887 227.612C321.599 227.421 321.168 227.371 320.594 227.46L318.253 227.823L318.644 230.348L321.02 229.979ZM326.972 225.377C328.426 225.152 329.257 225.708 329.465 227.047C329.566 227.698 329.461 228.239 329.152 228.671C328.842 229.095 328.312 229.365 327.562 229.482L324.739 229.92L323.76 223.607L324.368 223.513L324.711 225.728L326.972 225.377ZM329.888 222.656L330.497 222.562L331.476 228.875L330.868 228.969L329.888 222.656ZM327.471 228.896C328.55 228.729 329.012 228.144 328.856 227.142C328.785 226.683 328.611 226.345 328.335 226.13C328.065 225.905 327.632 225.839 327.035 225.932L324.797 226.279L325.256 229.24L327.471 228.896ZM334.947 220.567C334.427 220.648 333.971 220.562 333.579 220.309C333.194 220.048 332.961 219.661 332.882 219.148L332.859 218.999L333.387 218.917L333.406 219.043C333.464 219.418 333.625 219.699 333.889 219.885C334.16 220.062 334.486 220.121 334.869 220.062C335.251 220.003 335.541 219.848 335.737 219.598C335.94 219.34 336.012 219.023 335.954 218.648L335.935 218.522L336.463 218.44L336.486 218.589C336.565 219.102 336.457 219.541 336.162 219.909C335.865 220.268 335.46 220.488 334.947 220.567ZM337.107 221.537L337.911 221.412L338.89 227.725L338.282 227.819L337.749 224.387L337.442 222.178L334.161 228.458L333.358 228.583L332.379 222.27L332.987 222.176L333.519 225.608L333.827 227.817L337.107 221.537ZM342.148 226.867C342.192 227.048 342.044 227.862 341.704 229.31L341.222 229.385L341.634 227.417C341.365 227.403 341.211 227.271 341.172 227.018C341.15 226.873 341.177 226.747 341.255 226.641C341.34 226.534 341.451 226.469 341.589 226.448C341.712 226.429 341.829 226.454 341.942 226.523C342.053 226.584 342.122 226.698 342.148 226.867ZM349.812 219.625C350.668 219.492 351.421 219.669 352.068 220.156C352.724 220.642 353.122 221.345 353.265 222.263C353.416 223.234 353.232 224.074 352.715 224.781C352.204 225.479 351.49 225.9 350.572 226.042C349.654 226.184 348.844 225.993 348.144 225.467C347.449 224.932 347.015 224.125 346.84 223.048C346.694 222.107 346.646 221.295 346.697 220.613C346.756 219.93 346.895 219.36 347.114 218.903C347.332 218.439 347.663 218.05 348.108 217.738C348.561 217.425 349.061 217.183 349.606 217.012C350.159 216.84 350.841 216.691 351.652 216.566L351.743 217.151C351.039 217.26 350.443 217.384 349.956 217.522C349.475 217.659 349.042 217.844 348.655 218.077C348.274 218.3 347.98 218.577 347.773 218.907C347.573 219.236 347.431 219.638 347.348 220.113C347.264 220.58 347.249 221.139 347.303 221.789C347.455 221.201 347.76 220.719 348.218 220.342C348.676 219.958 349.207 219.719 349.812 219.625ZM348.511 225.033C349.07 225.456 349.721 225.61 350.463 225.495C351.206 225.379 351.787 225.035 352.207 224.46C352.635 223.884 352.786 223.191 352.66 222.38C352.541 221.615 352.212 221.031 351.672 220.629C351.13 220.22 350.5 220.071 349.78 220.182C349.054 220.295 348.46 220.634 347.999 221.199C347.537 221.756 347.365 222.418 347.484 223.183C347.61 223.994 347.952 224.611 348.511 225.033ZM359.087 218.127L359.891 218.003L360.87 224.315L360.261 224.41L359.729 220.978L359.422 218.769L356.141 225.049L355.338 225.173L354.359 218.861L354.967 218.766L355.499 222.198L355.807 224.407L359.087 218.127ZM366.096 220.084C366.512 220.137 366.834 220.295 367.063 220.557C367.291 220.82 367.434 221.134 367.491 221.502C367.577 222.053 367.421 222.539 367.024 222.961C366.634 223.374 366.037 223.643 365.233 223.768C363.496 224.037 362.384 223.485 361.897 222.111L362.505 222.017C362.94 223.054 363.816 223.47 365.132 223.266C365.775 223.167 366.241 222.961 366.529 222.65C366.824 222.33 366.94 221.963 366.876 221.55C366.822 221.206 366.666 220.928 366.406 220.718C366.146 220.508 365.733 220.446 365.167 220.534L363.789 220.748L363.713 220.254L364.769 220.09C365.855 219.922 366.342 219.474 366.229 218.747C366.171 218.372 365.97 218.086 365.626 217.889C365.289 217.683 364.806 217.628 364.179 217.726C363.681 217.803 363.264 217.969 362.928 218.225C362.59 218.473 362.389 218.818 362.324 219.259L361.705 219.355C361.757 218.783 361.989 218.312 362.402 217.942C362.823 217.571 363.396 217.33 364.123 217.217C364.904 217.096 365.53 217.171 366.004 217.442C366.484 217.713 366.764 218.104 366.844 218.617C366.942 219.252 366.693 219.741 366.096 220.084ZM373.228 215.934L373.836 215.84L374.815 222.152L374.207 222.247L373.749 219.297L369.342 219.981L369.8 222.93L369.191 223.025L368.212 216.712L368.82 216.618L369.253 219.407L373.66 218.723L373.228 215.934ZM378.595 214.972C379.559 214.823 380.374 215.025 381.04 215.58C381.705 216.135 382.111 216.93 382.256 217.966L376.563 218.849C376.713 219.617 377.065 220.189 377.617 220.566C378.175 220.934 378.826 221.06 379.568 220.945C380.081 220.865 380.519 220.688 380.884 220.412C381.249 220.136 381.503 219.779 381.646 219.341L382.278 219.243C382.118 219.879 381.802 220.395 381.33 220.789C380.859 221.183 380.298 221.431 379.647 221.532C378.706 221.678 377.886 221.496 377.188 220.985C376.49 220.474 376.066 219.737 375.917 218.773C375.767 217.809 375.943 216.97 376.443 216.258C376.952 215.544 377.669 215.116 378.595 214.972ZM378.684 215.546C377.995 215.653 377.451 215.961 377.052 216.469C376.652 216.97 376.463 217.571 376.485 218.273L381.524 217.492C381.341 216.815 380.99 216.297 380.472 215.939C379.961 215.571 379.365 215.441 378.684 215.546ZM387.168 220.365C386.258 220.507 385.441 220.316 384.717 219.794C384 219.262 383.569 218.526 383.423 217.585C383.277 216.644 383.465 215.815 383.989 215.099C384.519 214.375 385.243 213.941 386.162 213.799C386.881 213.687 387.547 213.791 388.161 214.111C388.774 214.424 389.229 214.906 389.525 215.557L388.883 215.657C388.637 215.185 388.277 214.834 387.802 214.602C387.326 214.362 386.809 214.286 386.251 214.372C385.501 214.489 384.913 214.842 384.488 215.433C384.062 216.024 383.91 216.71 384.031 217.491C384.151 218.263 384.504 218.871 385.089 219.313C385.674 219.747 386.337 219.907 387.079 219.792C387.638 219.705 388.108 219.479 388.491 219.114C388.879 218.741 389.119 218.292 389.21 217.769L389.853 217.669C389.767 218.379 389.477 218.981 388.981 219.473C388.492 219.956 387.888 220.254 387.168 220.365ZM291.31 246.661L292.458 246.483L292.816 248.79L292.207 248.884L291.939 247.151L290.791 247.329L286.177 248.045L285.947 248.08L284.968 241.768L285.577 241.673L286.467 247.412L290.702 246.755L289.812 241.016L290.42 240.922L291.31 246.661ZM295.418 240.017C296.382 239.868 297.197 240.071 297.863 240.625C298.529 241.18 298.934 241.975 299.079 243.011L293.386 243.894C293.537 244.662 293.888 245.234 294.44 245.611C294.999 245.979 295.649 246.105 296.391 245.99C296.904 245.911 297.343 245.733 297.707 245.457C298.072 245.181 298.326 244.824 298.47 244.386L299.101 244.289C298.941 244.925 298.625 245.44 298.154 245.834C297.682 246.229 297.121 246.476 296.471 246.577C295.53 246.723 294.71 246.541 294.012 246.03C293.313 245.519 292.889 244.782 292.74 243.818C292.59 242.854 292.766 242.015 293.267 241.303C293.775 240.59 294.492 240.161 295.418 240.017ZM295.507 240.591C294.818 240.698 294.274 241.006 293.875 241.514C293.475 242.015 293.286 242.616 293.309 243.318L298.347 242.537C298.164 241.86 297.814 241.342 297.296 240.984C296.784 240.616 296.188 240.486 295.507 240.591ZM305.07 238.649L305.679 238.555L306.658 244.868L306.05 244.962L305.592 242.012L301.185 242.696L301.642 245.646L301.034 245.74L300.055 239.427L300.663 239.333L301.096 242.122L305.503 241.438L305.07 238.649ZM312.155 237.551L312.244 238.124L309.949 238.48L310.839 244.219L310.231 244.314L309.341 238.575L307.034 238.933L306.945 238.359L309.86 237.907L312.155 237.551ZM316.713 236.714C317.585 236.579 318.348 236.778 319.003 237.311C319.658 237.844 320.059 238.585 320.206 239.534C320.353 240.483 320.196 241.31 319.733 242.017C319.271 242.723 318.603 243.144 317.731 243.279C317.142 243.371 316.591 243.307 316.079 243.089C315.574 242.862 315.156 242.515 314.825 242.049L315.505 246.434L314.897 246.528L313.473 237.346L314.081 237.252L314.316 238.767C314.49 238.223 314.784 237.77 315.198 237.408C315.619 237.037 316.124 236.806 316.713 236.714ZM317.548 242.708C318.275 242.596 318.829 242.251 319.21 241.675C319.589 241.091 319.719 240.409 319.598 239.628C319.475 238.84 319.146 238.229 318.608 237.796C318.071 237.362 317.439 237.201 316.712 237.314C315.977 237.428 315.405 237.779 314.995 238.368C314.583 238.949 314.438 239.629 314.559 240.41C314.68 241.19 315.025 241.799 315.595 242.236C316.163 242.665 316.814 242.822 317.548 242.708ZM324.508 237.903C325.962 237.677 326.792 238.234 327 239.573C327.101 240.224 326.997 240.765 326.688 241.197C326.377 241.621 325.847 241.891 325.097 242.008L322.274 242.445L321.295 236.133L321.903 236.039L322.247 238.254L324.508 237.903ZM327.424 235.182L328.032 235.088L329.011 241.4L328.403 241.495L327.424 235.182ZM325.007 241.422C326.086 241.255 326.547 240.67 326.392 239.668C326.321 239.209 326.147 238.871 325.87 238.655C325.6 238.431 325.167 238.365 324.57 238.457L322.332 238.805L322.791 241.766L325.007 241.422ZM332.263 240.543C332.307 240.725 332.159 241.539 331.819 242.987L331.337 243.061L331.749 241.093C331.48 241.08 331.327 240.947 331.287 240.695C331.265 240.549 331.292 240.424 331.37 240.318C331.455 240.21 331.567 240.146 331.704 240.125C331.827 240.106 331.944 240.131 332.057 240.199C332.168 240.26 332.237 240.375 332.263 240.543ZM337.565 234.444C338.095 233.719 338.812 233.287 339.715 233.146C340.618 233.006 341.431 233.201 342.156 233.732C342.88 234.254 343.315 234.986 343.461 235.927C343.605 236.86 343.413 237.69 342.883 238.414C342.36 239.138 341.644 239.57 340.733 239.712C339.822 239.853 339.005 239.658 338.28 239.128C337.563 238.597 337.132 237.865 336.987 236.931C336.842 235.998 337.035 235.168 337.565 234.444ZM341.784 234.212C341.2 233.778 340.54 233.618 339.806 233.732C339.071 233.846 338.491 234.198 338.065 234.789C337.639 235.373 337.486 236.054 337.607 236.835C337.727 237.608 338.079 238.211 338.664 238.646C339.248 239.08 339.908 239.24 340.642 239.126C341.377 239.012 341.957 238.66 342.382 238.069C342.808 237.478 342.961 236.796 342.841 236.023C342.72 235.243 342.367 234.639 341.784 234.212ZM348.852 231.858L348.941 232.432L346.645 232.788L347.536 238.527L346.927 238.621L346.037 232.883L343.73 233.241L343.641 232.667L346.556 232.215L348.852 231.858ZM352.704 231.132C353.668 230.982 354.483 231.185 355.149 231.74C355.815 232.295 356.221 233.09 356.365 234.125L350.673 235.008C350.823 235.776 351.174 236.349 351.727 236.725C352.285 237.093 352.935 237.219 353.678 237.104C354.19 237.025 354.629 236.847 354.994 236.571C355.358 236.295 355.612 235.938 355.756 235.501L356.387 235.403C356.227 236.039 355.912 236.554 355.44 236.948C354.968 237.343 354.407 237.591 353.757 237.691C352.816 237.837 351.996 237.655 351.298 237.144C350.6 236.634 350.176 235.896 350.026 234.932C349.877 233.968 350.052 233.13 350.553 232.417C351.061 231.704 351.778 231.275 352.704 231.132ZM352.793 231.706C352.105 231.812 351.561 232.12 351.162 232.629C350.761 233.129 350.572 233.731 350.595 234.432L355.634 233.651C355.45 232.974 355.1 232.457 354.582 232.098C354.07 231.731 353.474 231.6 352.793 231.706ZM358.61 230.345L362.719 229.707L363.698 236.02L363.09 236.114L362.2 230.376L359.216 230.839L359.199 234.215C359.192 235.179 359.081 235.878 358.866 236.311C358.65 236.737 358.304 236.986 357.83 237.06C357.723 237.076 357.592 237.089 357.436 237.097L357.349 236.535C357.372 236.531 357.419 236.528 357.489 236.525C357.557 236.514 357.607 236.507 357.638 236.502C357.99 236.447 358.236 236.264 358.375 235.952C358.515 235.641 358.586 235.085 358.587 234.286L358.61 230.345ZM367.817 231.185C369.271 230.96 370.102 231.516 370.309 232.855C370.41 233.506 370.306 234.047 369.997 234.479C369.694 234.902 369.168 235.172 368.418 235.288L365.583 235.728L364.604 229.415L365.212 229.321L365.556 231.536L367.817 231.185ZM368.316 234.704C369.395 234.537 369.857 233.952 369.701 232.95C369.63 232.491 369.46 232.153 369.191 231.936C368.921 231.711 368.488 231.645 367.891 231.738L365.642 232.087L366.101 235.048L368.316 234.704Z" fill="white"/>
<path opacity="0.3" d="M21.7683 286.564C20.8556 286.691 20.0417 286.487 19.3265 285.953C18.6179 285.411 18.1981 284.668 18.067 283.724C17.936 282.781 18.1379 281.955 18.6728 281.248C19.2143 280.532 19.9453 280.11 20.8656 279.982C21.5865 279.882 22.2513 279.996 22.86 280.326C23.4676 280.648 23.9147 281.137 24.2013 281.793L23.557 281.883C23.319 281.408 22.9645 281.05 22.4935 280.811C22.0214 280.564 21.5054 280.479 20.9455 280.557C20.1939 280.661 19.6007 281.006 19.1659 281.59C18.7311 282.174 18.5681 282.857 18.6767 283.64C18.7844 284.414 19.1275 285.027 19.7061 285.478C20.2837 285.922 20.9445 286.092 21.6884 285.989C22.2483 285.911 22.7222 285.692 23.1101 285.334C23.5046 284.966 23.7516 284.521 23.8511 283.999L24.4953 283.91C24.3984 284.619 24.0983 285.216 23.5949 285.7C23.0981 286.176 22.4892 286.464 21.7683 286.564ZM29.7072 278.882L29.7871 279.458L27.4862 279.777L28.2854 285.529L27.6756 285.614L26.8765 279.862L24.5642 280.183L24.4843 279.608L27.4063 279.202L29.7072 278.882ZM31.4468 279.473C31.9883 278.757 32.7116 278.336 33.6166 278.21C34.5216 278.085 35.3322 278.292 36.0485 278.834C36.7637 279.368 37.1868 280.106 37.3178 281.05C37.4478 281.985 37.2421 282.811 36.7005 283.528C36.1667 284.243 35.4434 284.664 34.5308 284.791C33.6181 284.917 32.8036 284.71 32.0874 284.169C31.3788 283.626 30.9595 282.887 30.8295 281.951C30.6995 281.015 30.9053 280.19 31.4468 279.473ZM35.6688 279.309C35.0913 278.865 34.4343 278.695 33.6981 278.797C32.9618 278.899 32.3763 279.242 31.9415 279.827C31.5056 280.403 31.342 281.083 31.4507 281.865C31.5583 282.639 31.9009 283.249 32.4785 283.692C33.0561 284.136 33.713 284.306 34.4493 284.204C35.1855 284.102 35.771 283.758 36.2058 283.174C36.6406 282.59 36.8042 281.911 36.6966 281.136C36.5879 280.354 36.2453 279.745 35.6688 279.309ZM40.3043 277.41L43.2954 276.995L44.1745 283.322L43.5647 283.407L43.2163 280.899L41.1916 281.18L39.4807 283.974L38.71 284.081L40.4882 281.266C39.8738 281.289 39.3881 281.169 39.031 280.906C38.6739 280.642 38.4592 280.25 38.3867 279.729C38.2983 279.092 38.406 278.573 38.7097 278.171C39.0212 277.768 39.5527 277.515 40.3043 277.41ZM40.8435 280.701L43.1444 280.381L42.764 277.643L40.4056 277.971C39.8074 278.054 39.4076 278.242 39.206 278.536C39.0034 278.822 38.9336 279.191 38.9964 279.644C39.1158 280.503 39.7315 280.855 40.8435 280.701ZM50.209 276.034L50.8187 275.949L51.6977 282.277L51.088 282.361L50.6773 279.405L46.2597 280.019L46.6704 282.975L46.0607 283.06L45.1816 276.733L45.7914 276.648L46.1797 279.443L50.5974 278.83L50.209 276.034ZM58.8107 281.288L57.9709 281.405L53.7564 278.754L54.1976 281.929L53.5878 282.014L52.7088 275.687L53.3185 275.602L53.7197 278.49L56.7583 275.124L57.5866 275.009L54.4243 278.497L58.8107 281.288ZM64.0238 274.115L64.6335 274.03L65.5126 280.357L64.9028 280.442L64.6935 278.935C64.5096 279.469 64.2046 279.918 63.7783 280.282C63.3586 280.637 62.8573 280.855 62.2745 280.936C61.3925 281.059 60.6284 280.848 59.9822 280.305C59.336 279.761 58.9469 279.014 58.8148 278.063C58.6826 277.112 58.8534 276.287 59.3269 275.588C59.8005 274.889 60.4744 274.479 61.3487 274.357C61.9393 274.275 62.4854 274.352 62.9872 274.587C63.4955 274.814 63.9114 275.162 64.2348 275.633L64.0238 274.115ZM62.2735 280.338C63.0097 280.236 63.5881 279.898 64.0087 279.323C64.4281 278.741 64.5835 278.059 64.4748 277.277C64.3661 276.495 64.0312 275.884 63.47 275.446C62.9078 275.001 62.2586 274.829 61.5223 274.931C60.7937 275.033 60.235 275.372 59.8462 275.95C59.4564 276.52 59.3158 277.196 59.4245 277.978C59.5332 278.761 59.8533 279.377 60.3848 279.827C60.9153 280.269 61.5449 280.44 62.2735 280.338Z" fill="white"/>
<path opacity="0.3" d="M69.1923 532.851L69.7902 532.704L71.3102 538.909L70.7123 539.055L67.0234 539.959L63.5826 540.802L63.3457 540.86L61.8257 534.655L62.4236 534.509L63.8054 540.149L66.8852 539.395L65.5034 533.754L66.1013 533.608L67.4831 539.248L70.5741 538.491L69.1923 532.851ZM78.2832 537.201L77.4597 537.402L72.9967 535.195L73.7595 538.309L73.1616 538.455L71.6416 532.251L72.2395 532.104L72.9332 534.936L75.6126 531.278L76.4248 531.079L73.6349 534.871L78.2832 537.201ZM78.3194 531.464C78.7851 530.696 79.4616 530.203 80.349 529.986C81.2365 529.769 82.0641 529.893 82.8319 530.358C83.5978 530.816 84.0941 531.508 84.3207 532.433C84.5455 533.351 84.4251 534.193 83.9594 534.961C83.5013 535.727 82.8248 536.22 81.9298 536.439C81.0349 536.658 80.2035 536.535 79.4357 536.069C78.6755 535.602 78.1829 534.909 77.9582 533.992C77.7334 533.074 77.8538 532.232 78.3194 531.464ZM82.5027 530.869C81.8829 530.487 81.212 530.384 80.49 530.561C79.768 530.738 79.2205 531.139 78.8476 531.765C78.4728 532.383 78.3794 533.075 78.5673 533.843C78.7534 534.602 79.1564 535.173 79.7762 535.555C80.396 535.938 81.0669 536.04 81.7889 535.863C82.5109 535.687 83.0583 535.285 83.4313 534.66C83.8042 534.034 83.8976 533.342 83.7115 532.582C83.5236 531.815 83.1207 531.244 82.5027 530.869ZM86.1533 528.696L90.1919 527.706L91.7119 533.911L91.114 534.057L89.7322 528.417L86.7991 529.135L87.0733 532.5C87.1495 533.462 87.0992 534.168 86.9224 534.618C86.7438 535.06 86.4214 535.338 85.9551 535.453C85.8498 535.478 85.7201 535.502 85.566 535.524L85.4306 534.971C85.4531 534.966 85.4992 534.959 85.5687 534.949C85.6364 534.933 85.6853 534.921 85.7154 534.914C86.0613 534.829 86.2905 534.625 86.4028 534.303C86.5151 533.98 86.5375 533.421 86.4699 532.624L86.1533 528.696ZM97.2903 525.967L97.8882 525.821L99.4081 532.025L98.8102 532.172L98.4482 530.694C98.3198 531.244 98.0621 531.721 97.6752 532.127C97.294 532.523 96.8176 532.792 96.246 532.932C95.3811 533.144 94.5995 533.012 93.9013 532.537C93.203 532.063 92.7397 531.359 92.5112 530.427C92.2828 529.494 92.3684 528.656 92.7682 527.912C93.168 527.169 93.7966 526.692 94.6539 526.482C95.233 526.34 95.7841 526.36 96.3072 526.543C96.836 526.716 97.2853 527.021 97.6551 527.456L97.2903 525.967ZM96.184 532.337C96.906 532.16 97.4469 531.765 97.8066 531.15C98.1645 530.528 98.2495 529.834 98.0615 529.067C97.8736 528.3 97.4782 527.727 96.8753 527.349C96.2705 526.963 95.6071 526.858 94.8851 527.035C94.1706 527.21 93.6495 527.605 93.3217 528.219C92.9921 528.826 92.9212 529.513 93.1091 530.28C93.2971 531.047 93.6784 531.627 94.253 532.021C94.8259 532.407 95.4695 532.512 96.184 532.337Z" fill="white"/>
<path opacity="0.3" d="M724.307 555.534L724.905 555.387L726.428 561.591L725.83 561.738L722.142 562.644L718.702 563.489L718.465 563.547L716.941 557.343L717.539 557.196L718.924 562.836L722.004 562.08L720.618 556.44L721.216 556.293L722.601 561.933L725.692 561.174L724.307 555.534ZM733.4 559.878L732.577 560.081L728.113 557.876L728.877 560.989L728.279 561.136L726.756 554.932L727.354 554.786L728.049 557.617L730.726 553.957L731.538 553.758L728.751 557.552L733.4 559.878ZM733.433 554.141C733.898 553.373 734.574 552.88 735.462 552.663C736.349 552.445 737.177 552.568 737.945 553.033C738.711 553.491 739.208 554.182 739.435 555.107C739.66 556.025 739.54 556.867 739.075 557.635C738.618 558.402 737.941 558.895 737.046 559.114C736.152 559.334 735.32 559.211 734.552 558.746C733.792 558.279 733.299 557.587 733.073 556.67C732.848 555.752 732.968 554.91 733.433 554.141ZM737.616 553.545C736.996 553.163 736.325 553.06 735.603 553.238C734.881 553.415 734.334 553.817 733.961 554.442C733.587 555.06 733.494 555.753 733.682 556.52C733.869 557.28 734.272 557.85 734.892 558.232C735.512 558.614 736.183 558.716 736.905 558.539C737.627 558.362 738.174 557.96 738.547 557.335C738.919 556.709 739.012 556.016 738.826 555.257C738.637 554.49 738.234 553.919 737.616 553.545ZM741.265 551.369L745.303 550.377L746.827 556.581L746.229 556.727L744.844 551.088L741.911 551.808L742.188 555.173C742.264 556.134 742.214 556.84 742.038 557.29C741.86 557.733 741.537 558.011 741.071 558.126C740.966 558.152 740.836 558.176 740.682 558.197L740.546 557.645C740.569 557.639 740.615 557.632 740.684 557.623C740.752 557.606 740.801 557.594 740.831 557.587C741.177 557.502 741.406 557.298 741.518 556.976C741.63 556.653 741.652 556.093 741.584 555.297L741.265 551.369ZM752.401 548.634L752.998 548.487L754.522 554.69L753.924 554.837L753.561 553.36C753.433 553.909 753.176 554.387 752.789 554.793C752.408 555.19 751.932 555.458 751.361 555.599C750.496 555.811 749.714 555.68 749.016 555.206C748.317 554.732 747.853 554.028 747.624 553.096C747.395 552.163 747.48 551.325 747.88 550.581C748.279 549.837 748.907 549.36 749.765 549.15C750.344 549.007 750.895 549.027 751.418 549.21C751.947 549.383 752.396 549.687 752.766 550.123L752.401 548.634ZM751.298 555.004C752.02 554.827 752.561 554.431 752.92 553.816C753.278 553.194 753.362 552.5 753.174 551.733C752.985 550.966 752.59 550.393 751.986 550.015C751.381 549.629 750.718 549.525 749.996 549.703C749.282 549.878 748.761 550.273 748.433 550.888C748.104 551.495 748.034 552.182 748.222 552.949C748.41 553.716 748.792 554.296 749.367 554.689C749.94 555.074 750.584 555.179 751.298 555.004Z" fill="white"/>
<path opacity="0.3" d="M752.41 579.273L753.207 579.112L754.473 585.373L753.87 585.495L753.181 582.091L752.767 579.864L750.946 583.93L750.912 583.937L747.655 580.898L748.138 583.111L748.827 586.515L748.223 586.637L746.957 580.376L747.754 580.215L750.737 583.012L752.41 579.273ZM757.916 578.029C758.872 577.836 759.696 578.001 760.386 578.525C761.077 579.049 761.518 579.824 761.71 580.852L756.064 581.994C756.249 582.755 756.626 583.31 757.195 583.661C757.77 584.003 758.425 584.1 759.161 583.951C759.67 583.848 760.1 583.651 760.451 583.358C760.803 583.066 761.041 582.698 761.164 582.254L761.79 582.128C761.66 582.77 761.368 583.299 760.915 583.715C760.461 584.13 759.912 584.403 759.267 584.534C758.334 584.723 757.507 584.578 756.786 584.1C756.065 583.621 755.608 582.904 755.414 581.948C755.221 580.991 755.358 580.146 755.826 579.412C756.301 578.676 756.998 578.215 757.916 578.029ZM758.031 578.598C757.348 578.736 756.819 579.069 756.443 579.595C756.066 580.113 755.905 580.723 755.96 581.423L760.958 580.412C760.744 579.744 760.37 579.243 759.836 578.909C759.308 578.565 758.707 578.462 758.031 578.598ZM766.676 576.388L767.28 576.266L768.546 582.527L767.943 582.649L767.457 580.247C766.943 580.635 766.288 580.91 765.491 581.071C763.897 581.393 762.942 580.773 762.626 579.209L762.237 577.286L762.84 577.163L763.208 578.985C763.342 579.645 763.587 580.097 763.945 580.341C764.31 580.583 764.819 580.638 765.471 580.506C765.82 580.436 766.173 580.325 766.53 580.174C766.892 580.013 767.163 579.848 767.342 579.678L766.676 576.388ZM771.991 575.182C772.947 574.989 773.77 575.154 774.461 575.678C775.151 576.202 775.593 576.978 775.785 578.006L770.138 579.148C770.324 579.908 770.701 580.464 771.269 580.815C771.844 581.157 772.5 581.253 773.236 581.104C773.744 581.001 774.174 580.804 774.526 580.512C774.878 580.219 775.115 579.851 775.239 579.408L775.865 579.281C775.734 579.924 775.442 580.453 774.989 580.868C774.536 581.284 773.987 581.557 773.342 581.687C772.408 581.876 771.581 581.731 770.86 581.253C770.139 580.775 769.682 580.057 769.489 579.101C769.296 578.145 769.433 577.299 769.9 576.565C770.376 575.829 771.072 575.368 771.991 575.182ZM772.106 575.752C771.423 575.89 770.893 576.222 770.518 576.748C770.141 577.267 769.98 577.876 770.034 578.576L775.032 577.565C774.818 576.898 774.444 576.396 773.91 576.062C773.383 575.718 772.781 575.615 772.106 575.752ZM780.872 573.517L780.987 574.086L778.71 574.546L779.861 580.238L779.258 580.36L778.106 574.668L775.818 575.131L775.703 574.562L778.595 573.977L780.872 573.517ZM785.412 574.885C786.854 574.594 787.709 575.112 787.977 576.44C788.108 577.085 788.029 577.631 787.74 578.076C787.457 578.513 786.943 578.806 786.199 578.956L783.387 579.525L782.121 573.264L782.724 573.142L783.169 575.339L785.412 574.885ZM786.071 578.378C787.141 578.162 787.575 577.556 787.374 576.562C787.282 576.107 787.097 575.777 786.818 575.572C786.539 575.36 786.103 575.314 785.511 575.434L783.279 575.885L783.873 578.822L786.071 578.378Z" fill="white"/>
<path opacity="0.3" d="M238.378 246.24L238.987 246.155L239.874 252.481L239.264 252.566L235.503 253.094L231.995 253.585L231.753 253.619L230.867 247.293L231.476 247.207L232.282 252.959L235.422 252.518L234.616 246.767L235.226 246.682L236.032 252.433L239.184 251.991L238.378 246.24ZM246.984 251.484L246.144 251.602L241.926 248.956L242.371 252.131L241.762 252.216L240.875 245.89L241.485 245.805L241.889 248.692L244.924 245.322L245.752 245.206L242.594 248.698L246.984 251.484ZM247.598 245.78C248.139 245.063 248.861 244.642 249.766 244.515C250.671 244.388 251.482 244.595 252.199 245.135C252.915 245.668 253.339 246.406 253.471 247.35C253.602 248.285 253.397 249.111 252.857 249.828C252.324 250.544 251.601 250.966 250.689 251.094C249.776 251.222 248.961 251.015 248.244 250.475C247.535 249.933 247.115 249.194 246.984 248.259C246.853 247.323 247.057 246.497 247.598 245.78ZM251.82 245.611C251.242 245.168 250.585 244.998 249.849 245.101C249.112 245.204 248.527 245.548 248.093 246.133C247.658 246.71 247.495 247.39 247.605 248.172C247.713 248.946 248.057 249.555 248.635 249.998C249.213 250.441 249.87 250.611 250.606 250.507C251.342 250.404 251.928 250.06 252.362 249.475C252.796 248.891 252.958 248.211 252.85 247.437C252.74 246.655 252.397 246.046 251.82 245.611ZM255.671 243.816L259.789 243.239L260.676 249.565L260.066 249.65L259.26 243.899L256.269 244.319L256.203 247.694C256.182 248.659 256.06 249.356 255.839 249.786C255.617 250.208 255.268 250.452 254.793 250.519C254.685 250.534 254.554 250.544 254.398 250.55L254.319 249.987C254.342 249.984 254.389 249.981 254.459 249.979C254.528 249.969 254.578 249.962 254.609 249.958C254.961 249.909 255.21 249.729 255.354 249.42C255.498 249.11 255.577 248.556 255.59 247.756L255.671 243.816ZM267.026 242.224L267.636 242.139L268.523 248.465L267.913 248.551L267.702 247.044C267.519 247.578 267.214 248.027 266.788 248.392C266.369 248.747 265.868 248.966 265.285 249.048C264.403 249.171 263.639 248.962 262.992 248.419C262.345 247.877 261.955 247.13 261.822 246.179C261.689 245.228 261.859 244.403 262.331 243.703C262.804 243.004 263.477 242.593 264.352 242.47C264.942 242.387 265.488 242.463 265.99 242.698C266.499 242.924 266.915 243.272 267.239 243.743L267.026 242.224ZM265.284 248.45C266.02 248.347 266.598 248.008 267.018 247.433C267.436 246.85 267.591 246.168 267.481 245.386C267.372 244.604 267.036 243.994 266.474 243.557C265.911 243.112 265.262 242.941 264.526 243.044C263.797 243.146 263.239 243.486 262.851 244.064C262.462 244.635 262.322 245.311 262.432 246.094C262.541 246.876 262.862 247.491 263.394 247.941C263.925 248.382 264.555 248.552 265.284 248.45Z" fill="white"/>
<path opacity="0.3" d="M153.494 263.814L154.644 263.653L154.968 265.965L154.358 266.05L154.115 264.313L152.965 264.474L147.535 265.235L147.779 266.972L147.169 267.058L146.845 264.746L147.903 264.597C148.273 264.28 148.472 263.439 148.5 262.074L148.57 258.64L152.687 258.063L153.494 263.814ZM148.64 264.494L152.884 263.899L152.158 258.723L149.168 259.143L149.099 262.002C149.088 263.2 148.934 264.031 148.64 264.494ZM157.685 257.233C158.651 257.098 159.463 257.312 160.121 257.877C160.778 258.442 161.172 259.243 161.302 260.28L155.597 261.08C155.736 261.85 156.079 262.427 156.625 262.812C157.178 263.188 157.827 263.324 158.571 263.22C159.084 263.147 159.526 262.976 159.894 262.706C160.263 262.435 160.522 262.082 160.672 261.647L161.305 261.558C161.136 262.191 160.813 262.702 160.335 263.089C159.858 263.477 159.293 263.716 158.641 263.808C157.698 263.94 156.881 263.746 156.191 263.225C155.5 262.704 155.087 261.96 154.951 260.994C154.816 260.028 155.004 259.192 155.515 258.487C156.034 257.781 156.757 257.363 157.685 257.233ZM157.765 257.808C157.075 257.905 156.527 258.205 156.12 258.707C155.713 259.202 155.515 259.801 155.528 260.503L160.577 259.795C160.404 259.116 160.061 258.593 159.548 258.227C159.042 257.852 158.448 257.713 157.765 257.808ZM166.65 256.106L166.73 256.681L164.43 257.003L165.236 262.754L164.627 262.84L163.82 257.089L161.508 257.413L161.428 256.838L164.349 256.428L166.65 256.106ZM175.21 261.485C174.297 261.613 173.483 261.411 172.767 260.878C172.058 260.336 171.637 259.594 171.505 258.65C171.373 257.707 171.574 256.881 172.108 256.173C172.649 255.456 173.379 255.033 174.299 254.904C175.02 254.803 175.685 254.917 176.294 255.246C176.902 255.568 177.35 256.056 177.637 256.712L176.993 256.802C176.754 256.327 176.399 255.97 175.928 255.732C175.456 255.485 174.94 255.401 174.38 255.48C173.628 255.585 173.035 255.93 172.601 256.515C172.167 257.099 172.005 257.783 172.115 258.565C172.223 259.339 172.567 259.952 173.146 260.402C173.724 260.845 174.385 261.014 175.129 260.91C175.689 260.832 176.163 260.613 176.55 260.254C176.944 259.886 177.191 259.441 177.29 258.919L177.934 258.828C177.838 259.538 177.538 260.135 177.035 260.62C176.539 261.096 175.931 261.384 175.21 261.485ZM184.168 253.65L184.777 253.565L185.664 259.891L185.055 259.976L184.843 258.47C184.66 259.003 184.356 259.453 183.93 259.817C183.511 260.173 183.01 260.392 182.427 260.474C181.545 260.597 180.781 260.388 180.134 259.845C179.487 259.302 179.097 258.556 178.964 257.605C178.83 256.654 179 255.829 179.473 255.129C179.945 254.43 180.619 254.019 181.493 253.896C182.084 253.813 182.63 253.889 183.132 254.124C183.64 254.35 184.057 254.698 184.381 255.168L184.168 253.65ZM182.425 259.876C183.161 259.773 183.739 259.434 184.159 258.859C184.578 258.276 184.732 257.594 184.623 256.812C184.513 256.029 184.177 255.42 183.616 254.982C183.053 254.537 182.403 254.367 181.667 254.47C180.939 254.572 180.381 254.912 179.992 255.49C179.603 256.061 179.464 256.737 179.573 257.519C179.683 258.302 180.004 258.917 180.536 259.367C181.067 259.808 181.697 259.978 182.425 259.876ZM193.313 258.232L194.463 258.071L194.788 260.383L194.178 260.468L193.934 258.732L192.784 258.893L187.355 259.654L187.599 261.391L186.989 261.476L186.665 259.164L187.723 259.016C188.093 258.698 188.292 257.857 188.319 256.493L188.389 253.058L192.507 252.481L193.313 258.232ZM188.459 258.913L192.704 258.318L191.978 253.142L188.988 253.561L188.919 256.42C188.907 257.618 188.754 258.449 188.459 258.913Z" fill="white"/>
<path opacity="0.3" d="M190.105 507.875L191.233 507.599L191.789 509.866L191.191 510.013L190.774 508.31L189.645 508.586L184.321 509.89L184.738 511.594L184.14 511.74L183.585 509.473L184.623 509.218C184.958 508.865 185.071 508.008 184.961 506.648L184.685 503.224L188.723 502.235L190.105 507.875ZM185.345 509.042L189.507 508.022L188.264 502.945L185.331 503.664L185.551 506.516C185.66 507.709 185.591 508.551 185.345 509.042ZM193.612 500.906C194.559 500.674 195.389 500.805 196.1 501.301C196.811 501.796 197.284 502.553 197.517 503.572L191.922 504.943C192.138 505.695 192.537 506.235 193.12 506.563C193.708 506.881 194.367 506.951 195.097 506.772C195.6 506.649 196.022 506.434 196.362 506.127C196.701 505.821 196.924 505.444 197.029 504.995L197.649 504.843C197.545 505.491 197.275 506.031 196.839 506.465C196.403 506.899 195.865 507.194 195.226 507.35C194.301 507.577 193.469 507.466 192.729 507.017C191.989 506.569 191.504 505.871 191.271 504.923C191.039 503.975 191.142 503.125 191.579 502.372C192.024 501.618 192.702 501.129 193.612 500.906ZM193.75 501.47C193.073 501.636 192.558 501.989 192.204 502.53C191.848 503.064 191.712 503.679 191.795 504.376L196.747 503.163C196.506 502.504 196.113 502.019 195.566 501.707C195.024 501.385 194.419 501.306 193.75 501.47ZM202.417 498.88L202.556 499.444L200.299 499.997L201.681 505.637L201.083 505.784L199.701 500.143L197.434 500.699L197.296 500.135L200.161 499.433L202.417 498.88ZM211.476 503.369C210.581 503.589 209.751 503.469 208.985 503.011C208.224 502.544 207.731 501.847 207.504 500.922C207.278 499.997 207.394 499.156 207.854 498.397C208.32 497.629 209.004 497.135 209.907 496.914C210.614 496.741 211.287 496.787 211.926 497.053C212.563 497.311 213.058 497.752 213.41 498.376L212.778 498.53C212.493 498.082 212.104 497.763 211.611 497.573C211.116 497.375 210.594 497.343 210.045 497.478C209.308 497.658 208.753 498.061 208.38 498.687C208.007 499.312 207.914 500.009 208.102 500.776C208.288 501.535 208.692 502.11 209.314 502.5C209.934 502.882 210.608 502.984 211.338 502.805C211.887 502.671 212.336 502.405 212.685 502.009C213.04 501.603 213.241 501.135 213.286 500.606L213.918 500.451C213.894 501.167 213.656 501.791 213.205 502.324C212.759 502.848 212.183 503.196 211.476 503.369ZM219.599 494.671L220.196 494.525L221.716 500.729L221.119 500.876L220.757 499.398C220.628 499.947 220.37 500.425 219.984 500.831C219.602 501.227 219.126 501.495 218.554 501.635C217.689 501.847 216.908 501.716 216.21 501.241C215.511 500.766 215.048 500.063 214.82 499.13C214.591 498.198 214.677 497.36 215.077 496.616C215.476 495.872 216.105 495.395 216.962 495.185C217.541 495.043 218.092 495.064 218.616 495.247C219.144 495.42 219.594 495.725 219.963 496.16L219.599 494.671ZM218.492 501.041C219.214 500.864 219.755 500.468 220.115 499.854C220.473 499.232 220.558 498.538 220.37 497.771C220.182 497.003 219.786 496.431 219.184 496.052C218.579 495.666 217.915 495.562 217.193 495.739C216.479 495.914 215.958 496.308 215.63 496.923C215.3 497.53 215.23 498.217 215.417 498.984C215.605 499.751 215.987 500.331 216.561 500.725C217.134 501.11 217.778 501.216 218.492 501.041ZM229.159 498.308L230.287 498.032L230.843 500.299L230.245 500.446L229.828 498.742L228.7 499.018L223.375 500.323L223.792 502.026L223.194 502.173L222.639 499.905L223.677 499.651C224.013 499.298 224.126 498.441 224.016 497.081L223.739 493.657L227.778 492.667L229.159 498.308ZM224.399 499.474L228.561 498.454L227.318 493.378L224.385 494.096L224.605 496.948C224.714 498.141 224.645 498.983 224.399 499.474Z" fill="white"/>
<path opacity="0.3" d="M740.778 455.726L740.596 454.579L742.902 454.214L742.998 454.822L741.266 455.096L741.447 456.244L742.304 461.658L744.036 461.384L744.133 461.992L741.827 462.357L741.66 461.302C741.336 460.938 740.491 460.754 739.127 460.75L735.691 460.741L735.042 456.634L740.778 455.726ZM741.544 460.568L740.874 456.334L735.711 457.151L736.183 460.134L739.044 460.152C740.242 460.143 741.075 460.281 741.544 460.568ZM734.124 451.652C733.972 450.688 734.172 449.873 734.725 449.205C735.278 448.538 736.072 448.13 737.106 447.982L738.007 453.672C738.774 453.519 739.346 453.166 739.721 452.613C740.087 452.053 740.211 451.402 740.094 450.66C740.013 450.148 739.834 449.71 739.557 449.346C739.279 448.982 738.922 448.729 738.484 448.587L738.384 447.956C739.021 448.114 739.537 448.428 739.933 448.899C740.328 449.369 740.578 449.929 740.681 450.579C740.829 451.52 740.65 452.34 740.141 453.04C739.632 453.74 738.896 454.166 737.933 454.319C736.969 454.471 736.13 454.298 735.416 453.799C734.701 453.293 734.271 452.577 734.124 451.652ZM734.698 451.561C734.807 452.25 735.116 452.793 735.626 453.19C736.128 453.589 736.73 453.776 737.431 453.751L736.634 448.715C735.958 448.9 735.442 449.252 735.085 449.771C734.719 450.284 734.59 450.881 734.698 451.561ZM732.838 442.708L733.412 442.617L733.775 444.912L739.511 444.004L739.607 444.612L733.871 445.52L734.236 447.826L733.662 447.916L733.201 445.003L732.838 442.708ZM738.066 434.055C738.21 434.965 738.022 435.782 737.502 436.507C736.973 437.226 736.238 437.66 735.297 437.809C734.356 437.958 733.527 437.771 732.81 437.25C732.083 436.722 731.648 435.999 731.502 435.081C731.389 434.362 731.491 433.696 731.809 433.081C732.12 432.467 732.6 432.011 733.251 431.712L733.352 432.354C732.882 432.601 732.531 432.963 732.301 433.438C732.063 433.915 731.988 434.432 732.076 434.991C732.195 435.74 732.55 436.327 733.142 436.75C733.735 437.174 734.421 437.324 735.201 437.201C735.973 437.079 736.58 436.724 737.02 436.137C737.452 435.551 737.61 434.887 737.493 434.145C737.404 433.587 737.177 433.117 736.811 432.736C736.436 432.349 735.987 432.11 735.463 432.02L735.361 431.378C736.072 431.462 736.675 431.75 737.168 432.245C737.653 432.732 737.952 433.336 738.066 434.055ZM730.074 425.236L729.978 424.628L736.287 423.63L736.384 424.238L734.881 424.476C735.418 424.65 735.872 424.946 736.245 425.365C736.608 425.778 736.835 426.275 736.927 426.857C737.066 427.736 736.87 428.504 736.339 429.16C735.808 429.817 735.068 430.22 734.12 430.37C733.172 430.52 732.344 430.365 731.636 429.905C730.928 429.444 730.505 428.778 730.367 427.906C730.274 427.317 730.34 426.77 730.566 426.264C730.783 425.751 731.124 425.329 731.588 424.997L730.074 425.236ZM736.33 426.869C736.213 426.135 735.864 425.563 735.282 425.153C734.692 424.745 734.007 424.602 733.227 424.726C732.447 424.849 731.843 425.195 731.416 425.765C730.981 426.335 730.822 426.988 730.938 427.722C731.053 428.448 731.403 429.001 731.988 429.378C732.565 429.757 733.244 429.885 734.024 429.762C734.804 429.638 735.414 429.307 735.854 428.767C736.286 428.228 736.445 427.595 736.33 426.869ZM734.494 416.011L734.313 414.864L736.619 414.499L736.715 415.107L734.982 415.381L735.164 416.529L736.021 421.943L737.753 421.669L737.849 422.277L735.543 422.642L735.376 421.587C735.052 421.223 734.208 421.039 732.843 421.035L729.408 421.026L728.758 416.919L734.494 416.011ZM735.26 420.853L734.59 416.619L729.428 417.436L729.9 420.419L732.76 420.437C733.958 420.427 734.791 420.566 735.26 420.853Z" fill="white"/>
<path opacity="0.3" d="M88.7998 274.626L89.9468 274.444L90.3142 276.749L89.7062 276.846L89.4303 275.114L88.2833 275.297L82.8695 276.159L83.1454 277.891L82.5375 277.988L82.1702 275.683L83.2254 275.515C83.5893 275.19 83.7723 274.345 83.7744 272.981L83.7799 269.546L87.8861 268.891L88.7998 274.626ZM83.9595 275.398L88.1919 274.723L87.3696 269.562L84.3874 270.037L84.3726 272.897C84.3832 274.095 84.2455 274.929 83.9595 275.398ZM92.867 267.968C93.8305 267.815 94.6464 268.014 95.3146 268.566C95.9827 269.119 96.3914 269.912 96.5406 270.947L90.8515 271.853C91.0051 272.621 91.3587 273.192 91.9123 273.566C92.4724 273.932 93.1233 274.055 93.865 273.937C94.3773 273.855 94.8153 273.676 95.1788 273.398C95.5423 273.121 95.795 272.763 95.9369 272.325L96.5677 272.224C96.4104 272.861 96.0968 273.378 95.6267 273.774C95.1567 274.17 94.5967 274.42 93.9467 274.524C93.0062 274.674 92.1858 274.495 91.4854 273.987C90.7851 273.479 90.3582 272.743 90.2047 271.78C90.0512 270.816 90.2233 269.977 90.7211 269.263C91.2265 268.547 91.9418 268.116 92.867 267.968ZM92.9584 268.542C92.2702 268.652 91.7276 268.962 91.3306 269.472C90.9324 269.974 90.746 270.576 90.7716 271.278L95.8069 270.476C95.6208 269.8 95.268 269.283 94.7487 268.927C94.2357 268.562 93.639 268.434 92.9584 268.542ZM101.809 266.673L101.901 267.247L99.6068 267.612L100.521 273.347L99.9126 273.444L98.9989 267.709L96.6935 268.076L96.6021 267.503L99.5155 267.039L101.809 266.673ZM110.469 271.891C109.559 272.036 108.741 271.849 108.015 271.33C107.296 270.801 106.861 270.067 106.712 269.126C106.562 268.186 106.747 267.357 107.268 266.639C107.795 265.912 108.517 265.475 109.435 265.329C110.154 265.214 110.821 265.316 111.436 265.633C112.05 265.943 112.506 266.423 112.806 267.073L112.164 267.176C111.916 266.705 111.555 266.355 111.079 266.125C110.602 265.888 110.085 265.813 109.526 265.902C108.777 266.022 108.191 266.378 107.768 266.971C107.345 267.563 107.195 268.25 107.319 269.03C107.443 269.802 107.798 270.408 108.385 270.847C108.972 271.279 109.636 271.436 110.377 271.318C110.936 271.229 111.405 271.001 111.786 270.635C112.173 270.26 112.411 269.81 112.5 269.286L113.142 269.184C113.06 269.895 112.771 270.497 112.278 270.992C111.791 271.477 111.188 271.777 110.469 271.891ZM119.278 263.89L119.886 263.793L120.891 270.102L120.283 270.198L120.044 268.696C119.871 269.233 119.575 269.688 119.156 270.061C118.743 270.424 118.247 270.652 117.665 270.745C116.786 270.885 116.018 270.69 115.361 270.159C114.704 269.629 114.3 268.89 114.149 267.941C113.998 266.993 114.152 266.165 114.612 265.457C115.071 264.748 115.737 264.325 116.609 264.186C117.198 264.092 117.745 264.158 118.251 264.383C118.764 264.599 119.187 264.939 119.52 265.404L119.278 263.89ZM117.653 270.147C118.387 270.03 118.958 269.68 119.367 269.098C119.775 268.507 119.917 267.822 119.792 267.042C119.668 266.262 119.321 265.659 118.751 265.232C118.18 264.798 117.528 264.639 116.794 264.756C116.067 264.872 115.515 265.223 115.138 265.808C114.76 266.386 114.633 267.065 114.757 267.845C114.881 268.625 115.214 269.234 115.754 269.673C116.293 270.105 116.926 270.263 117.653 270.147ZM128.508 268.3L129.655 268.117L130.022 270.423L129.414 270.52L129.139 268.788L127.992 268.97L122.578 269.833L122.854 271.565L122.246 271.662L121.878 269.356L122.934 269.188C123.297 268.864 123.48 268.019 123.483 266.654L123.488 263.219L127.594 262.565L128.508 268.3ZM123.668 269.071L127.9 268.397L127.078 263.235L124.096 263.71L124.081 266.571C124.091 267.769 123.954 268.602 123.668 269.071Z" fill="white"/>
<path opacity="0.3" d="M18.3298 547.681C18.3184 548.603 17.9952 549.377 17.3602 550.004C16.7176 550.623 15.9201 550.927 14.9677 550.915C14.0154 550.904 13.2296 550.58 12.6102 549.945C11.9831 549.303 11.6753 548.517 11.6868 547.588C11.6958 546.86 11.9089 546.22 12.3262 545.667C12.7357 545.115 13.2862 544.746 13.9777 544.561L13.9696 545.211C13.4642 545.376 13.0579 545.673 12.7506 546.102C12.4355 546.532 12.2745 547.03 12.2675 547.595C12.2581 548.354 12.5097 548.992 13.0221 549.509C13.5345 550.027 14.1856 550.29 14.9754 550.3C15.7574 550.31 16.4148 550.062 16.9476 549.558C17.4726 549.053 17.7398 548.425 17.7491 547.674C17.7561 547.109 17.6113 546.608 17.3147 546.17C17.0104 545.725 16.6077 545.414 16.1066 545.238L16.1146 544.588C16.8013 544.79 17.3463 545.176 17.7497 545.746C18.1454 546.308 18.3388 546.954 18.3298 547.681ZM11.9247 538.681L12.5054 538.688L12.4767 541.011L18.2836 541.083L18.2759 541.698L12.469 541.627L12.4402 543.961L11.8595 543.954L11.896 541.004L11.9247 538.681ZM12.7695 537.05C12.1425 536.407 11.8346 535.629 11.8459 534.715C11.8572 533.802 12.1842 533.031 12.827 532.404C13.462 531.777 14.2556 531.469 15.2079 531.481C16.1525 531.493 16.9383 531.82 17.5654 532.463C18.1925 533.098 18.5004 533.876 18.489 534.797C18.4776 535.719 18.1506 536.493 17.5078 537.12C16.8652 537.739 16.0716 538.043 15.127 538.031C14.1824 538.02 13.3966 537.692 12.7695 537.05ZM13.2396 532.851C12.7145 533.355 12.4474 533.979 12.4382 534.723C12.429 535.466 12.6807 536.096 13.1931 536.614C13.6978 537.131 14.345 537.394 15.1347 537.404C15.9167 537.414 16.5703 537.166 17.0953 536.662C17.6204 536.157 17.8875 535.533 17.8967 534.79C17.9059 534.047 17.6543 533.416 17.1418 532.899C16.6294 532.382 15.9822 532.118 15.2002 532.108C14.4105 532.099 13.7569 532.346 13.2396 532.851ZM12.0569 527.983L12.0942 524.963L18.4818 525.042L18.4742 525.658L15.9424 525.627L15.9171 527.671L18.4232 529.781L18.4136 530.559L15.8968 528.379C15.8273 528.99 15.6357 529.452 15.3221 529.766C15.0084 530.079 14.5884 530.233 14.0619 530.226C13.4193 530.218 12.9221 530.034 12.5703 529.674C12.2187 529.305 12.0475 528.742 12.0569 527.983ZM15.3911 527.943L15.4198 525.62L12.6557 525.586L12.6263 527.967C12.6188 528.571 12.7452 528.994 13.0055 529.238C13.258 529.481 13.6127 529.605 14.0695 529.611C14.9367 529.622 15.3772 529.066 15.3911 527.943ZM12.1805 517.984L12.1881 517.369L18.5757 517.447L18.5681 518.063L15.5833 518.026L15.5282 522.486L18.5129 522.523L18.5053 523.138L12.1178 523.059L12.1254 522.444L14.9475 522.479L15.0026 518.019L12.1805 517.984ZM18.6644 510.267L18.6539 511.115L15.4015 514.884L18.6069 514.924L18.5993 515.539L12.2117 515.46L12.2193 514.845L15.1343 514.881L12.2622 511.372L12.2725 510.536L15.2475 514.185L18.6644 510.267ZM12.3528 504.038L12.3605 503.422L18.748 503.501L18.7404 504.117L17.219 504.098C17.7191 504.359 18.1172 504.728 18.4134 505.204C18.7018 505.673 18.8424 506.201 18.8352 506.789C18.8242 507.68 18.5016 508.404 17.8675 508.961C17.2333 509.519 16.4362 509.791 15.4762 509.779C14.5161 509.768 13.726 509.475 13.1058 508.902C12.4857 508.329 12.181 507.601 12.1919 506.719C12.1993 506.123 12.3568 505.594 12.6645 505.133C12.9646 504.665 13.3717 504.306 13.8859 504.057L12.3528 504.038ZM18.2439 506.701C18.2531 505.957 18.0052 505.335 17.5003 504.833C16.9877 504.331 16.3365 504.075 15.5468 504.065C14.757 504.056 14.1036 504.295 13.5865 504.785C13.0616 505.274 12.7946 505.89 12.7854 506.633C12.7763 507.369 13.0283 507.972 13.5413 508.443C14.0465 508.914 14.694 509.154 15.4838 509.164C16.2735 509.174 16.9306 508.95 17.4551 508.491C17.9719 508.033 18.2348 507.436 18.2439 506.701Z" fill="white"/>
<path opacity="0.3" d="M606.648 158.463C605.804 158.451 605.095 158.153 604.521 157.569C603.955 156.979 603.678 156.247 603.691 155.374C603.704 154.501 604.003 153.781 604.586 153.215C605.177 152.642 605.898 152.361 606.749 152.374C607.416 152.384 608.003 152.581 608.508 152.965C609.014 153.341 609.35 153.847 609.518 154.481L608.922 154.472C608.773 154.008 608.502 153.635 608.108 153.353C607.715 153.063 607.259 152.914 606.741 152.906C606.046 152.896 605.46 153.125 604.985 153.594C604.509 154.062 604.266 154.658 604.256 155.382C604.245 156.099 604.47 156.702 604.931 157.192C605.393 157.674 605.968 157.921 606.656 157.931C607.174 157.939 607.634 157.807 608.036 157.536C608.444 157.258 608.73 156.89 608.893 156.431L609.489 156.44C609.303 157.069 608.947 157.567 608.424 157.936C607.907 158.297 607.315 158.473 606.648 158.463ZM614.913 152.612L614.905 153.145L612.776 153.113L612.697 158.436L612.133 158.428L612.212 153.105L610.072 153.073L610.08 152.541L612.784 152.581L614.913 152.612ZM616.407 153.391C616.997 152.817 617.711 152.537 618.549 152.549C619.386 152.562 620.091 152.863 620.665 153.454C621.238 154.037 621.518 154.766 621.505 155.639C621.493 156.504 621.191 157.224 620.6 157.797C620.017 158.371 619.303 158.651 618.458 158.639C617.614 158.626 616.905 158.324 616.331 157.734C615.765 157.143 615.488 156.415 615.501 155.549C615.514 154.684 615.816 153.964 616.407 153.391ZM620.255 153.831C619.793 153.349 619.222 153.102 618.541 153.092C617.859 153.082 617.281 153.311 616.805 153.78C616.33 154.241 616.087 154.834 616.076 155.558C616.066 156.275 616.291 156.874 616.752 157.357C617.214 157.839 617.785 158.086 618.466 158.096C619.148 158.106 619.726 157.877 620.201 157.408C620.677 156.939 620.92 156.347 620.931 155.63C620.941 154.906 620.716 154.306 620.255 153.831ZM624.719 152.758L627.487 152.799L627.4 158.654L626.836 158.646L626.87 156.325L624.997 156.297L623.057 158.59L622.344 158.579L624.348 156.277C623.788 156.212 623.364 156.035 623.078 155.747C622.791 155.459 622.651 155.073 622.658 154.591C622.667 154.002 622.837 153.546 623.168 153.225C623.507 152.903 624.024 152.748 624.719 152.758ZM624.748 155.814L626.878 155.846L626.915 153.312L624.733 153.28C624.179 153.272 623.791 153.387 623.567 153.625C623.344 153.856 623.229 154.18 623.223 154.599C623.211 155.394 623.719 155.799 624.748 155.814ZM633.885 152.894L634.449 152.903L634.362 158.758L633.798 158.749L633.838 156.013L629.75 155.953L629.71 158.689L629.146 158.68L629.233 152.825L629.797 152.833L629.758 155.42L633.846 155.481L633.885 152.894ZM640.944 158.855L640.167 158.844L636.719 155.854L636.675 158.792L636.111 158.784L636.198 152.928L636.762 152.937L636.723 155.609L639.945 152.984L640.712 152.995L637.36 155.714L640.944 158.855ZM646.669 153.084L647.233 153.092L647.146 158.947L646.582 158.939L646.602 157.544C646.361 158.002 646.022 158.366 645.585 158.637C645.155 158.9 644.671 159.028 644.131 159.02C643.315 159.008 642.652 158.71 642.143 158.128C641.633 157.545 641.385 156.814 641.398 155.934C641.411 155.054 641.681 154.33 642.208 153.763C642.734 153.196 643.402 152.918 644.211 152.93C644.758 152.938 645.242 153.084 645.663 153.367C646.092 153.643 646.42 154.017 646.648 154.489L646.669 153.084ZM644.214 158.478C644.895 158.488 645.467 158.262 645.928 157.801C646.389 157.332 646.625 156.736 646.636 156.012C646.646 155.288 646.428 154.688 645.981 154.213C645.534 153.731 644.97 153.485 644.288 153.475C643.614 153.465 643.06 153.694 642.628 154.163C642.195 154.625 641.973 155.218 641.962 155.942C641.952 156.666 642.156 157.269 642.574 157.751C642.993 158.226 643.54 158.468 644.214 158.478Z" fill="white"/>
</svg>
