<svg width="187" height="110" viewBox="0 0 187 110" fill="none" xmlns="http://www.w3.org/2000/svg">
<path d="M90.554 42.6893H43.8966H41.1445V1H90.554V42.6893Z" fill="#9D8962"/>
<path d="M44.1065 106.732H1V1.00024H41.3899L41.3895 42.6309H44.1065V53.0878M44.1065 106.732V109.084H91.9969M44.1065 106.732V53.4976M160.353 106.732H138.587V109.084H91.9969M160.353 106.732V53.0878H91.9969M160.353 106.732H186.286V1.00024H135.536M91.9969 109.084V53.0878M135.536 53.0878V35.7393M135.536 35.7393V22.6059M135.536 35.7393L118.187 53.0878M135.536 22.6059V10.236M135.536 22.6059L104.644 53.4976M135.536 10.236V1.00024M135.536 10.236L92.6839 53.0878M135.536 1.00024H132.029M90.5539 1.00024H105.036M105.036 1.00024H118.718M105.036 1.00024L90.5539 15.4823M118.718 1.00024H132.029M118.718 1.00024L90.5539 29.1641M132.029 1.00024L80.097 53.0878M78.2024 42.6309L67.7827 53.4976M65.9084 42.6309L55.0416 53.4976M54.9732 42.6309L44.1065 53.4976M44.1065 53.4976V53.0878M44.1065 53.0878H91.9969" stroke="#555555" stroke-miterlimit="10"/>
<path d="M90.164 42.3057H41.3896V1H90.164V42.3057Z" stroke="#9D8962" stroke-miterlimit="10"/>
</svg>
