<svg width="42" height="42" viewBox="0 0 42 42" fill="none" xmlns="http://www.w3.org/2000/svg">
<path d="M21 0.500007C32.3218 0.500006 41.5 9.67817 41.5 21C41.5 32.3218 32.3218 41.5 21 41.5C9.67816 41.5 0.5 32.3218 0.499999 21C0.499999 9.67817 9.67816 0.500007 21 0.500007Z" stroke="#9D8962"/>
<path d="M28 28L24.1614 24.1613M24.1614 24.1613C25.2385 23.0842 25.9048 21.5961 25.9048 19.9524C25.9048 16.665 23.2398 14 19.9524 14C16.665 14 14 16.665 14 19.9524C14 23.2398 16.665 25.9048 19.9524 25.9048C21.5961 25.9048 23.0842 25.2385 24.1614 24.1613Z" stroke="white"/>
</svg>
