<svg width="62" height="62" viewBox="0 0 62 62" fill="none" xmlns="http://www.w3.org/2000/svg">
<circle cx="31" cy="31" r="30" stroke="#9D8962" stroke-width="2"/>
<path d="M17.5 18.7619C17.5 18.6173 17.6173 18.5 17.7619 18.5H33.1131C33.2577 18.5 33.375 18.6173 33.375 18.7619V34.1131C33.375 34.2577 33.2577 34.375 33.1131 34.375H17.7619C17.6173 34.375 17.5 34.2577 17.5 34.1131V18.7619Z" stroke="#9D8962"/>
<path d="M25.4376 23.0625V26.6339M25.4376 30.2054V26.6339M25.4376 26.6339H29.0091M25.4376 26.6339H21.8662" stroke="#9D8962"/>
<path d="M27.625 28.8869C27.625 28.7423 27.7423 28.625 27.8869 28.625H43.2381C43.3827 28.625 43.5 28.7423 43.5 28.8869V44.2381C43.5 44.3827 43.3827 44.5 43.2381 44.5H27.8869C27.7423 44.5 27.625 44.3827 27.625 44.2381V28.8869Z" fill="#1C1E1E" stroke="#9D8962"/>
<path d="M38.9375 39.0938H35.5625H32.1875M38.9375 34.0312H35.5625H32.1875" stroke="#9D8962"/>
</svg>
