<svg width="20" height="20" viewBox="0 0 20 20" fill="none" xmlns="http://www.w3.org/2000/svg">
<rect width="20" height="20" rx="10" fill="#9D8962"/>
<g clip-path="url(#clip0_601_1451)" filter="url(#filter0_i_601_1451)">
<path d="M7.49922 4C5.56986 4 4 5.57078 4 7.50062V12.5003C4 14.4299 5.57078 16 7.50062 16H12.5003C14.4299 16 16 14.4292 16 12.4994V7.49922C16 5.56986 14.4292 4 12.4994 4H7.49922ZM13.6 5.92C13.865 5.92 14.08 6.13504 14.08 6.4C14.08 6.66496 13.865 6.88 13.6 6.88C13.335 6.88 13.12 6.66496 13.12 6.4C13.12 6.13504 13.335 5.92 13.6 5.92ZM10 6.88C11.7208 6.88 13.12 8.2792 13.12 10C13.12 11.7208 11.7206 13.12 10 13.12C8.2792 13.12 6.88 11.7206 6.88 10C6.88 8.27944 8.2792 6.88 10 6.88ZM10 7.84C8.80696 7.84 7.84 8.80696 7.84 10C7.84 11.193 8.80696 12.16 10 12.16C11.193 12.16 12.16 11.193 12.16 10C12.16 8.80696 11.193 7.84 10 7.84Z" fill="#1C1E1E"/>
</g>
<defs>
<filter id="filter0_i_601_1451" x="4.0625" y="4.11914" width="11.832" height="15.833" filterUnits="userSpaceOnUse" color-interpolation-filters="sRGB">
<feFlood flood-opacity="0" result="BackgroundImageFix"/>
<feBlend mode="normal" in="SourceGraphic" in2="BackgroundImageFix" result="shape"/>
<feColorMatrix in="SourceAlpha" type="matrix" values="0 0 0 0 0 0 0 0 0 0 0 0 0 0 0 0 0 0 127 0" result="hardAlpha"/>
<feOffset dy="4"/>
<feGaussianBlur stdDeviation="7.5"/>
<feComposite in2="hardAlpha" operator="arithmetic" k2="-1" k3="1"/>
<feColorMatrix type="matrix" values="0 0 0 0 0 0 0 0 0 0 0 0 0 0 0 0 0 0 0.2 0"/>
<feBlend mode="normal" in2="shape" result="effect1_innerShadow_601_1451"/>
</filter>
<clipPath id="clip0_601_1451">
<rect width="11.8329" height="11.8329" fill="white" transform="translate(4.0625 4.11914)"/>
</clipPath>
</defs>
</svg>
