<svg width="363" height="292" viewBox="0 0 363 292" fill="none" xmlns="http://www.w3.org/2000/svg">
<g opacity="0.6">
<line x1="361.564" y1="291.299" x2="21.1862" y2="291.299" stroke="#9D8962" stroke-width="0.706178"/>
<path d="M108.751 116.59L108.751 117.93L108.751 0.704633" stroke="#9D8962" stroke-width="0.706178"/>
<line x1="273.645" y1="290.946" x2="273.645" y2="184.313" stroke="#9D8962" stroke-width="0.706178"/>
<line x1="313.896" y1="122.168" x2="313.896" y2="113.694" stroke="#9D8962" stroke-width="0.706178"/>
<line x1="269.408" y1="132.056" x2="269.408" y2="113.695" stroke="#9D8962" stroke-width="0.706178"/>
<line x1="167.012" y1="132.761" x2="167.012" y2="118.638" stroke="#9D8962" stroke-width="0.706178"/>
<line x1="133.115" y1="132.056" x2="133.115" y2="117.932" stroke="#9D8962" stroke-width="0.706178"/>
<line x1="133.115" y1="171.601" x2="133.115" y2="163.126" stroke="#9D8962" stroke-width="0.706178"/>
<line x1="193.847" y1="184.314" x2="193.847" y2="163.129" stroke="#9D8962" stroke-width="0.706178"/>
<line x1="229.155" y1="132.056" x2="229.155" y2="19.0672" stroke="#9D8962" stroke-width="0.706178"/>
<line x1="151.122" y1="1.05914" x2="21.8918" y2="1.05914" stroke="#9D8962" stroke-width="0.706178"/>
<line x1="318.487" y1="0.353577" x2="229.508" y2="0.353577" stroke="#9D8962" stroke-width="0.706178"/>
<line x1="229.508" y1="19.4185" x2="151.828" y2="19.4185" stroke="#9D8962" stroke-width="0.706178"/>
<line x1="133.468" y1="171.954" x2="110.87" y2="171.954" stroke="#9D8962" stroke-width="0.706178"/>
<line x1="65.675" y1="184.668" x2="21.892" y2="184.668" stroke="#9D8962" stroke-width="0.706178"/>
<line x1="194.2" y1="163.482" x2="150.417" y2="163.482" stroke="#9D8962" stroke-width="0.706178"/>
<line x1="246.457" y1="184.668" x2="193.494" y2="184.668" stroke="#9D8962" stroke-width="0.706178"/>
<line x1="362.27" y1="184.668" x2="309.307" y2="184.668" stroke="#9D8962" stroke-width="0.706178"/>
<line x1="361.564" y1="122.522" x2="313.544" y2="122.522" stroke="#9D8962" stroke-width="0.706178"/>
<line x1="314.25" y1="114.049" x2="298.007" y2="114.049" stroke="#9D8962" stroke-width="0.706178"/>
<line x1="285.296" y1="114.049" x2="269.76" y2="114.049" stroke="#9D8962" stroke-width="0.706178"/>
<line x1="269.761" y1="132.409" x2="253.519" y2="132.409" stroke="#9D8962" stroke-width="0.706178"/>
<line x1="149.71" y1="132.409" x2="133.468" y2="132.409" stroke="#9D8962" stroke-width="0.706178"/>
<line x1="127.113" y1="118.283" x2="110.87" y2="118.283" stroke="#9D8962" stroke-width="0.706178"/>
<line x1="65.675" y1="105.573" x2="21.892" y2="105.573" stroke="#9D8962" stroke-width="0.706178"/>
<line x1="236.57" y1="132.409" x2="167.364" y2="132.409" stroke="#9D8962" stroke-width="0.706178"/>
<line x1="149.71" y1="132.409" x2="132.762" y2="132.409" stroke="#9D8962" stroke-width="0.706178"/>
<line x1="132.762" y1="118.283" x2="108.752" y2="118.283" stroke="#9D8962" stroke-width="0.706178"/>
<line x1="273.998" y1="184.668" x2="265.524" y2="184.668" stroke="#9D8962" stroke-width="0.706178"/>
<line x1="133.468" y1="171.954" x2="110.87" y2="171.954" stroke="#9D8962" stroke-width="0.706178"/>
<line x1="140.529" y1="163.482" x2="133.468" y2="163.482" stroke="#9D8962" stroke-width="0.706178"/>
<line x1="108.751" y1="145.119" x2="0.706245" y2="145.119" stroke="#9D8962" stroke-width="0.706178"/>
<line x1="21.8921" y1="68.8511" x2="0.706749" y2="68.8511" stroke="#9D8962" stroke-width="0.706178"/>
<line x1="21.1853" y1="225.624" x2="-3.8147e-05" y2="225.624" stroke="#9D8962" stroke-width="0.706178"/>
<line x1="362.27" y1="19.4185" x2="317.781" y2="19.4185" stroke="#9D8962" stroke-width="0.706178"/>
<line x1="151.476" y1="19.7749" x2="151.476" y2="0.708099" stroke="#9D8962" stroke-width="0.706178"/>
<line x1="21.539" y1="105.22" x2="21.539" y2="0.705872" stroke="#9D8962" stroke-width="0.706178"/>
<line x1="21.539" y1="233.038" x2="21.539" y2="184.311" stroke="#9D8962" stroke-width="0.706178"/>
<line x1="21.539" y1="290.946" x2="21.539" y2="225.271" stroke="#9D8962" stroke-width="0.706178"/>
<line x1="0.353942" y1="225.271" x2="0.353949" y2="68.4995" stroke="#9D8962" stroke-width="0.706178"/>
<line x1="229.155" y1="22.5977" x2="229.155" y2="-3.81624e-05" stroke="#9D8962" stroke-width="0.706178"/>
<line x1="318.16" y1="19.3892" x2="318.16" y2="0.00038527" stroke="#9D8962" stroke-width="0.65412"/>
<line x1="361.845" y1="291.856" x2="361.845" y2="20.4096" stroke="#9D8962" stroke-width="0.84823"/>
<path d="M56.8605 99.73C58.4005 99.73 59.6605 99.9633 60.6405 100.43C61.6438 100.873 62.5305 101.398 63.3005 102.005C63.7672 102.355 64.1172 102.402 64.3505 102.145C64.6072 101.865 64.7822 101.223 64.8755 100.22H65.6805C65.6338 101.083 65.5988 102.133 65.5755 103.37C65.5522 104.607 65.5405 106.24 65.5405 108.27H64.7355C64.5722 107.267 64.4205 106.473 64.2805 105.89C64.1405 105.283 63.9655 104.77 63.7555 104.35C63.5688 103.93 63.3122 103.51 62.9855 103.09C62.2622 102.133 61.3522 101.445 60.2555 101.025C59.1588 100.582 58.0038 100.36 56.7905 100.36C55.6472 100.36 54.6088 100.652 53.6755 101.235C52.7655 101.795 51.9722 102.612 51.2955 103.685C50.6422 104.758 50.1288 106.053 49.7555 107.57C49.4055 109.087 49.2305 110.79 49.2305 112.68C49.2305 114.64 49.4288 116.378 49.8255 117.895C50.2222 119.388 50.7705 120.648 51.4705 121.675C52.1938 122.702 53.0338 123.483 53.9905 124.02C54.9705 124.533 56.0205 124.79 57.1405 124.79C58.1905 124.79 59.2872 124.58 60.4305 124.16C61.5738 123.74 62.4722 123.063 63.1255 122.13C63.6388 121.453 63.9888 120.718 64.1755 119.925C64.3855 119.132 64.5722 118.023 64.7355 116.6H65.5405C65.5405 118.723 65.5522 120.438 65.5755 121.745C65.5988 123.028 65.6338 124.113 65.6805 125H64.8755C64.7822 123.997 64.6188 123.367 64.3855 123.11C64.1755 122.853 63.8138 122.888 63.3005 123.215C62.4372 123.822 61.5155 124.358 60.5355 124.825C59.5788 125.268 58.3422 125.49 56.8255 125.49C54.6088 125.49 52.6605 124.988 50.9805 123.985C49.3238 122.982 48.0288 121.535 47.0955 119.645C46.1855 117.755 45.7305 115.48 45.7305 112.82C45.7305 110.207 46.2088 107.92 47.1655 105.96C48.1222 104 49.4288 102.472 51.0855 101.375C52.7655 100.278 54.6905 99.73 56.8605 99.73ZM80.9572 99.73C83.1738 99.73 85.1105 100.232 86.7672 101.235C88.4472 102.238 89.7422 103.685 90.6522 105.575C91.5855 107.442 92.0522 109.717 92.0522 112.4C92.0522 115.013 91.5738 117.3 90.6172 119.26C89.6838 121.22 88.3772 122.748 86.6972 123.845C85.0172 124.942 83.0922 125.49 80.9222 125.49C78.7055 125.49 76.7572 124.988 75.0772 123.985C73.4205 122.982 72.1255 121.535 71.1922 119.645C70.2822 117.755 69.8272 115.48 69.8272 112.82C69.8272 110.207 70.3055 107.92 71.2622 105.96C72.2188 104 73.5255 102.472 75.1822 101.375C76.8622 100.278 78.7872 99.73 80.9572 99.73ZM80.8172 100.36C79.3005 100.36 77.9822 100.885 76.8622 101.935C75.7422 102.985 74.8672 104.432 74.2372 106.275C73.6305 108.118 73.3272 110.253 73.3272 112.68C73.3272 115.153 73.6655 117.312 74.3422 119.155C75.0422 120.975 75.9755 122.387 77.1422 123.39C78.3322 124.37 79.6388 124.86 81.0622 124.86C82.5788 124.86 83.8972 124.335 85.0172 123.285C86.1372 122.235 87.0005 120.788 87.6072 118.945C88.2372 117.078 88.5522 114.943 88.5522 112.54C88.5522 110.043 88.2022 107.885 87.5022 106.065C86.8255 104.245 85.9038 102.845 84.7372 101.865C83.5705 100.862 82.2638 100.36 80.8172 100.36ZM95.1111 100.22C95.6011 100.243 96.2428 100.267 97.0361 100.29C97.8294 100.313 98.6111 100.325 99.3811 100.325C100.478 100.325 101.528 100.313 102.531 100.29C103.534 100.267 104.246 100.255 104.666 100.255C107.116 100.255 108.959 100.768 110.196 101.795C111.433 102.822 112.051 104.14 112.051 105.75C112.051 106.567 111.876 107.372 111.526 108.165C111.199 108.935 110.639 109.647 109.846 110.3C109.076 110.93 108.038 111.443 106.731 111.84V111.91C108.574 112.143 110.009 112.587 111.036 113.24C112.086 113.87 112.821 114.617 113.241 115.48C113.661 116.343 113.871 117.253 113.871 118.21C113.871 119.54 113.533 120.718 112.856 121.745C112.203 122.748 111.246 123.542 109.986 124.125C108.726 124.708 107.221 125 105.471 125C104.958 125 104.188 124.988 103.161 124.965C102.134 124.918 100.898 124.895 99.4511 124.895C98.6344 124.895 97.8294 124.907 97.0361 124.93C96.2428 124.93 95.6011 124.953 95.1111 125V124.3C95.9044 124.253 96.4994 124.16 96.8961 124.02C97.3161 123.88 97.5961 123.6 97.7361 123.18C97.8761 122.76 97.9461 122.13 97.9461 121.29V103.93C97.9461 103.067 97.8761 102.437 97.7361 102.04C97.5961 101.62 97.3161 101.34 96.8961 101.2C96.4994 101.037 95.9044 100.943 95.1111 100.92V100.22ZM103.791 100.92C102.718 100.92 102.018 101.118 101.691 101.515C101.364 101.912 101.201 102.717 101.201 103.93V121.29C101.201 122.107 101.271 122.725 101.411 123.145C101.551 123.565 101.808 123.845 102.181 123.985C102.554 124.125 103.103 124.195 103.826 124.195C106.113 124.195 107.769 123.67 108.796 122.62C109.846 121.547 110.371 120.03 110.371 118.07C110.371 116.273 109.881 114.885 108.901 113.905C107.944 112.925 106.358 112.435 104.141 112.435H100.536C100.536 112.435 100.536 112.342 100.536 112.155C100.536 111.945 100.536 111.84 100.536 111.84H103.546C104.923 111.84 105.984 111.583 106.731 111.07C107.478 110.533 107.991 109.833 108.271 108.97C108.551 108.083 108.691 107.138 108.691 106.135C108.691 104.408 108.306 103.113 107.536 102.25C106.789 101.363 105.541 100.92 103.791 100.92ZM128.433 99.73C129.973 99.73 131.233 99.9633 132.213 100.43C133.216 100.873 134.103 101.398 134.873 102.005C135.339 102.355 135.689 102.402 135.923 102.145C136.179 101.865 136.354 101.223 136.448 100.22H137.253C137.206 101.083 137.171 102.133 137.148 103.37C137.124 104.607 137.113 106.24 137.113 108.27H136.308C136.144 107.267 135.993 106.473 135.853 105.89C135.713 105.283 135.538 104.77 135.328 104.35C135.141 103.93 134.884 103.51 134.558 103.09C133.834 102.133 132.924 101.445 131.828 101.025C130.731 100.582 129.576 100.36 128.363 100.36C127.219 100.36 126.181 100.652 125.248 101.235C124.338 101.795 123.544 102.612 122.868 103.685C122.214 104.758 121.701 106.053 121.328 107.57C120.978 109.087 120.803 110.79 120.803 112.68C120.803 114.64 121.001 116.378 121.398 117.895C121.794 119.388 122.343 120.648 123.043 121.675C123.766 122.702 124.606 123.483 125.563 124.02C126.543 124.533 127.593 124.79 128.713 124.79C129.763 124.79 130.859 124.58 132.003 124.16C133.146 123.74 134.044 123.063 134.698 122.13C135.211 121.453 135.561 120.718 135.748 119.925C135.958 119.132 136.144 118.023 136.308 116.6H137.113C137.113 118.723 137.124 120.438 137.148 121.745C137.171 123.028 137.206 124.113 137.253 125H136.448C136.354 123.997 136.191 123.367 135.958 123.11C135.748 122.853 135.386 122.888 134.873 123.215C134.009 123.822 133.088 124.358 132.108 124.825C131.151 125.268 129.914 125.49 128.398 125.49C126.181 125.49 124.233 124.988 122.553 123.985C120.896 122.982 119.601 121.535 118.668 119.645C117.758 117.755 117.303 115.48 117.303 112.82C117.303 110.207 117.781 107.92 118.738 105.96C119.694 104 121.001 102.472 122.658 101.375C124.338 100.278 126.263 99.73 128.433 99.73ZM158.479 100.22C158.386 101.037 158.316 101.83 158.269 102.6C158.246 103.37 158.234 103.953 158.234 104.35C158.234 104.77 158.246 105.178 158.269 105.575C158.293 105.948 158.316 106.263 158.339 106.52H157.534C157.394 105.143 157.196 104.058 156.939 103.265C156.683 102.448 156.239 101.877 155.609 101.55C155.003 101.2 154.081 101.025 152.844 101.025H149.939C149.146 101.025 148.539 101.095 148.119 101.235C147.723 101.352 147.454 101.62 147.314 102.04C147.174 102.437 147.104 103.067 147.104 103.93V121.29C147.104 122.13 147.174 122.76 147.314 123.18C147.454 123.6 147.723 123.88 148.119 124.02C148.539 124.137 149.146 124.195 149.939 124.195H152.494C153.964 124.195 155.073 123.997 155.819 123.6C156.589 123.203 157.138 122.562 157.464 121.675C157.814 120.765 158.071 119.54 158.234 118H159.039C158.969 118.63 158.934 119.47 158.934 120.52C158.934 120.963 158.946 121.605 158.969 122.445C159.016 123.262 159.086 124.113 159.179 125C157.989 124.953 156.648 124.93 155.154 124.93C153.661 124.907 152.331 124.895 151.164 124.895C150.651 124.895 149.986 124.895 149.169 124.895C148.376 124.895 147.513 124.907 146.579 124.93C145.646 124.93 144.701 124.942 143.744 124.965C142.788 124.965 141.878 124.977 141.014 125V124.3C141.808 124.253 142.403 124.16 142.799 124.02C143.219 123.88 143.499 123.6 143.639 123.18C143.779 122.76 143.849 122.13 143.849 121.29V103.93C143.849 103.067 143.779 102.437 143.639 102.04C143.499 101.62 143.219 101.34 142.799 101.2C142.403 101.037 141.808 100.943 141.014 100.92V100.22C141.878 100.243 142.788 100.267 143.744 100.29C144.701 100.29 145.646 100.302 146.579 100.325C147.513 100.325 148.376 100.325 149.169 100.325C149.986 100.325 150.651 100.325 151.164 100.325C152.238 100.325 153.451 100.325 154.804 100.325C156.181 100.302 157.406 100.267 158.479 100.22ZM152.459 112.19C152.459 112.19 152.459 112.307 152.459 112.54C152.459 112.773 152.459 112.89 152.459 112.89H146.054C146.054 112.89 146.054 112.773 146.054 112.54C146.054 112.307 146.054 112.19 146.054 112.19H152.459ZM153.474 107.57C153.381 108.9 153.334 109.915 153.334 110.615C153.358 111.315 153.369 111.957 153.369 112.54C153.369 113.123 153.381 113.765 153.404 114.465C153.428 115.165 153.486 116.18 153.579 117.51H152.774C152.681 116.763 152.564 116.04 152.424 115.34C152.308 114.617 152.028 114.033 151.584 113.59C151.164 113.123 150.441 112.89 149.414 112.89V112.19C150.184 112.19 150.768 112.038 151.164 111.735C151.584 111.408 151.888 111 152.074 110.51C152.261 110.02 152.389 109.518 152.459 109.005C152.529 108.468 152.599 107.99 152.669 107.57H153.474ZM189.888 100.22V100.92C189.094 100.943 188.488 101.037 188.068 101.2C187.671 101.34 187.403 101.62 187.263 102.04C187.123 102.437 187.053 103.067 187.053 103.93V121.29C187.053 122.13 187.123 122.76 187.263 123.18C187.403 123.6 187.671 123.88 188.068 124.02C188.488 124.16 189.094 124.253 189.888 124.3V125C189.351 124.953 188.674 124.93 187.858 124.93C187.064 124.907 186.259 124.895 185.443 124.895C184.533 124.895 183.681 124.907 182.888 124.93C182.094 124.93 181.453 124.953 180.963 125V124.3C181.756 124.253 182.351 124.16 182.748 124.02C183.168 123.88 183.448 123.6 183.588 123.18C183.728 122.76 183.798 122.13 183.798 121.29V102.04L183.938 102.145L175.363 125.175H174.803L165.983 102.46V120.94C165.983 121.78 166.053 122.445 166.193 122.935C166.356 123.402 166.659 123.74 167.103 123.95C167.569 124.137 168.258 124.253 169.168 124.3V125C168.748 124.953 168.199 124.93 167.523 124.93C166.846 124.907 166.204 124.895 165.598 124.895C165.014 124.895 164.419 124.907 163.813 124.93C163.229 124.93 162.739 124.953 162.343 125V124.3C163.136 124.253 163.731 124.137 164.128 123.95C164.548 123.74 164.828 123.402 164.968 122.935C165.108 122.445 165.178 121.78 165.178 120.94V103.93C165.178 103.067 165.108 102.437 164.968 102.04C164.828 101.62 164.548 101.34 164.128 101.2C163.731 101.037 163.136 100.943 162.343 100.92V100.22C162.739 100.243 163.229 100.267 163.813 100.29C164.419 100.313 165.014 100.325 165.598 100.325C166.111 100.325 166.636 100.313 167.173 100.29C167.733 100.267 168.199 100.243 168.573 100.22L176.518 121.15L175.923 121.43L183.798 100.325C184.078 100.325 184.346 100.325 184.603 100.325C184.883 100.325 185.163 100.325 185.443 100.325C186.259 100.325 187.064 100.313 187.858 100.29C188.674 100.267 189.351 100.243 189.888 100.22ZM213.062 99.73C214.602 99.73 215.862 99.9633 216.842 100.43C217.845 100.873 218.732 101.398 219.502 102.005C219.968 102.355 220.318 102.402 220.552 102.145C220.808 101.865 220.983 101.223 221.077 100.22H221.882C221.835 101.083 221.8 102.133 221.777 103.37C221.753 104.607 221.742 106.24 221.742 108.27H220.937C220.773 107.267 220.622 106.473 220.482 105.89C220.342 105.283 220.167 104.77 219.957 104.35C219.77 103.93 219.513 103.51 219.187 103.09C218.463 102.133 217.553 101.445 216.457 101.025C215.36 100.582 214.205 100.36 212.992 100.36C211.848 100.36 210.81 100.652 209.877 101.235C208.967 101.795 208.173 102.612 207.497 103.685C206.843 104.758 206.33 106.053 205.957 107.57C205.607 109.087 205.432 110.79 205.432 112.68C205.432 114.64 205.63 116.378 206.027 117.895C206.423 119.388 206.972 120.648 207.672 121.675C208.395 122.702 209.235 123.483 210.192 124.02C211.172 124.533 212.222 124.79 213.342 124.79C214.392 124.79 215.488 124.58 216.632 124.16C217.775 123.74 218.673 123.063 219.327 122.13C219.84 121.453 220.19 120.718 220.377 119.925C220.587 119.132 220.773 118.023 220.937 116.6H221.742C221.742 118.723 221.753 120.438 221.777 121.745C221.8 123.028 221.835 124.113 221.882 125H221.077C220.983 123.997 220.82 123.367 220.587 123.11C220.377 122.853 220.015 122.888 219.502 123.215C218.638 123.822 217.717 124.358 216.737 124.825C215.78 125.268 214.543 125.49 213.027 125.49C210.81 125.49 208.862 124.988 207.182 123.985C205.525 122.982 204.23 121.535 203.297 119.645C202.387 117.755 201.932 115.48 201.932 112.82C201.932 110.207 202.41 107.92 203.367 105.96C204.323 104 205.63 102.472 207.287 101.375C208.967 100.278 210.892 99.73 213.062 99.73ZM234.568 100.22V100.92C233.775 100.943 233.168 101.037 232.748 101.2C232.352 101.34 232.083 101.62 231.943 102.04C231.803 102.437 231.733 103.067 231.733 103.93V121.29C231.733 122.13 231.803 122.76 231.943 123.18C232.083 123.6 232.352 123.88 232.748 124.02C233.168 124.16 233.775 124.253 234.568 124.3V125C234.032 124.953 233.355 124.93 232.538 124.93C231.745 124.907 230.94 124.895 230.123 124.895C229.213 124.895 228.362 124.907 227.568 124.93C226.775 124.93 226.133 124.953 225.643 125V124.3C226.437 124.253 227.032 124.16 227.428 124.02C227.848 123.88 228.128 123.6 228.268 123.18C228.408 122.76 228.478 122.13 228.478 121.29V103.93C228.478 103.067 228.408 102.437 228.268 102.04C228.128 101.62 227.848 101.34 227.428 101.2C227.032 101.037 226.437 100.943 225.643 100.92V100.22C226.133 100.243 226.775 100.267 227.568 100.29C228.362 100.313 229.213 100.325 230.123 100.325C230.94 100.325 231.745 100.313 232.538 100.29C233.355 100.267 234.032 100.243 234.568 100.22ZM234.183 111.84C235.42 111.84 236.575 111.968 237.648 112.225C238.745 112.482 239.678 112.972 240.448 113.695C241.218 114.418 241.767 115.492 242.093 116.915L243.108 121.325C243.365 122.398 243.598 123.157 243.808 123.6C244.018 124.02 244.38 124.218 244.893 124.195C245.29 124.172 245.617 124.043 245.873 123.81C246.153 123.577 246.445 123.262 246.748 122.865L247.273 123.25C246.83 123.903 246.34 124.44 245.803 124.86C245.267 125.28 244.508 125.49 243.528 125.49C242.712 125.49 241.965 125.257 241.288 124.79C240.635 124.3 240.133 123.273 239.783 121.71L238.803 117.37C238.593 116.39 238.348 115.538 238.068 114.815C237.788 114.092 237.345 113.532 236.738 113.135C236.132 112.715 235.233 112.505 234.043 112.505H231.068V111.84H234.183ZM231.733 112.505V111.84C232.713 111.817 233.53 111.618 234.183 111.245C234.86 110.848 235.42 110.37 235.863 109.81L239.223 105.54C239.993 104.56 240.518 103.732 240.798 103.055C241.078 102.378 241.067 101.865 240.763 101.515C240.46 101.142 239.818 100.943 238.838 100.92V100.22C239.282 100.243 239.737 100.267 240.203 100.29C240.67 100.29 241.125 100.302 241.568 100.325C242.035 100.325 242.467 100.325 242.863 100.325C243.47 100.325 244.03 100.313 244.543 100.29C245.057 100.267 245.488 100.243 245.838 100.22V100.92C245.115 101.013 244.415 101.258 243.738 101.655C243.062 102.028 242.385 102.635 241.708 103.475L234.603 112.505H231.733ZM260.025 99.73C262.241 99.73 264.178 100.232 265.835 101.235C267.515 102.238 268.81 103.685 269.72 105.575C270.653 107.442 271.12 109.717 271.12 112.4C271.12 115.013 270.641 117.3 269.685 119.26C268.751 121.22 267.445 122.748 265.765 123.845C264.085 124.942 262.16 125.49 259.99 125.49C257.773 125.49 255.825 124.988 254.145 123.985C252.488 122.982 251.193 121.535 250.26 119.645C249.35 117.755 248.895 115.48 248.895 112.82C248.895 110.207 249.373 107.92 250.33 105.96C251.286 104 252.593 102.472 254.25 101.375C255.93 100.278 257.855 99.73 260.025 99.73ZM259.885 100.36C258.368 100.36 257.05 100.885 255.93 101.935C254.81 102.985 253.935 104.432 253.305 106.275C252.698 108.118 252.395 110.253 252.395 112.68C252.395 115.153 252.733 117.312 253.41 119.155C254.11 120.975 255.043 122.387 256.21 123.39C257.4 124.37 258.706 124.86 260.13 124.86C261.646 124.86 262.965 124.335 264.085 123.285C265.205 122.235 266.068 120.788 266.675 118.945C267.305 117.078 267.62 114.943 267.62 112.54C267.62 110.043 267.27 107.885 266.57 106.065C265.893 104.245 264.971 102.845 263.805 101.865C262.638 100.862 261.331 100.36 259.885 100.36ZM274.178 100.22C274.668 100.243 275.31 100.267 276.103 100.29C276.897 100.313 277.678 100.325 278.448 100.325C279.545 100.325 280.595 100.313 281.598 100.29C282.602 100.267 283.313 100.255 283.733 100.255C286.557 100.255 288.668 100.897 290.068 102.18C291.468 103.463 292.168 105.12 292.168 107.15C292.168 107.99 292.028 108.877 291.748 109.81C291.468 110.72 290.978 111.572 290.278 112.365C289.602 113.135 288.668 113.765 287.478 114.255C286.288 114.745 284.783 114.99 282.963 114.99H279.603V114.29H282.613C284.27 114.29 285.53 113.975 286.393 113.345C287.28 112.715 287.875 111.887 288.178 110.86C288.505 109.833 288.668 108.725 288.668 107.535C288.668 105.318 288.225 103.662 287.338 102.565C286.475 101.468 284.982 100.92 282.858 100.92C281.785 100.92 281.085 101.118 280.758 101.515C280.432 101.912 280.268 102.717 280.268 103.93V121.29C280.268 122.13 280.35 122.76 280.513 123.18C280.7 123.6 281.05 123.88 281.563 124.02C282.077 124.16 282.823 124.253 283.803 124.3V125C283.197 124.953 282.427 124.93 281.493 124.93C280.56 124.907 279.615 124.895 278.658 124.895C277.748 124.895 276.897 124.907 276.103 124.93C275.31 124.93 274.668 124.953 274.178 125V124.3C274.972 124.253 275.567 124.16 275.963 124.02C276.383 123.88 276.663 123.6 276.803 123.18C276.943 122.76 277.013 122.13 277.013 121.29V103.93C277.013 103.067 276.943 102.437 276.803 102.04C276.663 101.62 276.383 101.34 275.963 101.2C275.567 101.037 274.972 100.943 274.178 100.92V100.22ZM306.167 99.73C308.384 99.73 310.32 100.232 311.977 101.235C313.657 102.238 314.952 103.685 315.862 105.575C316.795 107.442 317.262 109.717 317.262 112.4C317.262 115.013 316.784 117.3 315.827 119.26C314.894 121.22 313.587 122.748 311.907 123.845C310.227 124.942 308.302 125.49 306.132 125.49C303.915 125.49 301.967 124.988 300.287 123.985C298.63 122.982 297.335 121.535 296.402 119.645C295.492 117.755 295.037 115.48 295.037 112.82C295.037 110.207 295.515 107.92 296.472 105.96C297.429 104 298.735 102.472 300.392 101.375C302.072 100.278 303.997 99.73 306.167 99.73ZM306.027 100.36C304.51 100.36 303.192 100.885 302.072 101.935C300.952 102.985 300.077 104.432 299.447 106.275C298.84 108.118 298.537 110.253 298.537 112.68C298.537 115.153 298.875 117.312 299.552 119.155C300.252 120.975 301.185 122.387 302.352 123.39C303.542 124.37 304.849 124.86 306.272 124.86C307.789 124.86 309.107 124.335 310.227 123.285C311.347 122.235 312.21 120.788 312.817 118.945C313.447 117.078 313.762 114.943 313.762 112.54C313.762 110.043 313.412 107.885 312.712 106.065C312.035 104.245 311.114 102.845 309.947 101.865C308.78 100.862 307.474 100.36 306.027 100.36ZM111.131 135.22C111.038 136.107 110.968 136.97 110.921 137.81C110.898 138.627 110.886 139.257 110.886 139.7C110.886 140.26 110.898 140.785 110.921 141.275C110.944 141.765 110.968 142.197 110.991 142.57H110.186C110.023 140.937 109.801 139.653 109.521 138.72C109.241 137.763 108.751 137.075 108.051 136.655C107.351 136.235 106.266 136.025 104.796 136.025H102.906V155.94C102.906 156.873 102.988 157.573 103.151 158.04C103.338 158.507 103.688 158.822 104.201 158.985C104.714 159.148 105.461 159.253 106.441 159.3V160C105.834 159.953 105.064 159.93 104.131 159.93C103.198 159.907 102.253 159.895 101.296 159.895C100.246 159.895 99.2545 159.907 98.3211 159.93C97.4111 159.93 96.6761 159.953 96.1161 160V159.3C97.0961 159.253 97.8428 159.148 98.3561 158.985C98.8695 158.822 99.2078 158.507 99.3711 158.04C99.5578 157.573 99.6511 156.873 99.6511 155.94V136.025H97.7611C96.3145 136.025 95.2295 136.235 94.5061 136.655C93.8061 137.075 93.3161 137.763 93.0361 138.72C92.7561 139.653 92.5345 140.937 92.3711 142.57H91.5661C91.6128 142.197 91.6361 141.765 91.6361 141.275C91.6595 140.785 91.6711 140.26 91.6711 139.7C91.6711 139.257 91.6478 138.627 91.6011 137.81C91.5778 136.97 91.5195 136.107 91.4261 135.22C92.4061 135.243 93.4678 135.267 94.6111 135.29C95.7778 135.313 96.9445 135.325 98.1111 135.325C99.2778 135.325 100.339 135.325 101.296 135.325C102.253 135.325 103.303 135.325 104.446 135.325C105.613 135.325 106.779 135.313 107.946 135.29C109.113 135.267 110.174 135.243 111.131 135.22ZM135.109 135.22V135.92C134.666 136.013 134.223 136.305 133.779 136.795C133.336 137.262 132.846 138.008 132.309 139.035L124.154 155.275H123.559L114.109 137.915C113.643 137.052 113.246 136.515 112.919 136.305C112.616 136.072 112.336 135.955 112.079 135.955V135.22C112.383 135.243 112.698 135.267 113.024 135.29C113.351 135.29 113.689 135.302 114.039 135.325C114.389 135.325 114.763 135.325 115.159 135.325C115.673 135.325 116.209 135.325 116.769 135.325C117.329 135.325 117.889 135.313 118.449 135.29C119.033 135.267 119.569 135.243 120.059 135.22V135.955C119.476 135.955 118.963 136.025 118.519 136.165C118.076 136.305 117.784 136.562 117.644 136.935C117.504 137.308 117.609 137.833 117.959 138.51L125.239 152.09L124.854 152.3L130.594 140.785C131.248 139.502 131.563 138.51 131.539 137.81C131.539 137.11 131.271 136.632 130.734 136.375C130.198 136.095 129.439 135.943 128.459 135.92V135.22C129.136 135.243 129.824 135.267 130.524 135.29C131.224 135.313 131.878 135.325 132.484 135.325C133.091 135.325 133.593 135.313 133.989 135.29C134.386 135.267 134.759 135.243 135.109 135.22ZM124.259 153.56L124.889 153.805L123.244 157.13C122.941 157.737 122.673 158.215 122.439 158.565C122.206 158.915 121.961 159.218 121.704 159.475C121.331 159.848 120.899 160.105 120.409 160.245C119.943 160.408 119.499 160.49 119.079 160.49C118.379 160.49 117.796 160.315 117.329 159.965C116.863 159.592 116.629 159.067 116.629 158.39C116.629 157.83 116.804 157.387 117.154 157.06C117.528 156.71 117.971 156.535 118.484 156.535C118.974 156.535 119.394 156.675 119.744 156.955C120.094 157.235 120.269 157.643 120.269 158.18C120.269 158.553 120.176 158.88 119.989 159.16C119.803 159.417 119.581 159.615 119.324 159.755C119.371 159.778 119.406 159.79 119.429 159.79C119.476 159.79 119.511 159.79 119.534 159.79C120.164 159.79 120.713 159.557 121.179 159.09C121.669 158.623 122.124 157.958 122.544 157.095L124.259 153.56ZM155.531 135.22C155.437 136.107 155.367 136.97 155.321 137.81C155.297 138.627 155.286 139.257 155.286 139.7C155.286 140.26 155.297 140.785 155.321 141.275C155.344 141.765 155.367 142.197 155.391 142.57H154.586C154.422 140.937 154.201 139.653 153.921 138.72C153.641 137.763 153.151 137.075 152.451 136.655C151.751 136.235 150.666 136.025 149.196 136.025H147.306V155.94C147.306 156.873 147.387 157.573 147.551 158.04C147.737 158.507 148.087 158.822 148.601 158.985C149.114 159.148 149.861 159.253 150.841 159.3V160C150.234 159.953 149.464 159.93 148.531 159.93C147.597 159.907 146.652 159.895 145.696 159.895C144.646 159.895 143.654 159.907 142.721 159.93C141.811 159.93 141.076 159.953 140.516 160V159.3C141.496 159.253 142.242 159.148 142.756 158.985C143.269 158.822 143.607 158.507 143.771 158.04C143.957 157.573 144.051 156.873 144.051 155.94V136.025H142.161C140.714 136.025 139.629 136.235 138.906 136.655C138.206 137.075 137.716 137.763 137.436 138.72C137.156 139.653 136.934 140.937 136.771 142.57H135.966C136.012 142.197 136.036 141.765 136.036 141.275C136.059 140.785 136.071 140.26 136.071 139.7C136.071 139.257 136.047 138.627 136.001 137.81C135.977 136.97 135.919 136.107 135.826 135.22C136.806 135.243 137.867 135.267 139.011 135.29C140.177 135.313 141.344 135.325 142.511 135.325C143.677 135.325 144.739 135.325 145.696 135.325C146.652 135.325 147.702 135.325 148.846 135.325C150.012 135.325 151.179 135.313 152.346 135.29C153.512 135.267 154.574 135.243 155.531 135.22ZM183.15 135.22C183.056 136.037 182.986 136.83 182.94 137.6C182.916 138.37 182.905 138.953 182.905 139.35C182.905 139.77 182.916 140.178 182.94 140.575C182.963 140.948 182.986 141.263 183.01 141.52H182.205C182.065 140.143 181.866 139.058 181.61 138.265C181.353 137.448 180.91 136.877 180.28 136.55C179.673 136.2 178.751 136.025 177.515 136.025H175.66C174.866 136.025 174.26 136.095 173.84 136.235C173.443 136.352 173.175 136.62 173.035 137.04C172.895 137.437 172.825 138.067 172.825 138.93V156.29C172.825 157.107 172.871 157.737 172.965 158.18C173.081 158.623 173.303 158.927 173.63 159.09C173.98 159.23 174.493 159.3 175.17 159.3C176.78 159.3 177.993 159.008 178.81 158.425C179.65 157.818 180.221 157.013 180.525 156.01C180.828 154.983 180.98 153.863 180.98 152.65C180.98 151.11 180.781 149.85 180.385 148.87C180.011 147.867 179.37 147.132 178.46 146.665C177.573 146.175 176.371 145.93 174.855 145.93C174.598 145.93 174.178 145.942 173.595 145.965C173.035 145.965 172.486 145.977 171.95 146C171.413 146 171.04 146 170.83 146L170.76 145.335C171.856 145.335 172.906 145.323 173.91 145.3C174.913 145.277 175.625 145.265 176.045 145.265C177.445 145.265 178.67 145.452 179.72 145.825C180.793 146.175 181.68 146.677 182.38 147.33C183.08 147.983 183.605 148.765 183.955 149.675C184.305 150.562 184.48 151.542 184.48 152.615C184.48 153.525 184.34 154.423 184.06 155.31C183.78 156.173 183.29 156.967 182.59 157.69C181.913 158.39 180.98 158.95 179.79 159.37C178.6 159.79 177.095 160 175.275 160C174.668 160 174.061 159.988 173.455 159.965C172.871 159.918 172.008 159.895 170.865 159.895C170.211 159.895 169.476 159.907 168.66 159.93C167.866 159.93 167.225 159.953 166.735 160V159.3C167.528 159.253 168.123 159.16 168.52 159.02C168.94 158.88 169.22 158.6 169.36 158.18C169.5 157.76 169.57 157.13 169.57 156.29V138.93C169.57 138.067 169.5 137.437 169.36 137.04C169.22 136.62 168.94 136.34 168.52 136.2C168.123 136.037 167.528 135.943 166.735 135.92V135.22C167.598 135.243 168.508 135.267 169.465 135.29C170.421 135.29 171.366 135.302 172.3 135.325C173.233 135.325 174.096 135.325 174.89 135.325C175.706 135.325 176.371 135.325 176.885 135.325C177.795 135.325 178.833 135.325 180 135.325C181.166 135.302 182.216 135.267 183.15 135.22ZM209.074 135.22V135.92C208.631 136.013 208.188 136.305 207.744 136.795C207.301 137.262 206.811 138.008 206.274 139.035L198.119 155.275H197.524L188.074 137.915C187.608 137.052 187.211 136.515 186.884 136.305C186.581 136.072 186.301 135.955 186.044 135.955V135.22C186.348 135.243 186.663 135.267 186.989 135.29C187.316 135.29 187.654 135.302 188.004 135.325C188.354 135.325 188.728 135.325 189.124 135.325C189.638 135.325 190.174 135.325 190.734 135.325C191.294 135.325 191.854 135.313 192.414 135.29C192.998 135.267 193.534 135.243 194.024 135.22V135.955C193.441 135.955 192.928 136.025 192.484 136.165C192.041 136.305 191.749 136.562 191.609 136.935C191.469 137.308 191.574 137.833 191.924 138.51L199.204 152.09L198.819 152.3L204.559 140.785C205.213 139.502 205.528 138.51 205.504 137.81C205.504 137.11 205.236 136.632 204.699 136.375C204.163 136.095 203.404 135.943 202.424 135.92V135.22C203.101 135.243 203.789 135.267 204.489 135.29C205.189 135.313 205.843 135.325 206.449 135.325C207.056 135.325 207.558 135.313 207.954 135.29C208.351 135.267 208.724 135.243 209.074 135.22ZM198.224 153.56L198.854 153.805L197.209 157.13C196.906 157.737 196.638 158.215 196.404 158.565C196.171 158.915 195.926 159.218 195.669 159.475C195.296 159.848 194.864 160.105 194.374 160.245C193.908 160.408 193.464 160.49 193.044 160.49C192.344 160.49 191.761 160.315 191.294 159.965C190.828 159.592 190.594 159.067 190.594 158.39C190.594 157.83 190.769 157.387 191.119 157.06C191.493 156.71 191.936 156.535 192.449 156.535C192.939 156.535 193.359 156.675 193.709 156.955C194.059 157.235 194.234 157.643 194.234 158.18C194.234 158.553 194.141 158.88 193.954 159.16C193.768 159.417 193.546 159.615 193.289 159.755C193.336 159.778 193.371 159.79 193.394 159.79C193.441 159.79 193.476 159.79 193.499 159.79C194.129 159.79 194.678 159.557 195.144 159.09C195.634 158.623 196.089 157.958 196.509 157.095L198.224 153.56ZM227.776 135.22V135.92C226.982 135.943 226.376 136.037 225.956 136.2C225.559 136.34 225.291 136.62 225.151 137.04C225.011 137.437 224.941 138.067 224.941 138.93V156.29C224.941 157.13 225.011 157.772 225.151 158.215C225.291 158.635 225.559 158.927 225.956 159.09C226.376 159.23 226.982 159.3 227.776 159.3H228.861C228.767 160.117 228.697 160.91 228.651 161.68C228.627 162.45 228.616 163.033 228.616 163.43C228.616 163.85 228.627 164.247 228.651 164.62C228.674 165.017 228.697 165.343 228.721 165.6H227.916C227.776 164.223 227.577 163.127 227.321 162.31C227.064 161.493 226.621 160.898 225.991 160.525C225.384 160.175 224.462 160 223.226 160H213.251C212.014 160 211.081 160.175 210.451 160.525C209.844 160.898 209.412 161.493 209.156 162.31C208.922 163.127 208.724 164.223 208.561 165.6H207.756C207.802 165.343 207.826 165.017 207.826 164.62C207.849 164.247 207.861 163.85 207.861 163.43C207.861 163.033 207.837 162.45 207.791 161.68C207.767 160.91 207.709 160.117 207.616 159.3H218.851C219.644 159.3 220.239 159.23 220.636 159.09C221.056 158.927 221.336 158.635 221.476 158.215C221.616 157.772 221.686 157.13 221.686 156.29V138.93C221.686 138.067 221.616 137.425 221.476 137.005C221.336 136.585 221.056 136.305 220.636 136.165C220.239 136.002 219.644 135.92 218.851 135.92H218.396C217.579 135.92 216.984 136.002 216.611 136.165C216.237 136.305 215.992 136.597 215.876 137.04C215.759 137.46 215.654 138.09 215.561 138.93C215.444 140.26 215.327 141.695 215.211 143.235C215.117 144.775 214.989 146.338 214.826 147.925C214.662 149.488 214.429 150.993 214.126 152.44C213.846 153.863 213.461 155.147 212.971 156.29C212.481 157.41 211.851 158.308 211.081 158.985C210.311 159.638 209.366 159.965 208.246 159.965V159.3C209.319 159.3 210.217 158.903 210.941 158.11C211.664 157.293 212.247 156.197 212.691 154.82C213.157 153.443 213.519 151.88 213.776 150.13C214.032 148.357 214.231 146.513 214.371 144.6C214.511 142.687 214.639 140.797 214.756 138.93C214.802 138.113 214.756 137.495 214.616 137.075C214.499 136.655 214.231 136.363 213.811 136.2C213.391 136.037 212.761 135.943 211.921 135.92V135.22C212.411 135.243 212.994 135.267 213.671 135.29C214.347 135.313 214.966 135.325 215.526 135.325C216.062 135.325 216.576 135.313 217.066 135.29C217.579 135.243 218.092 135.22 218.606 135.22C219.492 135.22 220.297 135.243 221.021 135.29C221.744 135.313 222.607 135.325 223.611 135.325C224.077 135.325 224.567 135.325 225.081 135.325C225.594 135.302 226.084 135.29 226.551 135.29C227.041 135.267 227.449 135.243 227.776 135.22ZM248.457 135.22C248.364 136.037 248.294 136.83 248.247 137.6C248.224 138.37 248.212 138.953 248.212 139.35C248.212 139.77 248.224 140.178 248.247 140.575C248.271 140.948 248.294 141.263 248.317 141.52H247.512C247.372 140.143 247.174 139.058 246.917 138.265C246.661 137.448 246.217 136.877 245.587 136.55C244.981 136.2 244.059 136.025 242.822 136.025H239.917C239.124 136.025 238.517 136.095 238.097 136.235C237.701 136.352 237.432 136.62 237.292 137.04C237.152 137.437 237.082 138.067 237.082 138.93V156.29C237.082 157.13 237.152 157.76 237.292 158.18C237.432 158.6 237.701 158.88 238.097 159.02C238.517 159.137 239.124 159.195 239.917 159.195H242.472C243.942 159.195 245.051 158.997 245.797 158.6C246.567 158.203 247.116 157.562 247.442 156.675C247.792 155.765 248.049 154.54 248.212 153H249.017C248.947 153.63 248.912 154.47 248.912 155.52C248.912 155.963 248.924 156.605 248.947 157.445C248.994 158.262 249.064 159.113 249.157 160C247.967 159.953 246.626 159.93 245.132 159.93C243.639 159.907 242.309 159.895 241.142 159.895C240.629 159.895 239.964 159.895 239.147 159.895C238.354 159.895 237.491 159.907 236.557 159.93C235.624 159.93 234.679 159.942 233.722 159.965C232.766 159.965 231.856 159.977 230.992 160V159.3C231.786 159.253 232.381 159.16 232.777 159.02C233.197 158.88 233.477 158.6 233.617 158.18C233.757 157.76 233.827 157.13 233.827 156.29V138.93C233.827 138.067 233.757 137.437 233.617 137.04C233.477 136.62 233.197 136.34 232.777 136.2C232.381 136.037 231.786 135.943 230.992 135.92V135.22C231.856 135.243 232.766 135.267 233.722 135.29C234.679 135.29 235.624 135.302 236.557 135.325C237.491 135.325 238.354 135.325 239.147 135.325C239.964 135.325 240.629 135.325 241.142 135.325C242.216 135.325 243.429 135.325 244.782 135.325C246.159 135.302 247.384 135.267 248.457 135.22ZM242.437 147.19C242.437 147.19 242.437 147.307 242.437 147.54C242.437 147.773 242.437 147.89 242.437 147.89H236.032C236.032 147.89 236.032 147.773 236.032 147.54C236.032 147.307 236.032 147.19 236.032 147.19H242.437ZM243.452 142.57C243.359 143.9 243.312 144.915 243.312 145.615C243.336 146.315 243.347 146.957 243.347 147.54C243.347 148.123 243.359 148.765 243.382 149.465C243.406 150.165 243.464 151.18 243.557 152.51H242.752C242.659 151.763 242.542 151.04 242.402 150.34C242.286 149.617 242.006 149.033 241.562 148.59C241.142 148.123 240.419 147.89 239.392 147.89V147.19C240.162 147.19 240.746 147.038 241.142 146.735C241.562 146.408 241.866 146 242.052 145.51C242.239 145.02 242.367 144.518 242.437 144.005C242.507 143.468 242.577 142.99 242.647 142.57H243.452ZM271.571 135.22C271.477 136.107 271.407 136.97 271.361 137.81C271.337 138.627 271.326 139.257 271.326 139.7C271.326 140.26 271.337 140.785 271.361 141.275C271.384 141.765 271.407 142.197 271.431 142.57H270.626C270.462 140.937 270.241 139.653 269.961 138.72C269.681 137.763 269.191 137.075 268.491 136.655C267.791 136.235 266.706 136.025 265.236 136.025H263.346V155.94C263.346 156.873 263.427 157.573 263.591 158.04C263.777 158.507 264.127 158.822 264.641 158.985C265.154 159.148 265.901 159.253 266.881 159.3V160C266.274 159.953 265.504 159.93 264.571 159.93C263.637 159.907 262.692 159.895 261.736 159.895C260.686 159.895 259.694 159.907 258.761 159.93C257.851 159.93 257.116 159.953 256.556 160V159.3C257.536 159.253 258.282 159.148 258.796 158.985C259.309 158.822 259.647 158.507 259.811 158.04C259.997 157.573 260.091 156.873 260.091 155.94V136.025H258.201C256.754 136.025 255.669 136.235 254.946 136.655C254.246 137.075 253.756 137.763 253.476 138.72C253.196 139.653 252.974 140.937 252.811 142.57H252.006C252.052 142.197 252.076 141.765 252.076 141.275C252.099 140.785 252.111 140.26 252.111 139.7C252.111 139.257 252.087 138.627 252.041 137.81C252.017 136.97 251.959 136.107 251.866 135.22C252.846 135.243 253.907 135.267 255.051 135.29C256.217 135.313 257.384 135.325 258.551 135.325C259.717 135.325 260.779 135.325 261.736 135.325C262.692 135.325 263.742 135.325 264.886 135.325C266.052 135.325 267.219 135.313 268.386 135.29C269.552 135.267 270.614 135.243 271.571 135.22ZM86.6227 170.22V170.92C85.8293 170.943 85.2227 171.037 84.8027 171.2C84.406 171.34 84.1377 171.62 83.9977 172.04C83.8577 172.437 83.7877 173.067 83.7877 173.93V191.29C83.7877 192.13 83.8577 192.76 83.9977 193.18C84.1377 193.6 84.406 193.88 84.8027 194.02C85.2227 194.16 85.8293 194.253 86.6227 194.3V195C86.1327 194.953 85.491 194.93 84.6977 194.93C83.9043 194.907 83.0527 194.895 82.1427 194.895C81.3493 194.895 80.5443 194.907 79.7277 194.93C78.911 194.93 78.2343 194.953 77.6977 195V194.3C78.491 194.253 79.086 194.16 79.4827 194.02C79.9027 193.88 80.1827 193.6 80.3227 193.18C80.4627 192.76 80.5327 192.13 80.5327 191.29V173.93C80.5327 173.067 80.4627 172.425 80.3227 172.005C80.1827 171.585 79.9027 171.305 79.4827 171.165C79.086 171.002 78.491 170.92 77.6977 170.92H71.9927C71.1993 170.92 70.5927 171.002 70.1727 171.165C69.776 171.305 69.5077 171.585 69.3677 172.005C69.2277 172.425 69.1577 173.067 69.1577 173.93V191.29C69.1577 192.13 69.2277 192.76 69.3677 193.18C69.5077 193.6 69.776 193.88 70.1727 194.02C70.5927 194.16 71.1993 194.253 71.9927 194.3V195C71.456 194.953 70.7793 194.93 69.9627 194.93C69.1693 194.907 68.3643 194.895 67.5477 194.895C66.6377 194.895 65.786 194.907 64.9927 194.93C64.1993 194.93 63.5577 194.953 63.0677 195V194.3C63.861 194.253 64.456 194.16 64.8527 194.02C65.2727 193.88 65.5527 193.6 65.6927 193.18C65.8327 192.76 65.9027 192.13 65.9027 191.29V173.93C65.9027 173.067 65.8327 172.437 65.6927 172.04C65.5527 171.62 65.2727 171.34 64.8527 171.2C64.456 171.037 63.861 170.943 63.0677 170.92V170.22C63.5577 170.243 64.1993 170.267 64.9927 170.29C65.786 170.313 66.6377 170.325 67.5477 170.325C68.9243 170.325 70.2893 170.313 71.6427 170.29C72.996 170.243 74.081 170.22 74.8977 170.22C75.7143 170.22 76.7877 170.243 78.1177 170.29C79.4477 170.313 80.7893 170.325 82.1427 170.325C83.0527 170.325 83.9043 170.313 84.6977 170.29C85.491 170.267 86.1327 170.243 86.6227 170.22ZM110.697 170.22V170.92C109.904 170.943 109.297 171.037 108.877 171.2C108.48 171.34 108.212 171.62 108.072 172.04C107.932 172.437 107.862 173.067 107.862 173.93V191.29C107.862 192.13 107.932 192.76 108.072 193.18C108.212 193.6 108.48 193.88 108.877 194.02C109.297 194.16 109.904 194.253 110.697 194.3V195C110.207 194.953 109.565 194.93 108.772 194.93C107.979 194.907 107.127 194.895 106.217 194.895C105.284 194.895 104.339 194.907 103.382 194.93C102.449 194.93 101.679 194.953 101.072 195V194.3C102.052 194.253 102.799 194.16 103.312 194.02C103.825 193.88 104.164 193.6 104.327 193.18C104.514 192.76 104.607 192.13 104.607 191.29V173.93C104.607 173.067 104.537 172.425 104.397 172.005C104.257 171.585 103.977 171.305 103.557 171.165C103.16 171.002 102.565 170.92 101.772 170.92H101.317C100.5 170.92 99.8936 171.002 99.4969 171.165C99.1236 171.305 98.8786 171.597 98.7619 172.04C98.6452 172.46 98.5519 173.09 98.4819 173.93C98.3652 175.307 98.2486 176.788 98.1319 178.375C98.0386 179.962 97.9102 181.56 97.7469 183.17C97.6069 184.78 97.3852 186.32 97.0819 187.79C96.7786 189.26 96.3819 190.578 95.8919 191.745C95.4019 192.888 94.7719 193.798 94.0019 194.475C93.2319 195.152 92.2869 195.49 91.1669 195.49C90.3969 195.49 89.6736 195.315 88.9969 194.965C88.3202 194.592 87.9819 193.973 87.9819 193.11C87.9819 192.503 88.1802 192.025 88.5769 191.675C88.9736 191.302 89.4636 191.115 90.0469 191.115C90.5602 191.115 90.9802 191.255 91.3069 191.535C91.6569 191.815 91.8319 192.188 91.8319 192.655C91.8319 193.168 91.7036 193.588 91.4469 193.915C91.1902 194.218 90.8169 194.51 90.3269 194.79C90.4902 194.813 90.6419 194.825 90.7819 194.825C90.9452 194.825 91.0736 194.825 91.1669 194.825C92.2402 194.825 93.1386 194.417 93.8619 193.6C94.5852 192.783 95.1686 191.675 95.6119 190.275C96.0786 188.852 96.4402 187.242 96.6969 185.445C96.9536 183.648 97.1519 181.77 97.2919 179.81C97.4319 177.827 97.5602 175.867 97.6769 173.93C97.7469 173.113 97.7119 172.495 97.5719 172.075C97.4552 171.655 97.1752 171.363 96.7319 171.2C96.3119 171.037 95.6819 170.943 94.8419 170.92V170.22C95.3319 170.243 95.9152 170.267 96.5919 170.29C97.2686 170.313 97.8869 170.325 98.4469 170.325C98.9836 170.325 99.4969 170.313 99.9869 170.29C100.5 170.243 101.014 170.22 101.527 170.22C102.414 170.22 103.219 170.243 103.942 170.29C104.665 170.313 105.529 170.325 106.532 170.325C106.999 170.325 107.489 170.325 108.002 170.325C108.515 170.302 109.005 170.29 109.472 170.29C109.962 170.267 110.37 170.243 110.697 170.22ZM123.489 170.045L132.029 192.06C132.379 192.947 132.775 193.542 133.219 193.845C133.662 194.125 134.07 194.277 134.444 194.3V195C133.977 194.953 133.405 194.93 132.729 194.93C132.052 194.907 131.375 194.895 130.699 194.895C129.789 194.895 128.937 194.907 128.144 194.93C127.35 194.93 126.709 194.953 126.219 195V194.3C127.409 194.253 128.167 194.055 128.494 193.705C128.82 193.332 128.75 192.55 128.284 191.36L121.774 173.965L122.334 173.51L116.244 189.33C115.87 190.263 115.649 191.057 115.579 191.71C115.509 192.34 115.567 192.842 115.754 193.215C115.964 193.588 116.302 193.857 116.769 194.02C117.259 194.183 117.865 194.277 118.589 194.3V195C117.935 194.953 117.247 194.93 116.524 194.93C115.824 194.907 115.17 194.895 114.564 194.895C113.98 194.895 113.479 194.907 113.059 194.93C112.662 194.93 112.289 194.953 111.939 195V194.3C112.405 194.183 112.884 193.915 113.374 193.495C113.864 193.052 114.307 192.305 114.704 191.255L122.929 170.045C123.022 170.045 123.115 170.045 123.209 170.045C123.302 170.045 123.395 170.045 123.489 170.045ZM127.759 184.92V185.62H117.329L117.679 184.92H127.759ZM150.329 195V194.3C151.123 194.253 151.718 194.16 152.114 194.02C152.534 193.88 152.814 193.6 152.954 193.18C153.094 192.76 153.164 192.13 153.164 191.29V173.93C153.164 173.067 153.094 172.437 152.954 172.04C152.814 171.62 152.534 171.34 152.114 171.2C151.718 171.037 151.123 170.943 150.329 170.92V170.22C150.866 170.243 151.543 170.267 152.359 170.29C153.176 170.313 153.981 170.325 154.774 170.325C155.684 170.325 156.536 170.313 157.329 170.29C158.123 170.267 158.764 170.243 159.254 170.22V170.92C158.461 170.943 157.854 171.037 157.434 171.2C157.038 171.34 156.769 171.62 156.629 172.04C156.489 172.437 156.419 173.067 156.419 173.93V191.29C156.419 192.13 156.489 192.76 156.629 193.18C156.769 193.6 157.038 193.88 157.434 194.02C157.854 194.16 158.461 194.253 159.254 194.3V195C158.764 194.953 158.123 194.93 157.329 194.93C156.536 194.907 155.684 194.895 154.774 194.895C153.981 194.895 153.176 194.907 152.359 194.93C151.543 194.93 150.866 194.953 150.329 195ZM135.699 195V194.3C136.493 194.253 137.088 194.16 137.484 194.02C137.904 193.88 138.184 193.6 138.324 193.18C138.464 192.76 138.534 192.13 138.534 191.29V173.93C138.534 173.067 138.464 172.437 138.324 172.04C138.184 171.62 137.904 171.34 137.484 171.2C137.088 171.037 136.493 170.943 135.699 170.92V170.22C136.189 170.243 136.831 170.267 137.624 170.29C138.418 170.313 139.269 170.325 140.179 170.325C140.996 170.325 141.801 170.313 142.594 170.29C143.411 170.267 144.088 170.243 144.624 170.22V170.92C143.831 170.943 143.224 171.037 142.804 171.2C142.408 171.34 142.139 171.62 141.999 172.04C141.859 172.437 141.789 173.067 141.789 173.93V191.29C141.789 192.13 141.859 192.76 141.999 193.18C142.139 193.6 142.408 193.88 142.804 194.02C143.224 194.16 143.831 194.253 144.624 194.3V195C144.088 194.953 143.411 194.93 142.594 194.93C141.801 194.907 140.996 194.895 140.179 194.895C139.269 194.895 138.418 194.907 137.624 194.93C136.831 194.93 136.189 194.953 135.699 195ZM140.564 182.89V182.19H154.389V182.89H140.564ZM171.114 170.22V170.92C170.32 170.943 169.714 171.037 169.294 171.2C168.897 171.34 168.629 171.62 168.489 172.04C168.349 172.437 168.279 173.067 168.279 173.93V191.29C168.279 192.13 168.349 192.76 168.489 193.18C168.629 193.6 168.897 193.88 169.294 194.02C169.714 194.16 170.32 194.253 171.114 194.3V195C170.577 194.953 169.9 194.93 169.084 194.93C168.29 194.907 167.485 194.895 166.669 194.895C165.759 194.895 164.907 194.907 164.114 194.93C163.32 194.93 162.679 194.953 162.189 195V194.3C162.982 194.253 163.577 194.16 163.974 194.02C164.394 193.88 164.674 193.6 164.814 193.18C164.954 192.76 165.024 192.13 165.024 191.29V173.93C165.024 173.067 164.954 172.437 164.814 172.04C164.674 171.62 164.394 171.34 163.974 171.2C163.577 171.037 162.982 170.943 162.189 170.92V170.22C162.679 170.243 163.32 170.267 164.114 170.29C164.907 170.313 165.759 170.325 166.669 170.325C167.485 170.325 168.29 170.313 169.084 170.29C169.9 170.267 170.577 170.243 171.114 170.22ZM180.949 172.53C180.949 172.53 180.937 172.658 180.914 172.915C180.89 173.148 180.867 173.393 180.844 173.65C180.844 173.907 180.844 174.035 180.844 174.035L166.844 193.88L166.949 192.375L180.949 172.53ZM186.444 170.22V170.92C185.65 170.943 185.044 171.037 184.624 171.2C184.227 171.34 183.959 171.62 183.819 172.04C183.679 172.437 183.609 173.067 183.609 173.93V191.29C183.609 192.13 183.679 192.76 183.819 193.18C183.959 193.6 184.227 193.88 184.624 194.02C185.044 194.16 185.65 194.253 186.444 194.3V195C185.954 194.953 185.312 194.93 184.519 194.93C183.725 194.907 182.874 194.895 181.964 194.895C181.17 194.895 180.365 194.907 179.549 194.93C178.732 194.93 178.055 194.953 177.519 195V194.3C178.312 194.253 178.907 194.16 179.304 194.02C179.724 193.88 180.004 193.6 180.144 193.18C180.284 192.76 180.354 192.13 180.354 191.29V173.93C180.354 173.067 180.284 172.437 180.144 172.04C180.004 171.62 179.724 171.34 179.304 171.2C178.907 171.037 178.312 170.943 177.519 170.92V170.22C178.055 170.243 178.732 170.267 179.549 170.29C180.365 170.313 181.17 170.325 181.964 170.325C182.874 170.325 183.725 170.313 184.519 170.29C185.312 170.267 185.954 170.243 186.444 170.22ZM189.396 170.22C189.886 170.243 190.527 170.267 191.321 170.29C192.114 170.313 192.896 170.325 193.666 170.325C194.762 170.325 195.812 170.313 196.816 170.29C197.819 170.267 198.531 170.255 198.951 170.255C201.774 170.255 203.886 170.897 205.286 172.18C206.686 173.463 207.386 175.12 207.386 177.15C207.386 177.99 207.246 178.877 206.966 179.81C206.686 180.72 206.196 181.572 205.496 182.365C204.819 183.135 203.886 183.765 202.696 184.255C201.506 184.745 200.001 184.99 198.181 184.99H194.821V184.29H197.831C199.487 184.29 200.747 183.975 201.611 183.345C202.497 182.715 203.092 181.887 203.396 180.86C203.722 179.833 203.886 178.725 203.886 177.535C203.886 175.318 203.442 173.662 202.556 172.565C201.692 171.468 200.199 170.92 198.076 170.92C197.002 170.92 196.302 171.118 195.976 171.515C195.649 171.912 195.486 172.717 195.486 173.93V191.29C195.486 192.13 195.567 192.76 195.731 193.18C195.917 193.6 196.267 193.88 196.781 194.02C197.294 194.16 198.041 194.253 199.021 194.3V195C198.414 194.953 197.644 194.93 196.711 194.93C195.777 194.907 194.832 194.895 193.876 194.895C192.966 194.895 192.114 194.907 191.321 194.93C190.527 194.93 189.886 194.953 189.396 195V194.3C190.189 194.253 190.784 194.16 191.181 194.02C191.601 193.88 191.881 193.6 192.021 193.18C192.161 192.76 192.231 192.13 192.231 191.29V173.93C192.231 173.067 192.161 172.437 192.021 172.04C191.881 171.62 191.601 171.34 191.181 171.2C190.784 171.037 190.189 170.943 189.396 170.92V170.22ZM221.384 169.73C223.601 169.73 225.538 170.232 227.194 171.235C228.874 172.238 230.169 173.685 231.079 175.575C232.013 177.442 232.479 179.717 232.479 182.4C232.479 185.013 232.001 187.3 231.044 189.26C230.111 191.22 228.804 192.748 227.124 193.845C225.444 194.942 223.519 195.49 221.349 195.49C219.133 195.49 217.184 194.988 215.504 193.985C213.848 192.982 212.553 191.535 211.619 189.645C210.709 187.755 210.254 185.48 210.254 182.82C210.254 180.207 210.733 177.92 211.689 175.96C212.646 174 213.953 172.472 215.609 171.375C217.289 170.278 219.214 169.73 221.384 169.73ZM221.244 170.36C219.728 170.36 218.409 170.885 217.289 171.935C216.169 172.985 215.294 174.432 214.664 176.275C214.058 178.118 213.754 180.253 213.754 182.68C213.754 185.153 214.093 187.312 214.769 189.155C215.469 190.975 216.403 192.387 217.569 193.39C218.759 194.37 220.066 194.86 221.489 194.86C223.006 194.86 224.324 194.335 225.444 193.285C226.564 192.235 227.428 190.788 228.034 188.945C228.664 187.078 228.979 184.943 228.979 182.54C228.979 180.043 228.629 177.885 227.929 176.065C227.253 174.245 226.331 172.845 225.164 171.865C223.998 170.862 222.691 170.36 221.244 170.36ZM235.538 170.22C236.028 170.243 236.67 170.267 237.463 170.29C238.257 170.313 239.038 170.325 239.808 170.325C240.905 170.325 241.955 170.313 242.958 170.29C243.962 170.267 244.673 170.255 245.093 170.255C247.543 170.255 249.387 170.768 250.623 171.795C251.86 172.822 252.478 174.14 252.478 175.75C252.478 176.567 252.303 177.372 251.953 178.165C251.627 178.935 251.067 179.647 250.273 180.3C249.503 180.93 248.465 181.443 247.158 181.84V181.91C249.002 182.143 250.437 182.587 251.463 183.24C252.513 183.87 253.248 184.617 253.668 185.48C254.088 186.343 254.298 187.253 254.298 188.21C254.298 189.54 253.96 190.718 253.283 191.745C252.63 192.748 251.673 193.542 250.413 194.125C249.153 194.708 247.648 195 245.898 195C245.385 195 244.615 194.988 243.588 194.965C242.562 194.918 241.325 194.895 239.878 194.895C239.062 194.895 238.257 194.907 237.463 194.93C236.67 194.93 236.028 194.953 235.538 195V194.3C236.332 194.253 236.927 194.16 237.323 194.02C237.743 193.88 238.023 193.6 238.163 193.18C238.303 192.76 238.373 192.13 238.373 191.29V173.93C238.373 173.067 238.303 172.437 238.163 172.04C238.023 171.62 237.743 171.34 237.323 171.2C236.927 171.037 236.332 170.943 235.538 170.92V170.22ZM244.218 170.92C243.145 170.92 242.445 171.118 242.118 171.515C241.792 171.912 241.628 172.717 241.628 173.93V191.29C241.628 192.107 241.698 192.725 241.838 193.145C241.978 193.565 242.235 193.845 242.608 193.985C242.982 194.125 243.53 194.195 244.253 194.195C246.54 194.195 248.197 193.67 249.223 192.62C250.273 191.547 250.798 190.03 250.798 188.07C250.798 186.273 250.308 184.885 249.328 183.905C248.372 182.925 246.785 182.435 244.568 182.435H240.963C240.963 182.435 240.963 182.342 240.963 182.155C240.963 181.945 240.963 181.84 240.963 181.84H243.973C245.35 181.84 246.412 181.583 247.158 181.07C247.905 180.533 248.418 179.833 248.698 178.97C248.978 178.083 249.118 177.138 249.118 176.135C249.118 174.408 248.733 173.113 247.963 172.25C247.217 171.363 245.968 170.92 244.218 170.92ZM266.031 170.22V170.92C265.237 170.943 264.631 171.037 264.211 171.2C263.814 171.34 263.546 171.62 263.406 172.04C263.266 172.437 263.196 173.067 263.196 173.93V191.29C263.196 192.13 263.266 192.76 263.406 193.18C263.546 193.6 263.814 193.88 264.211 194.02C264.631 194.16 265.237 194.253 266.031 194.3V195C265.494 194.953 264.817 194.93 264.001 194.93C263.207 194.907 262.402 194.895 261.586 194.895C260.676 194.895 259.824 194.907 259.031 194.93C258.237 194.93 257.596 194.953 257.106 195V194.3C257.899 194.253 258.494 194.16 258.891 194.02C259.311 193.88 259.591 193.6 259.731 193.18C259.871 192.76 259.941 192.13 259.941 191.29V173.93C259.941 173.067 259.871 172.437 259.731 172.04C259.591 171.62 259.311 171.34 258.891 171.2C258.494 171.037 257.899 170.943 257.106 170.92V170.22C257.596 170.243 258.237 170.267 259.031 170.29C259.824 170.313 260.676 170.325 261.586 170.325C262.402 170.325 263.207 170.313 264.001 170.29C264.817 170.267 265.494 170.243 266.031 170.22ZM265.646 181.84C266.882 181.84 268.037 181.968 269.111 182.225C270.207 182.482 271.141 182.972 271.911 183.695C272.681 184.418 273.229 185.492 273.556 186.915L274.571 191.325C274.827 192.398 275.061 193.157 275.271 193.6C275.481 194.02 275.842 194.218 276.356 194.195C276.752 194.172 277.079 194.043 277.336 193.81C277.616 193.577 277.907 193.262 278.211 192.865L278.736 193.25C278.292 193.903 277.802 194.44 277.266 194.86C276.729 195.28 275.971 195.49 274.991 195.49C274.174 195.49 273.427 195.257 272.751 194.79C272.097 194.3 271.596 193.273 271.246 191.71L270.266 187.37C270.056 186.39 269.811 185.538 269.531 184.815C269.251 184.092 268.807 183.532 268.201 183.135C267.594 182.715 266.696 182.505 265.506 182.505H262.531V181.84H265.646ZM263.196 182.505V181.84C264.176 181.817 264.992 181.618 265.646 181.245C266.322 180.848 266.882 180.37 267.326 179.81L270.686 175.54C271.456 174.56 271.981 173.732 272.261 173.055C272.541 172.378 272.529 171.865 272.226 171.515C271.922 171.142 271.281 170.943 270.301 170.92V170.22C270.744 170.243 271.199 170.267 271.666 170.29C272.132 170.29 272.587 170.302 273.031 170.325C273.497 170.325 273.929 170.325 274.326 170.325C274.932 170.325 275.492 170.313 276.006 170.29C276.519 170.267 276.951 170.243 277.301 170.22V170.92C276.577 171.013 275.877 171.258 275.201 171.655C274.524 172.028 273.847 172.635 273.171 173.475L266.066 182.505H263.196ZM290.661 170.045L299.201 192.06C299.551 192.947 299.948 193.542 300.391 193.845C300.835 194.125 301.243 194.277 301.616 194.3V195C301.15 194.953 300.578 194.93 299.901 194.93C299.225 194.907 298.548 194.895 297.871 194.895C296.961 194.895 296.11 194.907 295.316 194.93C294.523 194.93 293.881 194.953 293.391 195V194.3C294.581 194.253 295.34 194.055 295.666 193.705C295.993 193.332 295.923 192.55 295.456 191.36L288.946 173.965L289.506 173.51L283.416 189.33C283.043 190.263 282.821 191.057 282.751 191.71C282.681 192.34 282.74 192.842 282.926 193.215C283.136 193.588 283.475 193.857 283.941 194.02C284.431 194.183 285.038 194.277 285.761 194.3V195C285.108 194.953 284.42 194.93 283.696 194.93C282.996 194.907 282.343 194.895 281.736 194.895C281.153 194.895 280.651 194.907 280.231 194.93C279.835 194.93 279.461 194.953 279.111 195V194.3C279.578 194.183 280.056 193.915 280.546 193.495C281.036 193.052 281.48 192.305 281.876 191.255L290.101 170.045C290.195 170.045 290.288 170.045 290.381 170.045C290.475 170.045 290.568 170.045 290.661 170.045ZM294.931 184.92V185.62H284.501L284.851 184.92H294.931Z" fill="#B1B1B1"/>
</g>
</svg>
